ISO-10303-21;
HEADER;
FILE_DESCRIPTION(('FreeCAD Model'),'2;1');
FILE_NAME('Open CASCADE Shape Model','2026-02-17T15:04:08',('Author'),(
    ''),'Open CASCADE STEP processor 7.8','FreeCAD','Unknown');
FILE_SCHEMA(('AUTOMOTIVE_DESIGN { 1 0 10303 214 1 1 1 1 }'));
ENDSEC;
DATA;
#1 = APPLICATION_PROTOCOL_DEFINITION('international standard',
  'automotive_design',2000,#2);
#2 = APPLICATION_CONTEXT(
  'core data for automotive mechanical design processes');
#3 = SHAPE_DEFINITION_REPRESENTATION(#4,#10);
#4 = PRODUCT_DEFINITION_SHAPE('','',#5);
#5 = PRODUCT_DEFINITION('design','',#6,#9);
#6 = PRODUCT_DEFINITION_FORMATION('','',#7);
#7 = PRODUCT('Part','Part','',(#8));
#8 = PRODUCT_CONTEXT('',#2,'mechanical');
#9 = PRODUCT_DEFINITION_CONTEXT('part definition',#2,'design');
#10 = SHAPE_REPRESENTATION('',(#11,#15,#19),#23);
#11 = AXIS2_PLACEMENT_3D('',#12,#13,#14);
#12 = CARTESIAN_POINT('',(0.,0.,0.));
#13 = DIRECTION('',(0.,0.,1.));
#14 = DIRECTION('',(1.,0.,-0.));
#15 = AXIS2_PLACEMENT_3D('',#16,#17,#18);
#16 = CARTESIAN_POINT('',(0.,0.,0.));
#17 = DIRECTION('',(0.,0.,1.));
#18 = DIRECTION('',(1.,0.,0.));
#19 = AXIS2_PLACEMENT_3D('',#20,#21,#22);
#20 = CARTESIAN_POINT('',(0.,0.,0.));
#21 = DIRECTION('',(0.,0.,1.));
#22 = DIRECTION('',(1.,0.,0.));
#23 = ( GEOMETRIC_REPRESENTATION_CONTEXT(3) 
GLOBAL_UNCERTAINTY_ASSIGNED_CONTEXT((#27)) GLOBAL_UNIT_ASSIGNED_CONTEXT(
(#24,#25,#26)) REPRESENTATION_CONTEXT('Context #1',
  '3D Context with UNIT and UNCERTAINTY') );
#24 = ( LENGTH_UNIT() NAMED_UNIT(*) SI_UNIT(.MILLI.,.METRE.) );
#25 = ( NAMED_UNIT(*) PLANE_ANGLE_UNIT() SI_UNIT($,.RADIAN.) );
#26 = ( NAMED_UNIT(*) SI_UNIT($,.STERADIAN.) SOLID_ANGLE_UNIT() );
#27 = UNCERTAINTY_MEASURE_WITH_UNIT(LENGTH_MEASURE(2.E-07),#24,
  'distance_accuracy_value','confusion accuracy');
#28 = PRODUCT_RELATED_PRODUCT_CATEGORY('part',$,(#7));
#29 = SHAPE_DEFINITION_REPRESENTATION(#30,#36);
#30 = PRODUCT_DEFINITION_SHAPE('','',#31);
#31 = PRODUCT_DEFINITION('design','',#32,#35);
#32 = PRODUCT_DEFINITION_FORMATION('','',#33);
#33 = PRODUCT('Array','Array','',(#34));
#34 = PRODUCT_CONTEXT('',#2,'mechanical');
#35 = PRODUCT_DEFINITION_CONTEXT('part definition',#2,'design');
#36 = SHAPE_REPRESENTATION('',(#11,#37,#41,#45,#49),#53);
#37 = AXIS2_PLACEMENT_3D('',#38,#39,#40);
#38 = CARTESIAN_POINT('',(0.,0.,0.));
#39 = DIRECTION('',(0.,0.,1.));
#40 = DIRECTION('',(1.,0.,0.));
#41 = AXIS2_PLACEMENT_3D('',#42,#43,#44);
#42 = CARTESIAN_POINT('',(2.54,0.,0.));
#43 = DIRECTION('',(0.,0.,1.));
#44 = DIRECTION('',(1.,0.,0.));
#45 = AXIS2_PLACEMENT_3D('',#46,#47,#48);
#46 = CARTESIAN_POINT('',(5.08,0.,0.));
#47 = DIRECTION('',(0.,0.,1.));
#48 = DIRECTION('',(1.,0.,0.));
#49 = AXIS2_PLACEMENT_3D('',#50,#51,#52);
#50 = CARTESIAN_POINT('',(7.62,0.,0.));
#51 = DIRECTION('',(0.,0.,1.));
#52 = DIRECTION('',(1.,0.,0.));
#53 = ( GEOMETRIC_REPRESENTATION_CONTEXT(3) 
GLOBAL_UNCERTAINTY_ASSIGNED_CONTEXT((#57)) GLOBAL_UNIT_ASSIGNED_CONTEXT(
(#54,#55,#56)) REPRESENTATION_CONTEXT('Context #1',
  '3D Context with UNIT and UNCERTAINTY') );
#54 = ( LENGTH_UNIT() NAMED_UNIT(*) SI_UNIT(.MILLI.,.METRE.) );
#55 = ( NAMED_UNIT(*) PLANE_ANGLE_UNIT() SI_UNIT($,.RADIAN.) );
#56 = ( NAMED_UNIT(*) SI_UNIT($,.STERADIAN.) SOLID_ANGLE_UNIT() );
#57 = UNCERTAINTY_MEASURE_WITH_UNIT(LENGTH_MEASURE(2.E-07),#54,
  'distance_accuracy_value','confusion accuracy');
#58 = CONTEXT_DEPENDENT_SHAPE_REPRESENTATION(#59,#61);
#59 = ( REPRESENTATION_RELATIONSHIP('','',#36,#10) 
REPRESENTATION_RELATIONSHIP_WITH_TRANSFORMATION(#60) 
SHAPE_REPRESENTATION_RELATIONSHIP() );
#60 = ITEM_DEFINED_TRANSFORMATION('','',#11,#15);
#61 = PRODUCT_DEFINITION_SHAPE('Placement','Placement of an item',#62);
#62 = NEXT_ASSEMBLY_USAGE_OCCURRENCE('15','Array','',#5,#31,$);
#63 = PRODUCT_RELATED_PRODUCT_CATEGORY('part',$,(#33));
#64 = SHAPE_DEFINITION_REPRESENTATION(#65,#71);
#65 = PRODUCT_DEFINITION_SHAPE('','',#66);
#66 = PRODUCT_DEFINITION('design','',#67,#70);
#67 = PRODUCT_DEFINITION_FORMATION('','',#68);
#68 = PRODUCT('Body','Body','',(#69));
#69 = PRODUCT_CONTEXT('',#2,'mechanical');
#70 = PRODUCT_DEFINITION_CONTEXT('part definition',#2,'design');
#71 = ADVANCED_BREP_SHAPE_REPRESENTATION('',(#11,#72),#814);
#72 = MANIFOLD_SOLID_BREP('',#73);
#73 = CLOSED_SHELL('',(#74,#212,#266,#297,#321,#375,#399,#423,#440,#464,
    #481,#512,#543,#567,#591,#608,#632,#660,#672,#696,#720,#737,#761,
    #773,#790,#802));
#74 = ADVANCED_FACE('',(#75,#173),#207,.T.);
#75 = FACE_BOUND('',#76,.T.);
#76 = EDGE_LOOP('',(#77,#87,#95,#103,#111,#119,#127,#135,#143,#151,#159,
    #167));
#77 = ORIENTED_EDGE('',*,*,#78,.F.);
#78 = EDGE_CURVE('',#79,#81,#83,.T.);
#79 = VERTEX_POINT('',#80);
#80 = CARTESIAN_POINT('',(1.12,-1.27,0.5));
#81 = VERTEX_POINT('',#82);
#82 = CARTESIAN_POINT('',(1.121,-1.27,0.5));
#83 = LINE('',#84,#85);
#84 = CARTESIAN_POINT('',(1.12,-1.27,0.5));
#85 = VECTOR('',#86,1.);
#86 = DIRECTION('',(1.,0.,0.));
#87 = ORIENTED_EDGE('',*,*,#88,.T.);
#88 = EDGE_CURVE('',#79,#89,#91,.T.);
#89 = VERTEX_POINT('',#90);
#90 = CARTESIAN_POINT('',(1.12,-1.12,0.5));
#91 = LINE('',#92,#93);
#92 = CARTESIAN_POINT('',(1.12,-1.27,0.5));
#93 = VECTOR('',#94,1.);
#94 = DIRECTION('',(0.,1.,0.));
#95 = ORIENTED_EDGE('',*,*,#96,.T.);
#96 = EDGE_CURVE('',#89,#97,#99,.T.);
#97 = VERTEX_POINT('',#98);
#98 = CARTESIAN_POINT('',(-1.12,-1.12,0.5));
#99 = LINE('',#100,#101);
#100 = CARTESIAN_POINT('',(1.12,-1.12,0.5));
#101 = VECTOR('',#102,1.);
#102 = DIRECTION('',(-1.,-0.,-0.));
#103 = ORIENTED_EDGE('',*,*,#104,.T.);
#104 = EDGE_CURVE('',#97,#105,#107,.T.);
#105 = VERTEX_POINT('',#106);
#106 = CARTESIAN_POINT('',(-1.12,-1.27,0.5));
#107 = LINE('',#108,#109);
#108 = CARTESIAN_POINT('',(-1.12,1.27,0.5));
#109 = VECTOR('',#110,1.);
#110 = DIRECTION('',(0.,-1.,0.));
#111 = ORIENTED_EDGE('',*,*,#112,.T.);
#112 = EDGE_CURVE('',#105,#113,#115,.T.);
#113 = VERTEX_POINT('',#114);
#114 = CARTESIAN_POINT('',(-1.121,-1.27,0.5));
#115 = LINE('',#116,#117);
#116 = CARTESIAN_POINT('',(-1.12,-1.27,0.5));
#117 = VECTOR('',#118,1.);
#118 = DIRECTION('',(-1.,0.,0.));
#119 = ORIENTED_EDGE('',*,*,#120,.F.);
#120 = EDGE_CURVE('',#121,#113,#123,.T.);
#121 = VERTEX_POINT('',#122);
#122 = CARTESIAN_POINT('',(-1.121,1.27,0.5));
#123 = LINE('',#124,#125);
#124 = CARTESIAN_POINT('',(-1.121,1.27,0.5));
#125 = VECTOR('',#126,1.);
#126 = DIRECTION('',(0.,-1.,0.));
#127 = ORIENTED_EDGE('',*,*,#128,.F.);
#128 = EDGE_CURVE('',#129,#121,#131,.T.);
#129 = VERTEX_POINT('',#130);
#130 = CARTESIAN_POINT('',(-1.12,1.27,0.5));
#131 = LINE('',#132,#133);
#132 = CARTESIAN_POINT('',(-1.12,1.27,0.5));
#133 = VECTOR('',#134,1.);
#134 = DIRECTION('',(-1.,0.,0.));
#135 = ORIENTED_EDGE('',*,*,#136,.T.);
#136 = EDGE_CURVE('',#129,#137,#139,.T.);
#137 = VERTEX_POINT('',#138);
#138 = CARTESIAN_POINT('',(-1.12,1.12,0.5));
#139 = LINE('',#140,#141);
#140 = CARTESIAN_POINT('',(-1.12,1.27,0.5));
#141 = VECTOR('',#142,1.);
#142 = DIRECTION('',(0.,-1.,0.));
#143 = ORIENTED_EDGE('',*,*,#144,.F.);
#144 = EDGE_CURVE('',#145,#137,#147,.T.);
#145 = VERTEX_POINT('',#146);
#146 = CARTESIAN_POINT('',(1.12,1.12,0.5));
#147 = LINE('',#148,#149);
#148 = CARTESIAN_POINT('',(1.12,1.12,0.5));
#149 = VECTOR('',#150,1.);
#150 = DIRECTION('',(-1.,-0.,-0.));
#151 = ORIENTED_EDGE('',*,*,#152,.T.);
#152 = EDGE_CURVE('',#145,#153,#155,.T.);
#153 = VERTEX_POINT('',#154);
#154 = CARTESIAN_POINT('',(1.12,1.27,0.5));
#155 = LINE('',#156,#157);
#156 = CARTESIAN_POINT('',(1.12,-1.27,0.5));
#157 = VECTOR('',#158,1.);
#158 = DIRECTION('',(0.,1.,0.));
#159 = ORIENTED_EDGE('',*,*,#160,.T.);
#160 = EDGE_CURVE('',#153,#161,#163,.T.);
#161 = VERTEX_POINT('',#162);
#162 = CARTESIAN_POINT('',(1.121,1.27,0.5));
#163 = LINE('',#164,#165);
#164 = CARTESIAN_POINT('',(1.12,1.27,0.5));
#165 = VECTOR('',#166,1.);
#166 = DIRECTION('',(1.,0.,0.));
#167 = ORIENTED_EDGE('',*,*,#168,.F.);
#168 = EDGE_CURVE('',#81,#161,#169,.T.);
#169 = LINE('',#170,#171);
#170 = CARTESIAN_POINT('',(1.121,-1.27,0.5));
#171 = VECTOR('',#172,1.);
#172 = DIRECTION('',(0.,1.,0.));
#173 = FACE_BOUND('',#174,.T.);
#174 = EDGE_LOOP('',(#175,#185,#193,#201));
#175 = ORIENTED_EDGE('',*,*,#176,.F.);
#176 = EDGE_CURVE('',#177,#179,#181,.T.);
#177 = VERTEX_POINT('',#178);
#178 = CARTESIAN_POINT('',(0.32,-0.32,0.5));
#179 = VERTEX_POINT('',#180);
#180 = CARTESIAN_POINT('',(-0.32,-0.32,0.5));
#181 = LINE('',#182,#183);
#182 = CARTESIAN_POINT('',(-0.16,-0.32,0.5));
#183 = VECTOR('',#184,1.);
#184 = DIRECTION('',(-1.,0.,0.));
#185 = ORIENTED_EDGE('',*,*,#186,.F.);
#186 = EDGE_CURVE('',#187,#177,#189,.T.);
#187 = VERTEX_POINT('',#188);
#188 = CARTESIAN_POINT('',(0.32,0.32,0.5));
#189 = LINE('',#190,#191);
#190 = CARTESIAN_POINT('',(0.32,-0.16,0.5));
#191 = VECTOR('',#192,1.);
#192 = DIRECTION('',(0.,-1.,0.));
#193 = ORIENTED_EDGE('',*,*,#194,.F.);
#194 = EDGE_CURVE('',#195,#187,#197,.T.);
#195 = VERTEX_POINT('',#196);
#196 = CARTESIAN_POINT('',(-0.32,0.32,0.5));
#197 = LINE('',#198,#199);
#198 = CARTESIAN_POINT('',(0.16,0.32,0.5));
#199 = VECTOR('',#200,1.);
#200 = DIRECTION('',(1.,0.,0.));
#201 = ORIENTED_EDGE('',*,*,#202,.F.);
#202 = EDGE_CURVE('',#179,#195,#203,.T.);
#203 = LINE('',#204,#205);
#204 = CARTESIAN_POINT('',(-0.32,0.16,0.5));
#205 = VECTOR('',#206,1.);
#206 = DIRECTION('',(0.,1.,0.));
#207 = PLANE('',#208);
#208 = AXIS2_PLACEMENT_3D('',#209,#210,#211);
#209 = CARTESIAN_POINT('',(0.,0.,0.5));
#210 = DIRECTION('',(-0.,-0.,-1.));
#211 = DIRECTION('',(-1.,0.,0.));
#212 = ADVANCED_FACE('',(#213),#261,.T.);
#213 = FACE_BOUND('',#214,.T.);
#214 = EDGE_LOOP('',(#215,#216,#224,#232,#238,#239,#247,#255));
#215 = ORIENTED_EDGE('',*,*,#78,.T.);
#216 = ORIENTED_EDGE('',*,*,#217,.F.);
#217 = EDGE_CURVE('',#218,#81,#220,.T.);
#218 = VERTEX_POINT('',#219);
#219 = CARTESIAN_POINT('',(1.121,-1.27,2.54));
#220 = LINE('',#221,#222);
#221 = CARTESIAN_POINT('',(1.121,-1.27,2.54));
#222 = VECTOR('',#223,1.);
#223 = DIRECTION('',(0.,0.,-1.));
#224 = ORIENTED_EDGE('',*,*,#225,.F.);
#225 = EDGE_CURVE('',#226,#218,#228,.T.);
#226 = VERTEX_POINT('',#227);
#227 = CARTESIAN_POINT('',(-1.121,-1.27,2.54));
#228 = LINE('',#229,#230);
#229 = CARTESIAN_POINT('',(1.12,-1.27,2.54));
#230 = VECTOR('',#231,1.);
#231 = DIRECTION('',(1.,0.,0.));
#232 = ORIENTED_EDGE('',*,*,#233,.F.);
#233 = EDGE_CURVE('',#113,#226,#234,.T.);
#234 = LINE('',#235,#236);
#235 = CARTESIAN_POINT('',(-1.121,-1.27,0.5));
#236 = VECTOR('',#237,1.);
#237 = DIRECTION('',(0.,0.,1.));
#238 = ORIENTED_EDGE('',*,*,#112,.F.);
#239 = ORIENTED_EDGE('',*,*,#240,.F.);
#240 = EDGE_CURVE('',#241,#105,#243,.T.);
#241 = VERTEX_POINT('',#242);
#242 = CARTESIAN_POINT('',(-1.12,-1.27,0.));
#243 = LINE('',#244,#245);
#244 = CARTESIAN_POINT('',(-1.12,-1.27,0.));
#245 = VECTOR('',#246,1.);
#246 = DIRECTION('',(0.,0.,1.));
#247 = ORIENTED_EDGE('',*,*,#248,.T.);
#248 = EDGE_CURVE('',#241,#249,#251,.T.);
#249 = VERTEX_POINT('',#250);
#250 = CARTESIAN_POINT('',(1.12,-1.27,0.));
#251 = LINE('',#252,#253);
#252 = CARTESIAN_POINT('',(-1.12,-1.27,0.));
#253 = VECTOR('',#254,1.);
#254 = DIRECTION('',(1.,0.,0.));
#255 = ORIENTED_EDGE('',*,*,#256,.T.);
#256 = EDGE_CURVE('',#249,#79,#257,.T.);
#257 = LINE('',#258,#259);
#258 = CARTESIAN_POINT('',(1.12,-1.27,0.));
#259 = VECTOR('',#260,1.);
#260 = DIRECTION('',(0.,0.,1.));
#261 = PLANE('',#262);
#262 = AXIS2_PLACEMENT_3D('',#263,#264,#265);
#263 = CARTESIAN_POINT('',(-2.E-17,-1.27,1.284763779528));
#264 = DIRECTION('',(-0.,-1.,-0.));
#265 = DIRECTION('',(0.,0.,-1.));
#266 = ADVANCED_FACE('',(#267),#292,.T.);
#267 = FACE_BOUND('',#268,.T.);
#268 = EDGE_LOOP('',(#269,#277,#278,#286));
#269 = ORIENTED_EDGE('',*,*,#270,.F.);
#270 = EDGE_CURVE('',#81,#271,#273,.T.);
#271 = VERTEX_POINT('',#272);
#272 = CARTESIAN_POINT('',(1.27,-1.121,0.649));
#273 = LINE('',#274,#275);
#274 = CARTESIAN_POINT('',(1.510666666667,-0.880333333333,0.889666666667
    ));
#275 = VECTOR('',#276,1.);
#276 = DIRECTION('',(0.57735026919,0.57735026919,0.57735026919));
#277 = ORIENTED_EDGE('',*,*,#168,.T.);
#278 = ORIENTED_EDGE('',*,*,#279,.F.);
#279 = EDGE_CURVE('',#280,#161,#282,.T.);
#280 = VERTEX_POINT('',#281);
#281 = CARTESIAN_POINT('',(1.27,1.121,0.649));
#282 = LINE('',#283,#284);
#283 = CARTESIAN_POINT('',(1.594,0.797,0.973));
#284 = VECTOR('',#285,1.);
#285 = DIRECTION('',(-0.57735026919,0.57735026919,-0.57735026919));
#286 = ORIENTED_EDGE('',*,*,#287,.F.);
#287 = EDGE_CURVE('',#271,#280,#288,.T.);
#288 = LINE('',#289,#290);
#289 = CARTESIAN_POINT('',(1.27,-1.27,0.649));
#290 = VECTOR('',#291,1.);
#291 = DIRECTION('',(0.,1.,0.));
#292 = PLANE('',#293);
#293 = AXIS2_PLACEMENT_3D('',#294,#295,#296);
#294 = CARTESIAN_POINT('',(1.1955,-1.27,0.5745));
#295 = DIRECTION('',(0.707106781187,0.,-0.707106781187));
#296 = DIRECTION('',(0.,1.,0.));
#297 = ADVANCED_FACE('',(#298),#316,.F.);
#298 = FACE_BOUND('',#299,.F.);
#299 = EDGE_LOOP('',(#300,#308,#309,#310));
#300 = ORIENTED_EDGE('',*,*,#301,.F.);
#301 = EDGE_CURVE('',#249,#302,#304,.T.);
#302 = VERTEX_POINT('',#303);
#303 = CARTESIAN_POINT('',(1.12,-1.12,0.));
#304 = LINE('',#305,#306);
#305 = CARTESIAN_POINT('',(1.12,-1.27,0.));
#306 = VECTOR('',#307,1.);
#307 = DIRECTION('',(0.,1.,0.));
#308 = ORIENTED_EDGE('',*,*,#256,.T.);
#309 = ORIENTED_EDGE('',*,*,#88,.T.);
#310 = ORIENTED_EDGE('',*,*,#311,.T.);
#311 = EDGE_CURVE('',#89,#302,#312,.T.);
#312 = LINE('',#313,#314);
#313 = CARTESIAN_POINT('',(1.12,-1.12,0.5));
#314 = VECTOR('',#315,1.);
#315 = DIRECTION('',(0.,0.,-1.));
#316 = PLANE('',#317);
#317 = AXIS2_PLACEMENT_3D('',#318,#319,#320);
#318 = CARTESIAN_POINT('',(1.12,-1.27,0.));
#319 = DIRECTION('',(-1.,0.,0.));
#320 = DIRECTION('',(0.,1.,0.));
#321 = ADVANCED_FACE('',(#322),#370,.T.);
#322 = FACE_BOUND('',#323,.T.);
#323 = EDGE_LOOP('',(#324,#325,#333,#341,#347,#348,#356,#364));
#324 = ORIENTED_EDGE('',*,*,#128,.T.);
#325 = ORIENTED_EDGE('',*,*,#326,.F.);
#326 = EDGE_CURVE('',#327,#121,#329,.T.);
#327 = VERTEX_POINT('',#328);
#328 = CARTESIAN_POINT('',(-1.121,1.27,2.54));
#329 = LINE('',#330,#331);
#330 = CARTESIAN_POINT('',(-1.121,1.27,2.54));
#331 = VECTOR('',#332,1.);
#332 = DIRECTION('',(0.,0.,-1.));
#333 = ORIENTED_EDGE('',*,*,#334,.F.);
#334 = EDGE_CURVE('',#335,#327,#337,.T.);
#335 = VERTEX_POINT('',#336);
#336 = CARTESIAN_POINT('',(1.121,1.27,2.54));
#337 = LINE('',#338,#339);
#338 = CARTESIAN_POINT('',(-1.12,1.27,2.54));
#339 = VECTOR('',#340,1.);
#340 = DIRECTION('',(-1.,0.,0.));
#341 = ORIENTED_EDGE('',*,*,#342,.F.);
#342 = EDGE_CURVE('',#161,#335,#343,.T.);
#343 = LINE('',#344,#345);
#344 = CARTESIAN_POINT('',(1.121,1.27,0.5));
#345 = VECTOR('',#346,1.);
#346 = DIRECTION('',(0.,0.,1.));
#347 = ORIENTED_EDGE('',*,*,#160,.F.);
#348 = ORIENTED_EDGE('',*,*,#349,.F.);
#349 = EDGE_CURVE('',#350,#153,#352,.T.);
#350 = VERTEX_POINT('',#351);
#351 = CARTESIAN_POINT('',(1.12,1.27,0.));
#352 = LINE('',#353,#354);
#353 = CARTESIAN_POINT('',(1.12,1.27,0.));
#354 = VECTOR('',#355,1.);
#355 = DIRECTION('',(0.,0.,1.));
#356 = ORIENTED_EDGE('',*,*,#357,.T.);
#357 = EDGE_CURVE('',#350,#358,#360,.T.);
#358 = VERTEX_POINT('',#359);
#359 = CARTESIAN_POINT('',(-1.12,1.27,0.));
#360 = LINE('',#361,#362);
#361 = CARTESIAN_POINT('',(1.12,1.27,0.));
#362 = VECTOR('',#363,1.);
#363 = DIRECTION('',(-1.,0.,0.));
#364 = ORIENTED_EDGE('',*,*,#365,.T.);
#365 = EDGE_CURVE('',#358,#129,#366,.T.);
#366 = LINE('',#367,#368);
#367 = CARTESIAN_POINT('',(-1.12,1.27,0.));
#368 = VECTOR('',#369,1.);
#369 = DIRECTION('',(0.,0.,1.));
#370 = PLANE('',#371);
#371 = AXIS2_PLACEMENT_3D('',#372,#373,#374);
#372 = CARTESIAN_POINT('',(-7.E-17,1.27,1.284763779528));
#373 = DIRECTION('',(0.,1.,0.));
#374 = DIRECTION('',(0.,0.,1.));
#375 = ADVANCED_FACE('',(#376),#394,.F.);
#376 = FACE_BOUND('',#377,.F.);
#377 = EDGE_LOOP('',(#378,#379,#387,#393));
#378 = ORIENTED_EDGE('',*,*,#96,.T.);
#379 = ORIENTED_EDGE('',*,*,#380,.T.);
#380 = EDGE_CURVE('',#97,#381,#383,.T.);
#381 = VERTEX_POINT('',#382);
#382 = CARTESIAN_POINT('',(-1.12,-1.12,0.));
#383 = LINE('',#384,#385);
#384 = CARTESIAN_POINT('',(-1.12,-1.12,0.5));
#385 = VECTOR('',#386,1.);
#386 = DIRECTION('',(0.,0.,-1.));
#387 = ORIENTED_EDGE('',*,*,#388,.F.);
#388 = EDGE_CURVE('',#302,#381,#389,.T.);
#389 = LINE('',#390,#391);
#390 = CARTESIAN_POINT('',(1.12,-1.12,0.));
#391 = VECTOR('',#392,1.);
#392 = DIRECTION('',(-1.,-0.,-0.));
#393 = ORIENTED_EDGE('',*,*,#311,.F.);
#394 = PLANE('',#395);
#395 = AXIS2_PLACEMENT_3D('',#396,#397,#398);
#396 = CARTESIAN_POINT('',(1.12,-1.12,0.5));
#397 = DIRECTION('',(0.,-1.,0.));
#398 = DIRECTION('',(0.,0.,-1.));
#399 = ADVANCED_FACE('',(#400),#418,.F.);
#400 = FACE_BOUND('',#401,.F.);
#401 = EDGE_LOOP('',(#402,#410,#416,#417));
#402 = ORIENTED_EDGE('',*,*,#403,.F.);
#403 = EDGE_CURVE('',#404,#350,#406,.T.);
#404 = VERTEX_POINT('',#405);
#405 = CARTESIAN_POINT('',(1.12,1.12,0.));
#406 = LINE('',#407,#408);
#407 = CARTESIAN_POINT('',(1.12,-1.27,0.));
#408 = VECTOR('',#409,1.);
#409 = DIRECTION('',(0.,1.,0.));
#410 = ORIENTED_EDGE('',*,*,#411,.T.);
#411 = EDGE_CURVE('',#404,#145,#412,.T.);
#412 = LINE('',#413,#414);
#413 = CARTESIAN_POINT('',(1.12,1.12,0.));
#414 = VECTOR('',#415,1.);
#415 = DIRECTION('',(0.,0.,1.));
#416 = ORIENTED_EDGE('',*,*,#152,.T.);
#417 = ORIENTED_EDGE('',*,*,#349,.F.);
#418 = PLANE('',#419);
#419 = AXIS2_PLACEMENT_3D('',#420,#421,#422);
#420 = CARTESIAN_POINT('',(1.12,-1.27,0.));
#421 = DIRECTION('',(-1.,0.,0.));
#422 = DIRECTION('',(0.,1.,0.));
#423 = ADVANCED_FACE('',(#424),#435,.F.);
#424 = FACE_BOUND('',#425,.F.);
#425 = EDGE_LOOP('',(#426,#432,#433,#434));
#426 = ORIENTED_EDGE('',*,*,#427,.F.);
#427 = EDGE_CURVE('',#381,#241,#428,.T.);
#428 = LINE('',#429,#430);
#429 = CARTESIAN_POINT('',(-1.12,1.27,0.));
#430 = VECTOR('',#431,1.);
#431 = DIRECTION('',(0.,-1.,0.));
#432 = ORIENTED_EDGE('',*,*,#380,.F.);
#433 = ORIENTED_EDGE('',*,*,#104,.T.);
#434 = ORIENTED_EDGE('',*,*,#240,.F.);
#435 = PLANE('',#436);
#436 = AXIS2_PLACEMENT_3D('',#437,#438,#439);
#437 = CARTESIAN_POINT('',(-1.12,1.27,0.));
#438 = DIRECTION('',(1.,0.,0.));
#439 = DIRECTION('',(0.,-1.,0.));
#440 = ADVANCED_FACE('',(#441),#459,.F.);
#441 = FACE_BOUND('',#442,.F.);
#442 = EDGE_LOOP('',(#443,#451,#457,#458));
#443 = ORIENTED_EDGE('',*,*,#444,.T.);
#444 = EDGE_CURVE('',#404,#445,#447,.T.);
#445 = VERTEX_POINT('',#446);
#446 = CARTESIAN_POINT('',(-1.12,1.12,0.));
#447 = LINE('',#448,#449);
#448 = CARTESIAN_POINT('',(1.12,1.12,0.));
#449 = VECTOR('',#450,1.);
#450 = DIRECTION('',(-1.,-0.,-0.));
#451 = ORIENTED_EDGE('',*,*,#452,.T.);
#452 = EDGE_CURVE('',#445,#137,#453,.T.);
#453 = LINE('',#454,#455);
#454 = CARTESIAN_POINT('',(-1.12,1.12,0.));
#455 = VECTOR('',#456,1.);
#456 = DIRECTION('',(0.,0.,1.));
#457 = ORIENTED_EDGE('',*,*,#144,.F.);
#458 = ORIENTED_EDGE('',*,*,#411,.F.);
#459 = PLANE('',#460);
#460 = AXIS2_PLACEMENT_3D('',#461,#462,#463);
#461 = CARTESIAN_POINT('',(1.12,1.12,0.));
#462 = DIRECTION('',(0.,1.,0.));
#463 = DIRECTION('',(0.,0.,1.));
#464 = ADVANCED_FACE('',(#465),#476,.F.);
#465 = FACE_BOUND('',#466,.F.);
#466 = EDGE_LOOP('',(#467,#473,#474,#475));
#467 = ORIENTED_EDGE('',*,*,#468,.F.);
#468 = EDGE_CURVE('',#358,#445,#469,.T.);
#469 = LINE('',#470,#471);
#470 = CARTESIAN_POINT('',(-1.12,1.27,0.));
#471 = VECTOR('',#472,1.);
#472 = DIRECTION('',(0.,-1.,0.));
#473 = ORIENTED_EDGE('',*,*,#365,.T.);
#474 = ORIENTED_EDGE('',*,*,#136,.T.);
#475 = ORIENTED_EDGE('',*,*,#452,.F.);
#476 = PLANE('',#477);
#477 = AXIS2_PLACEMENT_3D('',#478,#479,#480);
#478 = CARTESIAN_POINT('',(-1.12,1.27,0.));
#479 = DIRECTION('',(1.,0.,0.));
#480 = DIRECTION('',(0.,-1.,0.));
#481 = ADVANCED_FACE('',(#482),#507,.F.);
#482 = FACE_BOUND('',#483,.T.);
#483 = EDGE_LOOP('',(#484,#492,#493,#501));
#484 = ORIENTED_EDGE('',*,*,#485,.F.);
#485 = EDGE_CURVE('',#121,#486,#488,.T.);
#486 = VERTEX_POINT('',#487);
#487 = CARTESIAN_POINT('',(-1.27,1.121,0.649));
#488 = LINE('',#489,#490);
#489 = CARTESIAN_POINT('',(-1.510666666667,0.880333333333,0.889666666667
    ));
#490 = VECTOR('',#491,1.);
#491 = DIRECTION('',(-0.57735026919,-0.57735026919,0.57735026919));
#492 = ORIENTED_EDGE('',*,*,#120,.T.);
#493 = ORIENTED_EDGE('',*,*,#494,.T.);
#494 = EDGE_CURVE('',#113,#495,#497,.T.);
#495 = VERTEX_POINT('',#496);
#496 = CARTESIAN_POINT('',(-1.27,-1.121,0.649));
#497 = LINE('',#498,#499);
#498 = CARTESIAN_POINT('',(-1.594,-0.797,0.973));
#499 = VECTOR('',#500,1.);
#500 = DIRECTION('',(-0.57735026919,0.57735026919,0.57735026919));
#501 = ORIENTED_EDGE('',*,*,#502,.F.);
#502 = EDGE_CURVE('',#486,#495,#503,.T.);
#503 = LINE('',#504,#505);
#504 = CARTESIAN_POINT('',(-1.27,1.27,0.649));
#505 = VECTOR('',#506,1.);
#506 = DIRECTION('',(0.,-1.,0.));
#507 = PLANE('',#508);
#508 = AXIS2_PLACEMENT_3D('',#509,#510,#511);
#509 = CARTESIAN_POINT('',(-1.1955,1.27,0.5745));
#510 = DIRECTION('',(0.707106781187,0.,0.707106781187));
#511 = DIRECTION('',(-0.,1.,-0.));
#512 = ADVANCED_FACE('',(#513),#538,.F.);
#513 = FACE_BOUND('',#514,.F.);
#514 = EDGE_LOOP('',(#515,#525,#531,#532));
#515 = ORIENTED_EDGE('',*,*,#516,.F.);
#516 = EDGE_CURVE('',#517,#519,#521,.T.);
#517 = VERTEX_POINT('',#518);
#518 = CARTESIAN_POINT('',(-0.32,-0.32,2.54));
#519 = VERTEX_POINT('',#520);
#520 = CARTESIAN_POINT('',(0.32,-0.32,2.54));
#521 = LINE('',#522,#523);
#522 = CARTESIAN_POINT('',(-0.32,-0.32,2.54));
#523 = VECTOR('',#524,1.);
#524 = DIRECTION('',(1.,0.,0.));
#525 = ORIENTED_EDGE('',*,*,#526,.T.);
#526 = EDGE_CURVE('',#517,#179,#527,.T.);
#527 = LINE('',#528,#529);
#528 = CARTESIAN_POINT('',(-0.32,-0.32,2.54));
#529 = VECTOR('',#530,1.);
#530 = DIRECTION('',(-0.,-0.,-1.));
#531 = ORIENTED_EDGE('',*,*,#176,.F.);
#532 = ORIENTED_EDGE('',*,*,#533,.F.);
#533 = EDGE_CURVE('',#519,#177,#534,.T.);
#534 = LINE('',#535,#536);
#535 = CARTESIAN_POINT('',(0.32,-0.32,2.54));
#536 = VECTOR('',#537,1.);
#537 = DIRECTION('',(-0.,-0.,-1.));
#538 = PLANE('',#539);
#539 = AXIS2_PLACEMENT_3D('',#540,#541,#542);
#540 = CARTESIAN_POINT('',(-0.32,-0.32,2.54));
#541 = DIRECTION('',(0.,-1.,0.));
#542 = DIRECTION('',(1.,0.,0.));
#543 = ADVANCED_FACE('',(#544),#562,.F.);
#544 = FACE_BOUND('',#545,.F.);
#545 = EDGE_LOOP('',(#546,#554,#560,#561));
#546 = ORIENTED_EDGE('',*,*,#547,.F.);
#547 = EDGE_CURVE('',#548,#517,#550,.T.);
#548 = VERTEX_POINT('',#549);
#549 = CARTESIAN_POINT('',(-0.32,0.32,2.54));
#550 = LINE('',#551,#552);
#551 = CARTESIAN_POINT('',(-0.32,0.32,2.54));
#552 = VECTOR('',#553,1.);
#553 = DIRECTION('',(0.,-1.,0.));
#554 = ORIENTED_EDGE('',*,*,#555,.T.);
#555 = EDGE_CURVE('',#548,#195,#556,.T.);
#556 = LINE('',#557,#558);
#557 = CARTESIAN_POINT('',(-0.32,0.32,2.54));
#558 = VECTOR('',#559,1.);
#559 = DIRECTION('',(-0.,-0.,-1.));
#560 = ORIENTED_EDGE('',*,*,#202,.F.);
#561 = ORIENTED_EDGE('',*,*,#526,.F.);
#562 = PLANE('',#563);
#563 = AXIS2_PLACEMENT_3D('',#564,#565,#566);
#564 = CARTESIAN_POINT('',(-0.32,0.32,2.54));
#565 = DIRECTION('',(-1.,0.,0.));
#566 = DIRECTION('',(0.,-1.,0.));
#567 = ADVANCED_FACE('',(#568),#586,.F.);
#568 = FACE_BOUND('',#569,.F.);
#569 = EDGE_LOOP('',(#570,#578,#584,#585));
#570 = ORIENTED_EDGE('',*,*,#571,.F.);
#571 = EDGE_CURVE('',#572,#548,#574,.T.);
#572 = VERTEX_POINT('',#573);
#573 = CARTESIAN_POINT('',(0.32,0.32,2.54));
#574 = LINE('',#575,#576);
#575 = CARTESIAN_POINT('',(0.32,0.32,2.54));
#576 = VECTOR('',#577,1.);
#577 = DIRECTION('',(-1.,0.,0.));
#578 = ORIENTED_EDGE('',*,*,#579,.T.);
#579 = EDGE_CURVE('',#572,#187,#580,.T.);
#580 = LINE('',#581,#582);
#581 = CARTESIAN_POINT('',(0.32,0.32,2.54));
#582 = VECTOR('',#583,1.);
#583 = DIRECTION('',(-0.,-0.,-1.));
#584 = ORIENTED_EDGE('',*,*,#194,.F.);
#585 = ORIENTED_EDGE('',*,*,#555,.F.);
#586 = PLANE('',#587);
#587 = AXIS2_PLACEMENT_3D('',#588,#589,#590);
#588 = CARTESIAN_POINT('',(0.32,0.32,2.54));
#589 = DIRECTION('',(0.,1.,0.));
#590 = DIRECTION('',(-1.,0.,0.));
#591 = ADVANCED_FACE('',(#592),#603,.F.);
#592 = FACE_BOUND('',#593,.F.);
#593 = EDGE_LOOP('',(#594,#600,#601,#602));
#594 = ORIENTED_EDGE('',*,*,#595,.F.);
#595 = EDGE_CURVE('',#519,#572,#596,.T.);
#596 = LINE('',#597,#598);
#597 = CARTESIAN_POINT('',(0.32,-0.32,2.54));
#598 = VECTOR('',#599,1.);
#599 = DIRECTION('',(0.,1.,0.));
#600 = ORIENTED_EDGE('',*,*,#533,.T.);
#601 = ORIENTED_EDGE('',*,*,#186,.F.);
#602 = ORIENTED_EDGE('',*,*,#579,.F.);
#603 = PLANE('',#604);
#604 = AXIS2_PLACEMENT_3D('',#605,#606,#607);
#605 = CARTESIAN_POINT('',(0.32,-0.32,2.54));
#606 = DIRECTION('',(1.,0.,0.));
#607 = DIRECTION('',(0.,1.,0.));
#608 = ADVANCED_FACE('',(#609),#627,.T.);
#609 = FACE_BOUND('',#610,.T.);
#610 = EDGE_LOOP('',(#611,#619,#620,#621));
#611 = ORIENTED_EDGE('',*,*,#612,.T.);
#612 = EDGE_CURVE('',#613,#218,#615,.T.);
#613 = VERTEX_POINT('',#614);
#614 = CARTESIAN_POINT('',(1.27,-1.121,2.391));
#615 = LINE('',#616,#617);
#616 = CARTESIAN_POINT('',(1.594,-0.797,2.067));
#617 = VECTOR('',#618,1.);
#618 = DIRECTION('',(-0.57735026919,-0.57735026919,0.57735026919));
#619 = ORIENTED_EDGE('',*,*,#217,.T.);
#620 = ORIENTED_EDGE('',*,*,#270,.T.);
#621 = ORIENTED_EDGE('',*,*,#622,.F.);
#622 = EDGE_CURVE('',#613,#271,#623,.T.);
#623 = LINE('',#624,#625);
#624 = CARTESIAN_POINT('',(1.27,-1.121,2.54));
#625 = VECTOR('',#626,1.);
#626 = DIRECTION('',(0.,0.,-1.));
#627 = PLANE('',#628);
#628 = AXIS2_PLACEMENT_3D('',#629,#630,#631);
#629 = CARTESIAN_POINT('',(1.1955,-1.1955,2.54));
#630 = DIRECTION('',(0.707106781187,-0.707106781187,0.));
#631 = DIRECTION('',(0.,0.,-1.));
#632 = ADVANCED_FACE('',(#633,#649),#655,.T.);
#633 = FACE_BOUND('',#634,.T.);
#634 = EDGE_LOOP('',(#635,#636,#642,#643));
#635 = ORIENTED_EDGE('',*,*,#225,.T.);
#636 = ORIENTED_EDGE('',*,*,#637,.F.);
#637 = EDGE_CURVE('',#335,#218,#638,.T.);
#638 = LINE('',#639,#640);
#639 = CARTESIAN_POINT('',(1.121,1.27,2.54));
#640 = VECTOR('',#641,1.);
#641 = DIRECTION('',(0.,-1.,0.));
#642 = ORIENTED_EDGE('',*,*,#334,.T.);
#643 = ORIENTED_EDGE('',*,*,#644,.F.);
#644 = EDGE_CURVE('',#226,#327,#645,.T.);
#645 = LINE('',#646,#647);
#646 = CARTESIAN_POINT('',(-1.121,-1.27,2.54));
#647 = VECTOR('',#648,1.);
#648 = DIRECTION('',(0.,1.,0.));
#649 = FACE_BOUND('',#650,.T.);
#650 = EDGE_LOOP('',(#651,#652,#653,#654));
#651 = ORIENTED_EDGE('',*,*,#516,.F.);
#652 = ORIENTED_EDGE('',*,*,#547,.F.);
#653 = ORIENTED_EDGE('',*,*,#571,.F.);
#654 = ORIENTED_EDGE('',*,*,#595,.F.);
#655 = PLANE('',#656);
#656 = AXIS2_PLACEMENT_3D('',#657,#658,#659);
#657 = CARTESIAN_POINT('',(2.E-17,0.,2.54));
#658 = DIRECTION('',(0.,0.,1.));
#659 = DIRECTION('',(1.,0.,0.));
#660 = ADVANCED_FACE('',(#661),#667,.F.);
#661 = FACE_BOUND('',#662,.F.);
#662 = EDGE_LOOP('',(#663,#664,#665,#666));
#663 = ORIENTED_EDGE('',*,*,#427,.T.);
#664 = ORIENTED_EDGE('',*,*,#248,.T.);
#665 = ORIENTED_EDGE('',*,*,#301,.T.);
#666 = ORIENTED_EDGE('',*,*,#388,.T.);
#667 = PLANE('',#668);
#668 = AXIS2_PLACEMENT_3D('',#669,#670,#671);
#669 = CARTESIAN_POINT('',(0.,0.,0.));
#670 = DIRECTION('',(0.,0.,1.));
#671 = DIRECTION('',(1.,0.,0.));
#672 = ADVANCED_FACE('',(#673),#691,.F.);
#673 = FACE_BOUND('',#674,.T.);
#674 = EDGE_LOOP('',(#675,#676,#677,#685));
#675 = ORIENTED_EDGE('',*,*,#494,.F.);
#676 = ORIENTED_EDGE('',*,*,#233,.T.);
#677 = ORIENTED_EDGE('',*,*,#678,.F.);
#678 = EDGE_CURVE('',#679,#226,#681,.T.);
#679 = VERTEX_POINT('',#680);
#680 = CARTESIAN_POINT('',(-1.27,-1.121,2.391));
#681 = LINE('',#682,#683);
#682 = CARTESIAN_POINT('',(-1.510666666667,-0.880333333333,
    2.150333333333));
#683 = VECTOR('',#684,1.);
#684 = DIRECTION('',(0.57735026919,-0.57735026919,0.57735026919));
#685 = ORIENTED_EDGE('',*,*,#686,.F.);
#686 = EDGE_CURVE('',#495,#679,#687,.T.);
#687 = LINE('',#688,#689);
#688 = CARTESIAN_POINT('',(-1.27,-1.121,0.5));
#689 = VECTOR('',#690,1.);
#690 = DIRECTION('',(0.,0.,1.));
#691 = PLANE('',#692);
#692 = AXIS2_PLACEMENT_3D('',#693,#694,#695);
#693 = CARTESIAN_POINT('',(-1.1955,-1.1955,0.5));
#694 = DIRECTION('',(0.707106781187,0.707106781187,0.));
#695 = DIRECTION('',(-0.,0.,-1.));
#696 = ADVANCED_FACE('',(#697),#715,.T.);
#697 = FACE_BOUND('',#698,.T.);
#698 = EDGE_LOOP('',(#699,#707,#708,#709));
#699 = ORIENTED_EDGE('',*,*,#700,.T.);
#700 = EDGE_CURVE('',#701,#613,#703,.T.);
#701 = VERTEX_POINT('',#702);
#702 = CARTESIAN_POINT('',(1.27,1.121,2.391));
#703 = LINE('',#704,#705);
#704 = CARTESIAN_POINT('',(1.27,1.27,2.391));
#705 = VECTOR('',#706,1.);
#706 = DIRECTION('',(0.,-1.,0.));
#707 = ORIENTED_EDGE('',*,*,#622,.T.);
#708 = ORIENTED_EDGE('',*,*,#287,.T.);
#709 = ORIENTED_EDGE('',*,*,#710,.T.);
#710 = EDGE_CURVE('',#280,#701,#711,.T.);
#711 = LINE('',#712,#713);
#712 = CARTESIAN_POINT('',(1.27,1.121,0.5));
#713 = VECTOR('',#714,1.);
#714 = DIRECTION('',(0.,0.,1.));
#715 = PLANE('',#716);
#716 = AXIS2_PLACEMENT_3D('',#717,#718,#719);
#717 = CARTESIAN_POINT('',(1.27,-5.E-17,1.52));
#718 = DIRECTION('',(1.,0.,0.));
#719 = DIRECTION('',(0.,0.,1.));
#720 = ADVANCED_FACE('',(#721),#732,.T.);
#721 = FACE_BOUND('',#722,.F.);
#722 = EDGE_LOOP('',(#723,#724,#725,#731));
#723 = ORIENTED_EDGE('',*,*,#279,.F.);
#724 = ORIENTED_EDGE('',*,*,#710,.T.);
#725 = ORIENTED_EDGE('',*,*,#726,.T.);
#726 = EDGE_CURVE('',#701,#335,#727,.T.);
#727 = LINE('',#728,#729);
#728 = CARTESIAN_POINT('',(1.510666666667,0.880333333333,2.150333333333)
  );
#729 = VECTOR('',#730,1.);
#730 = DIRECTION('',(-0.57735026919,0.57735026919,0.57735026919));
#731 = ORIENTED_EDGE('',*,*,#342,.F.);
#732 = PLANE('',#733);
#733 = AXIS2_PLACEMENT_3D('',#734,#735,#736);
#734 = CARTESIAN_POINT('',(1.1955,1.1955,0.5));
#735 = DIRECTION('',(0.707106781187,0.707106781187,0.));
#736 = DIRECTION('',(-0.,0.,-1.));
#737 = ADVANCED_FACE('',(#738),#756,.F.);
#738 = FACE_BOUND('',#739,.T.);
#739 = EDGE_LOOP('',(#740,#748,#749,#750));
#740 = ORIENTED_EDGE('',*,*,#741,.T.);
#741 = EDGE_CURVE('',#742,#327,#744,.T.);
#742 = VERTEX_POINT('',#743);
#743 = CARTESIAN_POINT('',(-1.27,1.121,2.391));
#744 = LINE('',#745,#746);
#745 = CARTESIAN_POINT('',(-1.594,0.797,2.067));
#746 = VECTOR('',#747,1.);
#747 = DIRECTION('',(0.57735026919,0.57735026919,0.57735026919));
#748 = ORIENTED_EDGE('',*,*,#326,.T.);
#749 = ORIENTED_EDGE('',*,*,#485,.T.);
#750 = ORIENTED_EDGE('',*,*,#751,.F.);
#751 = EDGE_CURVE('',#742,#486,#752,.T.);
#752 = LINE('',#753,#754);
#753 = CARTESIAN_POINT('',(-1.27,1.121,2.54));
#754 = VECTOR('',#755,1.);
#755 = DIRECTION('',(0.,0.,-1.));
#756 = PLANE('',#757);
#757 = AXIS2_PLACEMENT_3D('',#758,#759,#760);
#758 = CARTESIAN_POINT('',(-1.1955,1.1955,2.54));
#759 = DIRECTION('',(0.707106781187,-0.707106781187,0.));
#760 = DIRECTION('',(-0.,-0.,1.));
#761 = ADVANCED_FACE('',(#762),#768,.F.);
#762 = FACE_BOUND('',#763,.F.);
#763 = EDGE_LOOP('',(#764,#765,#766,#767));
#764 = ORIENTED_EDGE('',*,*,#468,.T.);
#765 = ORIENTED_EDGE('',*,*,#444,.F.);
#766 = ORIENTED_EDGE('',*,*,#403,.T.);
#767 = ORIENTED_EDGE('',*,*,#357,.T.);
#768 = PLANE('',#769);
#769 = AXIS2_PLACEMENT_3D('',#770,#771,#772);
#770 = CARTESIAN_POINT('',(0.,0.,0.));
#771 = DIRECTION('',(0.,0.,1.));
#772 = DIRECTION('',(1.,0.,0.));
#773 = ADVANCED_FACE('',(#774),#785,.F.);
#774 = FACE_BOUND('',#775,.F.);
#775 = EDGE_LOOP('',(#776,#782,#783,#784));
#776 = ORIENTED_EDGE('',*,*,#777,.F.);
#777 = EDGE_CURVE('',#679,#742,#778,.T.);
#778 = LINE('',#779,#780);
#779 = CARTESIAN_POINT('',(-1.27,-1.27,2.391));
#780 = VECTOR('',#781,1.);
#781 = DIRECTION('',(0.,1.,0.));
#782 = ORIENTED_EDGE('',*,*,#686,.F.);
#783 = ORIENTED_EDGE('',*,*,#502,.F.);
#784 = ORIENTED_EDGE('',*,*,#751,.F.);
#785 = PLANE('',#786);
#786 = AXIS2_PLACEMENT_3D('',#787,#788,#789);
#787 = CARTESIAN_POINT('',(-1.27,5.E-17,1.52));
#788 = DIRECTION('',(1.,0.,0.));
#789 = DIRECTION('',(0.,0.,1.));
#790 = ADVANCED_FACE('',(#791),#797,.T.);
#791 = FACE_BOUND('',#792,.F.);
#792 = EDGE_LOOP('',(#793,#794,#795,#796));
#793 = ORIENTED_EDGE('',*,*,#726,.F.);
#794 = ORIENTED_EDGE('',*,*,#700,.T.);
#795 = ORIENTED_EDGE('',*,*,#612,.T.);
#796 = ORIENTED_EDGE('',*,*,#637,.F.);
#797 = PLANE('',#798);
#798 = AXIS2_PLACEMENT_3D('',#799,#800,#801);
#799 = CARTESIAN_POINT('',(1.1955,1.27,2.4655));
#800 = DIRECTION('',(0.707106781187,0.,0.707106781187));
#801 = DIRECTION('',(-0.,1.,-0.));
#802 = ADVANCED_FACE('',(#803),#809,.F.);
#803 = FACE_BOUND('',#804,.F.);
#804 = EDGE_LOOP('',(#805,#806,#807,#808));
#805 = ORIENTED_EDGE('',*,*,#678,.F.);
#806 = ORIENTED_EDGE('',*,*,#777,.T.);
#807 = ORIENTED_EDGE('',*,*,#741,.T.);
#808 = ORIENTED_EDGE('',*,*,#644,.F.);
#809 = PLANE('',#810);
#810 = AXIS2_PLACEMENT_3D('',#811,#812,#813);
#811 = CARTESIAN_POINT('',(-1.1955,-1.27,2.4655));
#812 = DIRECTION('',(0.707106781187,0.,-0.707106781187));
#813 = DIRECTION('',(0.,1.,0.));
#814 = ( GEOMETRIC_REPRESENTATION_CONTEXT(3) 
GLOBAL_UNCERTAINTY_ASSIGNED_CONTEXT((#818)) GLOBAL_UNIT_ASSIGNED_CONTEXT
((#815,#816,#817)) REPRESENTATION_CONTEXT('Context #1',
  '3D Context with UNIT and UNCERTAINTY') );
#815 = ( LENGTH_UNIT() NAMED_UNIT(*) SI_UNIT(.MILLI.,.METRE.) );
#816 = ( NAMED_UNIT(*) PLANE_ANGLE_UNIT() SI_UNIT($,.RADIAN.) );
#817 = ( NAMED_UNIT(*) SI_UNIT($,.STERADIAN.) SOLID_ANGLE_UNIT() );
#818 = UNCERTAINTY_MEASURE_WITH_UNIT(LENGTH_MEASURE(2.E-07),#815,
  'distance_accuracy_value','confusion accuracy');
#819 = CONTEXT_DEPENDENT_SHAPE_REPRESENTATION(#820,#822);
#820 = ( REPRESENTATION_RELATIONSHIP('','',#71,#36) 
REPRESENTATION_RELATIONSHIP_WITH_TRANSFORMATION(#821) 
SHAPE_REPRESENTATION_RELATIONSHIP() );
#821 = ITEM_DEFINED_TRANSFORMATION('','',#11,#37);
#822 = PRODUCT_DEFINITION_SHAPE('Placement','Placement of an item',#823
  );
#823 = NEXT_ASSEMBLY_USAGE_OCCURRENCE('11','0','',#31,#66,$);
#824 = PRODUCT_RELATED_PRODUCT_CATEGORY('part',$,(#68));
#825 = CONTEXT_DEPENDENT_SHAPE_REPRESENTATION(#826,#828);
#826 = ( REPRESENTATION_RELATIONSHIP('','',#71,#36) 
REPRESENTATION_RELATIONSHIP_WITH_TRANSFORMATION(#827) 
SHAPE_REPRESENTATION_RELATIONSHIP() );
#827 = ITEM_DEFINED_TRANSFORMATION('','',#11,#41);
#828 = PRODUCT_DEFINITION_SHAPE('Placement','Placement of an item',#829
  );
#829 = NEXT_ASSEMBLY_USAGE_OCCURRENCE('12','1','',#31,#66,$);
#830 = CONTEXT_DEPENDENT_SHAPE_REPRESENTATION(#831,#833);
#831 = ( REPRESENTATION_RELATIONSHIP('','',#71,#36) 
REPRESENTATION_RELATIONSHIP_WITH_TRANSFORMATION(#832) 
SHAPE_REPRESENTATION_RELATIONSHIP() );
#832 = ITEM_DEFINED_TRANSFORMATION('','',#11,#45);
#833 = PRODUCT_DEFINITION_SHAPE('Placement','Placement of an item',#834
  );
#834 = NEXT_ASSEMBLY_USAGE_OCCURRENCE('13','2','',#31,#66,$);
#835 = CONTEXT_DEPENDENT_SHAPE_REPRESENTATION(#836,#838);
#836 = ( REPRESENTATION_RELATIONSHIP('','',#71,#36) 
REPRESENTATION_RELATIONSHIP_WITH_TRANSFORMATION(#837) 
SHAPE_REPRESENTATION_RELATIONSHIP() );
#837 = ITEM_DEFINED_TRANSFORMATION('','',#11,#49);
#838 = PRODUCT_DEFINITION_SHAPE('Placement','Placement of an item',#839
  );
#839 = NEXT_ASSEMBLY_USAGE_OCCURRENCE('14','3','',#31,#66,$);
#840 = SHAPE_DEFINITION_REPRESENTATION(#841,#847);
#841 = PRODUCT_DEFINITION_SHAPE('','',#842);
#842 = PRODUCT_DEFINITION('design','',#843,#846);
#843 = PRODUCT_DEFINITION_FORMATION('','',#844);
#844 = PRODUCT('Array001','Array001','',(#845));
#845 = PRODUCT_CONTEXT('',#2,'mechanical');
#846 = PRODUCT_DEFINITION_CONTEXT('part definition',#2,'design');
#847 = SHAPE_REPRESENTATION('',(#11,#848,#852,#856,#860),#864);
#848 = AXIS2_PLACEMENT_3D('',#849,#850,#851);
#849 = CARTESIAN_POINT('',(0.,0.,0.));
#850 = DIRECTION('',(0.,0.,1.));
#851 = DIRECTION('',(1.,0.,0.));
#852 = AXIS2_PLACEMENT_3D('',#853,#854,#855);
#853 = CARTESIAN_POINT('',(2.54,0.,0.));
#854 = DIRECTION('',(0.,0.,1.));
#855 = DIRECTION('',(1.,0.,0.));
#856 = AXIS2_PLACEMENT_3D('',#857,#858,#859);
#857 = CARTESIAN_POINT('',(5.08,0.,0.));
#858 = DIRECTION('',(0.,0.,1.));
#859 = DIRECTION('',(1.,0.,0.));
#860 = AXIS2_PLACEMENT_3D('',#861,#862,#863);
#861 = CARTESIAN_POINT('',(7.62,0.,0.));
#862 = DIRECTION('',(0.,0.,1.));
#863 = DIRECTION('',(1.,0.,0.));
#864 = ( GEOMETRIC_REPRESENTATION_CONTEXT(3) 
GLOBAL_UNCERTAINTY_ASSIGNED_CONTEXT((#868)) GLOBAL_UNIT_ASSIGNED_CONTEXT
((#865,#866,#867)) REPRESENTATION_CONTEXT('Context #1',
  '3D Context with UNIT and UNCERTAINTY') );
#865 = ( LENGTH_UNIT() NAMED_UNIT(*) SI_UNIT(.MILLI.,.METRE.) );
#866 = ( NAMED_UNIT(*) PLANE_ANGLE_UNIT() SI_UNIT($,.RADIAN.) );
#867 = ( NAMED_UNIT(*) SI_UNIT($,.STERADIAN.) SOLID_ANGLE_UNIT() );
#868 = UNCERTAINTY_MEASURE_WITH_UNIT(LENGTH_MEASURE(1.E-07),#865,
  'distance_accuracy_value','confusion accuracy');
#869 = CONTEXT_DEPENDENT_SHAPE_REPRESENTATION(#870,#872);
#870 = ( REPRESENTATION_RELATIONSHIP('','',#847,#10) 
REPRESENTATION_RELATIONSHIP_WITH_TRANSFORMATION(#871) 
SHAPE_REPRESENTATION_RELATIONSHIP() );
#871 = ITEM_DEFINED_TRANSFORMATION('','',#11,#19);
#872 = PRODUCT_DEFINITION_SHAPE('Placement','Placement of an item',#873
  );
#873 = NEXT_ASSEMBLY_USAGE_OCCURRENCE('20','Array001','',#5,#842,$);
#874 = PRODUCT_RELATED_PRODUCT_CATEGORY('part',$,(#844));
#875 = SHAPE_DEFINITION_REPRESENTATION(#876,#882);
#876 = PRODUCT_DEFINITION_SHAPE('','',#877);
#877 = PRODUCT_DEFINITION('design','',#878,#881);
#878 = PRODUCT_DEFINITION_FORMATION('','',#879);
#879 = PRODUCT('Pin','Pin','',(#880));
#880 = PRODUCT_CONTEXT('',#2,'mechanical');
#881 = PRODUCT_DEFINITION_CONTEXT('part definition',#2,'design');
#882 = ADVANCED_BREP_SHAPE_REPRESENTATION('',(#11,#883),#1225);
#883 = MANIFOLD_SOLID_BREP('',#884);
#884 = CLOSED_SHELL('',(#885,#925,#956,#987,#1018,#1049,#1073,#1097,
    #1114,#1136,#1160,#1184,#1201,#1213));
#885 = ADVANCED_FACE('',(#886),#920,.T.);
#886 = FACE_BOUND('',#887,.T.);
#887 = EDGE_LOOP('',(#888,#898,#906,#914));
#888 = ORIENTED_EDGE('',*,*,#889,.F.);
#889 = EDGE_CURVE('',#890,#892,#894,.T.);
#890 = VERTEX_POINT('',#891);
#891 = CARTESIAN_POINT('',(-0.32,-0.32,8.04));
#892 = VERTEX_POINT('',#893);
#893 = CARTESIAN_POINT('',(0.32,-0.32,8.04));
#894 = LINE('',#895,#896);
#895 = CARTESIAN_POINT('',(-0.12,-0.32,8.04));
#896 = VECTOR('',#897,1.);
#897 = DIRECTION('',(1.,0.,0.));
#898 = ORIENTED_EDGE('',*,*,#899,.F.);
#899 = EDGE_CURVE('',#900,#890,#902,.T.);
#900 = VERTEX_POINT('',#901);
#901 = CARTESIAN_POINT('',(-0.32,-0.32,-2.5));
#902 = LINE('',#903,#904);
#903 = CARTESIAN_POINT('',(-0.32,-0.32,0.));
#904 = VECTOR('',#905,1.);
#905 = DIRECTION('',(0.,0.,1.));
#906 = ORIENTED_EDGE('',*,*,#907,.F.);
#907 = EDGE_CURVE('',#908,#900,#910,.T.);
#908 = VERTEX_POINT('',#909);
#909 = CARTESIAN_POINT('',(0.32,-0.32,-2.5));
#910 = LINE('',#911,#912);
#911 = CARTESIAN_POINT('',(0.32,-0.32,-2.5));
#912 = VECTOR('',#913,1.);
#913 = DIRECTION('',(-1.,0.,0.));
#914 = ORIENTED_EDGE('',*,*,#915,.F.);
#915 = EDGE_CURVE('',#892,#908,#916,.T.);
#916 = LINE('',#917,#918);
#917 = CARTESIAN_POINT('',(0.32,-0.32,0.));
#918 = VECTOR('',#919,1.);
#919 = DIRECTION('',(0.,0.,-1.));
#920 = PLANE('',#921);
#921 = AXIS2_PLACEMENT_3D('',#922,#923,#924);
#922 = CARTESIAN_POINT('',(0.,-0.32,2.77));
#923 = DIRECTION('',(-0.,-1.,-0.));
#924 = DIRECTION('',(0.,0.,-1.));
#925 = ADVANCED_FACE('',(#926),#951,.T.);
#926 = FACE_BOUND('',#927,.T.);
#927 = EDGE_LOOP('',(#928,#936,#937,#945));
#928 = ORIENTED_EDGE('',*,*,#929,.F.);
#929 = EDGE_CURVE('',#890,#930,#932,.T.);
#930 = VERTEX_POINT('',#931);
#931 = CARTESIAN_POINT('',(-0.12,-0.12,8.54));
#932 = LINE('',#933,#934);
#933 = CARTESIAN_POINT('',(-0.181212121212,-0.181212121212,8.38696969697
    ));
#934 = VECTOR('',#935,1.);
#935 = DIRECTION('',(0.348155311911,0.348155311911,0.870388279778));
#936 = ORIENTED_EDGE('',*,*,#889,.T.);
#937 = ORIENTED_EDGE('',*,*,#938,.T.);
#938 = EDGE_CURVE('',#892,#939,#941,.T.);
#939 = VERTEX_POINT('',#940);
#940 = CARTESIAN_POINT('',(0.12,-0.12,8.54));
#941 = LINE('',#942,#943);
#942 = CARTESIAN_POINT('',(0.205454545455,-0.205454545455,8.326363636364
    ));
#943 = VECTOR('',#944,1.);
#944 = DIRECTION('',(-0.348155311911,0.348155311911,0.870388279778));
#945 = ORIENTED_EDGE('',*,*,#946,.F.);
#946 = EDGE_CURVE('',#930,#939,#947,.T.);
#947 = LINE('',#948,#949);
#948 = CARTESIAN_POINT('',(-0.12,-0.12,8.54));
#949 = VECTOR('',#950,1.);
#950 = DIRECTION('',(1.,0.,0.));
#951 = PLANE('',#952);
#952 = AXIS2_PLACEMENT_3D('',#953,#954,#955);
#953 = CARTESIAN_POINT('',(-0.12,-0.22,8.29));
#954 = DIRECTION('',(-0.,-0.928476690885,0.371390676354));
#955 = DIRECTION('',(1.,0.,0.));
#956 = ADVANCED_FACE('',(#957),#982,.T.);
#957 = FACE_BOUND('',#958,.T.);
#958 = EDGE_LOOP('',(#959,#969,#975,#976));
#959 = ORIENTED_EDGE('',*,*,#960,.F.);
#960 = EDGE_CURVE('',#961,#963,#965,.T.);
#961 = VERTEX_POINT('',#962);
#962 = CARTESIAN_POINT('',(-0.32,0.32,-2.5));
#963 = VERTEX_POINT('',#964);
#964 = CARTESIAN_POINT('',(-0.32,0.32,8.04));
#965 = LINE('',#966,#967);
#966 = CARTESIAN_POINT('',(-0.32,0.32,0.));
#967 = VECTOR('',#968,1.);
#968 = DIRECTION('',(0.,0.,1.));
#969 = ORIENTED_EDGE('',*,*,#970,.F.);
#970 = EDGE_CURVE('',#900,#961,#971,.T.);
#971 = LINE('',#972,#973);
#972 = CARTESIAN_POINT('',(-0.32,-0.32,-2.5));
#973 = VECTOR('',#974,1.);
#974 = DIRECTION('',(0.,1.,0.));
#975 = ORIENTED_EDGE('',*,*,#899,.T.);
#976 = ORIENTED_EDGE('',*,*,#977,.F.);
#977 = EDGE_CURVE('',#963,#890,#978,.T.);
#978 = LINE('',#979,#980);
#979 = CARTESIAN_POINT('',(-0.32,0.32,8.04));
#980 = VECTOR('',#981,1.);
#981 = DIRECTION('',(0.,-1.,0.));
#982 = PLANE('',#983);
#983 = AXIS2_PLACEMENT_3D('',#984,#985,#986);
#984 = CARTESIAN_POINT('',(-0.32,0.,2.77));
#985 = DIRECTION('',(-1.,-0.,-0.));
#986 = DIRECTION('',(0.,0.,-1.));
#987 = ADVANCED_FACE('',(#988),#1013,.T.);
#988 = FACE_BOUND('',#989,.T.);
#989 = EDGE_LOOP('',(#990,#991,#999,#1007));
#990 = ORIENTED_EDGE('',*,*,#915,.T.);
#991 = ORIENTED_EDGE('',*,*,#992,.F.);
#992 = EDGE_CURVE('',#993,#908,#995,.T.);
#993 = VERTEX_POINT('',#994);
#994 = CARTESIAN_POINT('',(0.32,0.32,-2.5));
#995 = LINE('',#996,#997);
#996 = CARTESIAN_POINT('',(0.32,0.32,-2.5));
#997 = VECTOR('',#998,1.);
#998 = DIRECTION('',(0.,-1.,0.));
#999 = ORIENTED_EDGE('',*,*,#1000,.F.);
#1000 = EDGE_CURVE('',#1001,#993,#1003,.T.);
#1001 = VERTEX_POINT('',#1002);
#1002 = CARTESIAN_POINT('',(0.32,0.32,8.04));
#1003 = LINE('',#1004,#1005);
#1004 = CARTESIAN_POINT('',(0.32,0.32,0.));
#1005 = VECTOR('',#1006,1.);
#1006 = DIRECTION('',(0.,0.,-1.));
#1007 = ORIENTED_EDGE('',*,*,#1008,.F.);
#1008 = EDGE_CURVE('',#892,#1001,#1009,.T.);
#1009 = LINE('',#1010,#1011);
#1010 = CARTESIAN_POINT('',(0.32,-0.32,8.04));
#1011 = VECTOR('',#1012,1.);
#1012 = DIRECTION('',(0.,1.,0.));
#1013 = PLANE('',#1014);
#1014 = AXIS2_PLACEMENT_3D('',#1015,#1016,#1017);
#1015 = CARTESIAN_POINT('',(0.32,0.,2.77));
#1016 = DIRECTION('',(1.,0.,0.));
#1017 = DIRECTION('',(0.,0.,1.));
#1018 = ADVANCED_FACE('',(#1019),#1044,.F.);
#1019 = FACE_BOUND('',#1020,.F.);
#1020 = EDGE_LOOP('',(#1021,#1029,#1037,#1043));
#1021 = ORIENTED_EDGE('',*,*,#1022,.F.);
#1022 = EDGE_CURVE('',#1023,#908,#1025,.T.);
#1023 = VERTEX_POINT('',#1024);
#1024 = CARTESIAN_POINT('',(0.12,-0.12,-3.));
#1025 = LINE('',#1026,#1027);
#1026 = CARTESIAN_POINT('',(0.193333333333,-0.193333333333,
    -2.816666666667));
#1027 = VECTOR('',#1028,1.);
#1028 = DIRECTION('',(0.348155311911,-0.348155311911,0.870388279778));
#1029 = ORIENTED_EDGE('',*,*,#1030,.T.);
#1030 = EDGE_CURVE('',#1023,#1031,#1033,.T.);
#1031 = VERTEX_POINT('',#1032);
#1032 = CARTESIAN_POINT('',(-0.12,-0.12,-3.));
#1033 = LINE('',#1034,#1035);
#1034 = CARTESIAN_POINT('',(0.32,-0.12,-3.));
#1035 = VECTOR('',#1036,1.);
#1036 = DIRECTION('',(-1.,0.,0.));
#1037 = ORIENTED_EDGE('',*,*,#1038,.T.);
#1038 = EDGE_CURVE('',#1031,#900,#1039,.T.);
#1039 = LINE('',#1040,#1041);
#1040 = CARTESIAN_POINT('',(-0.193333333333,-0.193333333333,
    -2.816666666667));
#1041 = VECTOR('',#1042,1.);
#1042 = DIRECTION('',(-0.348155311911,-0.348155311911,0.870388279778));
#1043 = ORIENTED_EDGE('',*,*,#907,.F.);
#1044 = PLANE('',#1045);
#1045 = AXIS2_PLACEMENT_3D('',#1046,#1047,#1048);
#1046 = CARTESIAN_POINT('',(0.32,-0.22,-2.75));
#1047 = DIRECTION('',(0.,0.928476690885,0.371390676354));
#1048 = DIRECTION('',(-1.,0.,0.));
#1049 = ADVANCED_FACE('',(#1050),#1068,.T.);
#1050 = FACE_BOUND('',#1051,.F.);
#1051 = EDGE_LOOP('',(#1052,#1060,#1061,#1062));
#1052 = ORIENTED_EDGE('',*,*,#1053,.T.);
#1053 = EDGE_CURVE('',#1054,#930,#1056,.T.);
#1054 = VERTEX_POINT('',#1055);
#1055 = CARTESIAN_POINT('',(-0.12,0.12,8.54));
#1056 = LINE('',#1057,#1058);
#1057 = CARTESIAN_POINT('',(-0.12,0.32,8.54));
#1058 = VECTOR('',#1059,1.);
#1059 = DIRECTION('',(0.,-1.,0.));
#1060 = ORIENTED_EDGE('',*,*,#929,.F.);
#1061 = ORIENTED_EDGE('',*,*,#977,.F.);
#1062 = ORIENTED_EDGE('',*,*,#1063,.F.);
#1063 = EDGE_CURVE('',#1054,#963,#1064,.T.);
#1064 = LINE('',#1065,#1066);
#1065 = CARTESIAN_POINT('',(-0.193333333333,0.193333333333,
    8.356666666667));
#1066 = VECTOR('',#1067,1.);
#1067 = DIRECTION('',(-0.348155311911,0.348155311911,-0.870388279778));
#1068 = PLANE('',#1069);
#1069 = AXIS2_PLACEMENT_3D('',#1070,#1071,#1072);
#1070 = CARTESIAN_POINT('',(-0.22,0.32,8.29));
#1071 = DIRECTION('',(-0.928476690885,0.,0.371390676354));
#1072 = DIRECTION('',(0.,1.,0.));
#1073 = ADVANCED_FACE('',(#1074),#1092,.T.);
#1074 = FACE_BOUND('',#1075,.T.);
#1075 = EDGE_LOOP('',(#1076,#1077,#1078,#1086));
#1076 = ORIENTED_EDGE('',*,*,#1053,.T.);
#1077 = ORIENTED_EDGE('',*,*,#946,.T.);
#1078 = ORIENTED_EDGE('',*,*,#1079,.T.);
#1079 = EDGE_CURVE('',#939,#1080,#1082,.T.);
#1080 = VERTEX_POINT('',#1081);
#1081 = CARTESIAN_POINT('',(0.12,0.12,8.54));
#1082 = LINE('',#1083,#1084);
#1083 = CARTESIAN_POINT('',(0.12,-0.32,8.54));
#1084 = VECTOR('',#1085,1.);
#1085 = DIRECTION('',(0.,1.,0.));
#1086 = ORIENTED_EDGE('',*,*,#1087,.T.);
#1087 = EDGE_CURVE('',#1080,#1054,#1088,.T.);
#1088 = LINE('',#1089,#1090);
#1089 = CARTESIAN_POINT('',(0.32,0.12,8.54));
#1090 = VECTOR('',#1091,1.);
#1091 = DIRECTION('',(-1.,0.,0.));
#1092 = PLANE('',#1093);
#1093 = AXIS2_PLACEMENT_3D('',#1094,#1095,#1096);
#1094 = CARTESIAN_POINT('',(1.E-17,-1.E-17,8.54));
#1095 = DIRECTION('',(0.,0.,1.));
#1096 = DIRECTION('',(1.,0.,0.));
#1097 = ADVANCED_FACE('',(#1098),#1109,.T.);
#1098 = FACE_BOUND('',#1099,.F.);
#1099 = EDGE_LOOP('',(#1100,#1101,#1107,#1108));
#1100 = ORIENTED_EDGE('',*,*,#1079,.T.);
#1101 = ORIENTED_EDGE('',*,*,#1102,.T.);
#1102 = EDGE_CURVE('',#1080,#1001,#1103,.T.);
#1103 = LINE('',#1104,#1105);
#1104 = CARTESIAN_POINT('',(0.193333333333,0.193333333333,8.356666666667
    ));
#1105 = VECTOR('',#1106,1.);
#1106 = DIRECTION('',(0.348155311911,0.348155311911,-0.870388279778));
#1107 = ORIENTED_EDGE('',*,*,#1008,.F.);
#1108 = ORIENTED_EDGE('',*,*,#938,.T.);
#1109 = PLANE('',#1110);
#1110 = AXIS2_PLACEMENT_3D('',#1111,#1112,#1113);
#1111 = CARTESIAN_POINT('',(0.22,-0.32,8.29));
#1112 = DIRECTION('',(0.928476690885,0.,0.371390676354));
#1113 = DIRECTION('',(-0.,-1.,-0.));
#1114 = ADVANCED_FACE('',(#1115),#1131,.T.);
#1115 = FACE_BOUND('',#1116,.T.);
#1116 = EDGE_LOOP('',(#1117,#1118,#1124,#1125));
#1117 = ORIENTED_EDGE('',*,*,#1000,.T.);
#1118 = ORIENTED_EDGE('',*,*,#1119,.F.);
#1119 = EDGE_CURVE('',#961,#993,#1120,.T.);
#1120 = LINE('',#1121,#1122);
#1121 = CARTESIAN_POINT('',(-0.32,0.32,-2.5));
#1122 = VECTOR('',#1123,1.);
#1123 = DIRECTION('',(1.,0.,0.));
#1124 = ORIENTED_EDGE('',*,*,#960,.T.);
#1125 = ORIENTED_EDGE('',*,*,#1126,.F.);
#1126 = EDGE_CURVE('',#1001,#963,#1127,.T.);
#1127 = LINE('',#1128,#1129);
#1128 = CARTESIAN_POINT('',(0.32,0.32,8.04));
#1129 = VECTOR('',#1130,1.);
#1130 = DIRECTION('',(-1.,0.,0.));
#1131 = PLANE('',#1132);
#1132 = AXIS2_PLACEMENT_3D('',#1133,#1134,#1135);
#1133 = CARTESIAN_POINT('',(0.,0.32,2.77));
#1134 = DIRECTION('',(0.,1.,0.));
#1135 = DIRECTION('',(0.,0.,1.));
#1136 = ADVANCED_FACE('',(#1137),#1155,.F.);
#1137 = FACE_BOUND('',#1138,.F.);
#1138 = EDGE_LOOP('',(#1139,#1140,#1148,#1154));
#1139 = ORIENTED_EDGE('',*,*,#1038,.F.);
#1140 = ORIENTED_EDGE('',*,*,#1141,.T.);
#1141 = EDGE_CURVE('',#1031,#1142,#1144,.T.);
#1142 = VERTEX_POINT('',#1143);
#1143 = CARTESIAN_POINT('',(-0.12,0.12,-3.));
#1144 = LINE('',#1145,#1146);
#1145 = CARTESIAN_POINT('',(-0.12,-0.32,-3.));
#1146 = VECTOR('',#1147,1.);
#1147 = DIRECTION('',(0.,1.,0.));
#1148 = ORIENTED_EDGE('',*,*,#1149,.T.);
#1149 = EDGE_CURVE('',#1142,#961,#1150,.T.);
#1150 = LINE('',#1151,#1152);
#1151 = CARTESIAN_POINT('',(-0.193333333333,0.193333333333,
    -2.816666666667));
#1152 = VECTOR('',#1153,1.);
#1153 = DIRECTION('',(-0.348155311911,0.348155311911,0.870388279778));
#1154 = ORIENTED_EDGE('',*,*,#970,.F.);
#1155 = PLANE('',#1156);
#1156 = AXIS2_PLACEMENT_3D('',#1157,#1158,#1159);
#1157 = CARTESIAN_POINT('',(-0.22,-0.32,-2.75));
#1158 = DIRECTION('',(0.928476690885,0.,0.371390676354));
#1159 = DIRECTION('',(0.,1.,0.));
#1160 = ADVANCED_FACE('',(#1161),#1179,.F.);
#1161 = FACE_BOUND('',#1162,.F.);
#1162 = EDGE_LOOP('',(#1163,#1171,#1177,#1178));
#1163 = ORIENTED_EDGE('',*,*,#1164,.F.);
#1164 = EDGE_CURVE('',#1165,#993,#1167,.T.);
#1165 = VERTEX_POINT('',#1166);
#1166 = CARTESIAN_POINT('',(0.12,0.12,-3.));
#1167 = LINE('',#1168,#1169);
#1168 = CARTESIAN_POINT('',(0.193333333333,0.193333333333,
    -2.816666666667));
#1169 = VECTOR('',#1170,1.);
#1170 = DIRECTION('',(0.348155311911,0.348155311911,0.870388279778));
#1171 = ORIENTED_EDGE('',*,*,#1172,.T.);
#1172 = EDGE_CURVE('',#1165,#1023,#1173,.T.);
#1173 = LINE('',#1174,#1175);
#1174 = CARTESIAN_POINT('',(0.12,0.32,-3.));
#1175 = VECTOR('',#1176,1.);
#1176 = DIRECTION('',(0.,-1.,0.));
#1177 = ORIENTED_EDGE('',*,*,#1022,.T.);
#1178 = ORIENTED_EDGE('',*,*,#992,.F.);
#1179 = PLANE('',#1180);
#1180 = AXIS2_PLACEMENT_3D('',#1181,#1182,#1183);
#1181 = CARTESIAN_POINT('',(0.22,0.32,-2.75));
#1182 = DIRECTION('',(-0.928476690885,0.,0.371390676354));
#1183 = DIRECTION('',(0.,-1.,0.));
#1184 = ADVANCED_FACE('',(#1185),#1196,.F.);
#1185 = FACE_BOUND('',#1186,.F.);
#1186 = EDGE_LOOP('',(#1187,#1188,#1189,#1195));
#1187 = ORIENTED_EDGE('',*,*,#1030,.F.);
#1188 = ORIENTED_EDGE('',*,*,#1172,.F.);
#1189 = ORIENTED_EDGE('',*,*,#1190,.F.);
#1190 = EDGE_CURVE('',#1142,#1165,#1191,.T.);
#1191 = LINE('',#1192,#1193);
#1192 = CARTESIAN_POINT('',(-0.32,0.12,-3.));
#1193 = VECTOR('',#1194,1.);
#1194 = DIRECTION('',(1.,0.,0.));
#1195 = ORIENTED_EDGE('',*,*,#1141,.F.);
#1196 = PLANE('',#1197);
#1197 = AXIS2_PLACEMENT_3D('',#1198,#1199,#1200);
#1198 = CARTESIAN_POINT('',(1.E-17,-1.E-17,-3.));
#1199 = DIRECTION('',(0.,0.,1.));
#1200 = DIRECTION('',(1.,0.,0.));
#1201 = ADVANCED_FACE('',(#1202),#1208,.T.);
#1202 = FACE_BOUND('',#1203,.F.);
#1203 = EDGE_LOOP('',(#1204,#1205,#1206,#1207));
#1204 = ORIENTED_EDGE('',*,*,#1102,.F.);
#1205 = ORIENTED_EDGE('',*,*,#1087,.T.);
#1206 = ORIENTED_EDGE('',*,*,#1063,.T.);
#1207 = ORIENTED_EDGE('',*,*,#1126,.F.);
#1208 = PLANE('',#1209);
#1209 = AXIS2_PLACEMENT_3D('',#1210,#1211,#1212);
#1210 = CARTESIAN_POINT('',(0.32,0.22,8.29));
#1211 = DIRECTION('',(0.,0.928476690885,0.371390676354));
#1212 = DIRECTION('',(1.,0.,0.));
#1213 = ADVANCED_FACE('',(#1214),#1220,.F.);
#1214 = FACE_BOUND('',#1215,.F.);
#1215 = EDGE_LOOP('',(#1216,#1217,#1218,#1219));
#1216 = ORIENTED_EDGE('',*,*,#1149,.F.);
#1217 = ORIENTED_EDGE('',*,*,#1190,.T.);
#1218 = ORIENTED_EDGE('',*,*,#1164,.T.);
#1219 = ORIENTED_EDGE('',*,*,#1119,.F.);
#1220 = PLANE('',#1221);
#1221 = AXIS2_PLACEMENT_3D('',#1222,#1223,#1224);
#1222 = CARTESIAN_POINT('',(-0.32,0.22,-2.75));
#1223 = DIRECTION('',(0.,-0.928476690885,0.371390676354));
#1224 = DIRECTION('',(1.,0.,0.));
#1225 = ( GEOMETRIC_REPRESENTATION_CONTEXT(3) 
GLOBAL_UNCERTAINTY_ASSIGNED_CONTEXT((#1229)) 
GLOBAL_UNIT_ASSIGNED_CONTEXT((#1226,#1227,#1228)) REPRESENTATION_CONTEXT
('Context #1','3D Context with UNIT and UNCERTAINTY') );
#1226 = ( LENGTH_UNIT() NAMED_UNIT(*) SI_UNIT(.MILLI.,.METRE.) );
#1227 = ( NAMED_UNIT(*) PLANE_ANGLE_UNIT() SI_UNIT($,.RADIAN.) );
#1228 = ( NAMED_UNIT(*) SI_UNIT($,.STERADIAN.) SOLID_ANGLE_UNIT() );
#1229 = UNCERTAINTY_MEASURE_WITH_UNIT(LENGTH_MEASURE(1.E-07),#1226,
  'distance_accuracy_value','confusion accuracy');
#1230 = CONTEXT_DEPENDENT_SHAPE_REPRESENTATION(#1231,#1233);
#1231 = ( REPRESENTATION_RELATIONSHIP('','',#882,#847) 
REPRESENTATION_RELATIONSHIP_WITH_TRANSFORMATION(#1232) 
SHAPE_REPRESENTATION_RELATIONSHIP() );
#1232 = ITEM_DEFINED_TRANSFORMATION('','',#11,#848);
#1233 = PRODUCT_DEFINITION_SHAPE('Placement','Placement of an item',
  #1234);
#1234 = NEXT_ASSEMBLY_USAGE_OCCURRENCE('16','0','',#842,#877,$);
#1235 = PRODUCT_RELATED_PRODUCT_CATEGORY('part',$,(#879));
#1236 = CONTEXT_DEPENDENT_SHAPE_REPRESENTATION(#1237,#1239);
#1237 = ( REPRESENTATION_RELATIONSHIP('','',#882,#847) 
REPRESENTATION_RELATIONSHIP_WITH_TRANSFORMATION(#1238) 
SHAPE_REPRESENTATION_RELATIONSHIP() );
#1238 = ITEM_DEFINED_TRANSFORMATION('','',#11,#852);
#1239 = PRODUCT_DEFINITION_SHAPE('Placement','Placement of an item',
  #1240);
#1240 = NEXT_ASSEMBLY_USAGE_OCCURRENCE('17','1','',#842,#877,$);
#1241 = CONTEXT_DEPENDENT_SHAPE_REPRESENTATION(#1242,#1244);
#1242 = ( REPRESENTATION_RELATIONSHIP('','',#882,#847) 
REPRESENTATION_RELATIONSHIP_WITH_TRANSFORMATION(#1243) 
SHAPE_REPRESENTATION_RELATIONSHIP() );
#1243 = ITEM_DEFINED_TRANSFORMATION('','',#11,#856);
#1244 = PRODUCT_DEFINITION_SHAPE('Placement','Placement of an item',
  #1245);
#1245 = NEXT_ASSEMBLY_USAGE_OCCURRENCE('18','2','',#842,#877,$);
#1246 = CONTEXT_DEPENDENT_SHAPE_REPRESENTATION(#1247,#1249);
#1247 = ( REPRESENTATION_RELATIONSHIP('','',#882,#847) 
REPRESENTATION_RELATIONSHIP_WITH_TRANSFORMATION(#1248) 
SHAPE_REPRESENTATION_RELATIONSHIP() );
#1248 = ITEM_DEFINED_TRANSFORMATION('','',#11,#860);
#1249 = PRODUCT_DEFINITION_SHAPE('Placement','Placement of an item',
  #1250);
#1250 = NEXT_ASSEMBLY_USAGE_OCCURRENCE('19','3','',#842,#877,$);
#1251 = MECHANICAL_DESIGN_GEOMETRIC_PRESENTATION_REPRESENTATION('',(
    #1252),#1225);
#1252 = STYLED_ITEM('color',(#1253),#883);
#1253 = PRESENTATION_STYLE_ASSIGNMENT((#1254,#1260));
#1254 = SURFACE_STYLE_USAGE(.BOTH.,#1255);
#1255 = SURFACE_SIDE_STYLE('',(#1256));
#1256 = SURFACE_STYLE_FILL_AREA(#1257);
#1257 = FILL_AREA_STYLE('',(#1258));
#1258 = FILL_AREA_STYLE_COLOUR('',#1259);
#1259 = COLOUR_RGB('',0.941176459967,0.749019635948,0.380392165758);
#1260 = CURVE_STYLE('',#1261,POSITIVE_LENGTH_MEASURE(0.1),#1262);
#1261 = DRAUGHTING_PRE_DEFINED_CURVE_FONT('continuous');
#1262 = COLOUR_RGB('',9.803921802644E-02,9.803921802644E-02,
  9.803921802644E-02);
#1263 = MECHANICAL_DESIGN_GEOMETRIC_PRESENTATION_REPRESENTATION('',(
    #1264),#814);
#1264 = STYLED_ITEM('color',(#1265),#72);
#1265 = PRESENTATION_STYLE_ASSIGNMENT((#1266,#1272));
#1266 = SURFACE_STYLE_USAGE(.BOTH.,#1267);
#1267 = SURFACE_SIDE_STYLE('',(#1268));
#1268 = SURFACE_STYLE_FILL_AREA(#1269);
#1269 = FILL_AREA_STYLE('',(#1270));
#1270 = FILL_AREA_STYLE_COLOUR('',#1271);
#1271 = COLOUR_RGB('',0.149019617616,0.149019617616,0.149019617616);
#1272 = CURVE_STYLE('',#1273,POSITIVE_LENGTH_MEASURE(0.1),#1262);
#1273 = DRAUGHTING_PRE_DEFINED_CURVE_FONT('continuous');
ENDSEC;
END-ISO-10303-21;
