%FSLAX46Y46*%
%MOMM*%
%ADD10C,0.010000*%
G01*
%LPD*%
G01*
%LPD*%
D10*
X0Y17950000D02*
X1750000Y17950000D01*
D10*
X1750000Y17950000D02*
X1750000Y19900000D01*
D10*
X1750000Y19900000D02*
X22750000Y19900000D01*
D10*
X22750000Y19900000D02*
X22750000Y18200000D01*
D10*
X22750000Y18200000D02*
X26250000Y18200000D01*
D10*
X26250000Y18200000D02*
X26250000Y19900000D01*
D10*
X26250000Y19900000D02*
X41000000Y19900000D01*
D10*
X41000000Y19900000D02*
X41000000Y15950000D01*
D10*
X41000000Y15950000D02*
X42500000Y15950000D01*
D10*
X42500000Y15950000D02*
X42500000Y19900000D01*
D10*
X42500000Y19900000D02*
X47000000Y19900000D01*
D10*
X47000000Y19900000D02*
X47000000Y17950000D01*
D10*
X47000000Y17950000D02*
X48750000Y17950000D01*
D10*
X48750000Y17950000D02*
X48750000Y1950000D01*
D10*
X48750000Y1950000D02*
X47000000Y1950000D01*
D10*
X47000000Y1950000D02*
X47000000Y0D01*
D10*
X47000000Y0D02*
X42500000Y0D01*
D10*
X42500000Y0D02*
X42500000Y3950000D01*
D10*
X42500000Y3950000D02*
X41000000Y3950000D01*
D10*
X41000000Y3950000D02*
X41000000Y0D01*
D10*
X41000000Y0D02*
X26250000Y0D01*
D10*
X26250000Y0D02*
X26250000Y1700000D01*
D10*
X26250000Y1700000D02*
X22750000Y1700000D01*
D10*
X22750000Y1700000D02*
X22750000Y0D01*
D10*
X22750000Y0D02*
X1750000Y0D01*
D10*
X1750000Y0D02*
X1750000Y1950000D01*
D10*
X1750000Y1950000D02*
X0Y1950000D01*
D10*
X0Y1950000D02*
X0Y17950000D01*
G75*
M02*
