%FSLAX46Y46*%
%MOMM*%
%AMPS10*
1,1,1.400000,0.000000,0.000000*
%
%ADD10PS10*%
%AMPS12*
1,1,1.400000,0.000000,0.000000*
%
%ADD12PS12*%
%AMPS14*
1,1,0.700000,0.000000,0.000000*
%
%ADD14PS14*%
%AMPS16*
1,1,0.600000,0.000000,0.000000*
%
%ADD16PS16*%
%AMPS15*
1,1,1.000000,0.000000,0.000000*
%
%ADD15PS15*%
%AMPS11*
21,1,2.400000,1.600000,0.000000,0.000000,0.000000*
1,1,1.600000,1.200000,0.000000*
1,1,1.600000,-1.200000,0.000000*
%
%ADD11PS11*%
%AMPS13*
1,1,0.700000,0.000000,0.000000*
%
%ADD13PS13*%
G01*
%LPD*%
G36*
X22440000Y310000D02*
X22440000Y2010000D01*
X26560000Y2010000D01*
X26560000Y310000D01*
X40690000Y310000D01*
X40690000Y4260000D01*
X42810000Y4260000D01*
X42810000Y310000D01*
X46690000Y310000D01*
X46690000Y2260000D01*
X48440000Y2260000D01*
X48440000Y17640000D01*
X46690000Y17640000D01*
X46690000Y19590000D01*
X42810000Y19590000D01*
X42810000Y15640000D01*
X40690000Y15640000D01*
X40690000Y19590000D01*
X26560000Y19590000D01*
X26560000Y17890000D01*
X22440000Y17890000D01*
X22440000Y19590000D01*
X2060000Y19590000D01*
X2060000Y17640000D01*
X310000Y17640000D01*
X310000Y2260000D01*
X2060000Y2260000D01*
X2060000Y310000D01*
X22440000Y310000D01*
D02*
G37*
%LPC*%
G36*
X16255000Y1745000D02*
X9145000Y1745000D01*
X9145000Y4655000D01*
X12645000Y4655000D01*
X12645000Y17655000D01*
X21255000Y17655000D01*
X21255000Y16855000D01*
X29445000Y16855000D01*
X29445000Y19055000D01*
X33505000Y19055000D01*
X33505000Y13745000D01*
X30255000Y13745000D01*
X30255000Y9855000D01*
X37955000Y9855000D01*
X37955000Y4245000D01*
X31255000Y4245000D01*
X31255000Y2945000D01*
X27945000Y2945000D01*
X27945000Y3845000D01*
X16255000Y3845000D01*
X16255000Y1745000D01*
D02*
G37*
%LPD*%
G36*
X16000000Y2000000D02*
X16000000Y4100000D01*
X28200000Y4100000D01*
X28200000Y3200000D01*
X31000000Y3200000D01*
X31000000Y4500000D01*
X37700000Y4500000D01*
X37700000Y9600000D01*
X30000000Y9600000D01*
X30000000Y14000000D01*
X33250000Y14000000D01*
X33250000Y18800000D01*
X29700000Y18800000D01*
X29700000Y16600000D01*
X21000000Y16600000D01*
X21000000Y17400000D01*
X12900000Y17400000D01*
X12900000Y4400000D01*
X9400000Y4400000D01*
X9400000Y2000000D01*
X16000000Y2000000D01*
D02*
G37*
%LPC*%
G36*
X32600000Y15744812D02*
X32555393Y15747004D01*
X32511190Y15753562D01*
X32467872Y15764411D01*
X32425804Y15779465D01*
X32385425Y15798562D01*
X32347116Y15821524D01*
X32311234Y15848136D01*
X32278134Y15878134D01*
X32248136Y15911234D01*
X32221524Y15947116D01*
X32198562Y15985425D01*
X32179465Y16025804D01*
X32164411Y16067872D01*
X32153562Y16111190D01*
X32147004Y16155393D01*
X32144812Y16200000D01*
X32147004Y16244607D01*
X32153562Y16288810D01*
X32164411Y16332128D01*
X32179465Y16374196D01*
X32198562Y16414575D01*
X32221524Y16452884D01*
X32248136Y16488766D01*
X32278134Y16521866D01*
X32311234Y16551864D01*
X32347116Y16578476D01*
X32385425Y16601438D01*
X32425804Y16620535D01*
X32467872Y16635589D01*
X32511190Y16646438D01*
X32555393Y16652996D01*
X32600000Y16655188D01*
X32644607Y16652996D01*
X32688810Y16646438D01*
X32732128Y16635589D01*
X32774196Y16620535D01*
X32814575Y16601438D01*
X32852884Y16578476D01*
X32888766Y16551864D01*
X32921866Y16521866D01*
X32951864Y16488766D01*
X32978476Y16452884D01*
X33001438Y16414575D01*
X33020535Y16374196D01*
X33035589Y16332128D01*
X33046438Y16288810D01*
X33059613Y16200000D01*
X33046438Y16111190D01*
X33035589Y16067872D01*
X33020535Y16025804D01*
X33001438Y15985425D01*
X32978476Y15947116D01*
X32951864Y15911234D01*
X32921866Y15878134D01*
X32888766Y15848136D01*
X32852884Y15821524D01*
X32814575Y15798562D01*
X32774196Y15779465D01*
X32732128Y15764411D01*
X32688810Y15753562D01*
X32644607Y15747004D01*
X32600000Y15744812D01*
D02*
G37*
%LPC*%
G36*
X15598000Y15224812D02*
X15548481Y15227246D01*
X15499447Y15234520D01*
X15451353Y15246566D01*
X15404674Y15263268D01*
X15359859Y15284464D01*
X15317335Y15309952D01*
X15277512Y15339487D01*
X15240779Y15372779D01*
X15207487Y15409512D01*
X15177952Y15449335D01*
X15152464Y15491859D01*
X15131268Y15536674D01*
X15114566Y15583353D01*
X15102520Y15631447D01*
X15095246Y15680481D01*
X15092812Y15730000D01*
X15095246Y15779519D01*
X15102520Y15828553D01*
X15114566Y15876647D01*
X15131268Y15923326D01*
X15152464Y15968141D01*
X15177952Y16010665D01*
X15207487Y16050488D01*
X15240779Y16087221D01*
X15277512Y16120513D01*
X15317335Y16150048D01*
X15359859Y16175536D01*
X15404674Y16196732D01*
X15451353Y16213434D01*
X15499447Y16225480D01*
X15548481Y16232754D01*
X15598000Y16235188D01*
X15647519Y16232754D01*
X15696553Y16225480D01*
X15744647Y16213434D01*
X15791326Y16196732D01*
X15836141Y16175536D01*
X15878665Y16150048D01*
X15918488Y16120513D01*
X15955221Y16087221D01*
X15988513Y16050488D01*
X16018048Y16010665D01*
X16043536Y15968141D01*
X16064732Y15923326D01*
X16081434Y15876647D01*
X16093480Y15828553D01*
X16100754Y15779519D01*
X16103188Y15730000D01*
X16100754Y15680481D01*
X16093480Y15631447D01*
X16081434Y15583353D01*
X16064732Y15536674D01*
X16043536Y15491859D01*
X16018048Y15449335D01*
X15988513Y15409512D01*
X15955221Y15372779D01*
X15918488Y15339487D01*
X15878665Y15309952D01*
X15836141Y15284464D01*
X15791326Y15263268D01*
X15744647Y15246566D01*
X15696553Y15234520D01*
X15647519Y15227246D01*
X15598000Y15224812D01*
D02*
G37*
%LPD*%
G36*
X15598000Y15480120D02*
X15622490Y15481324D01*
X15646740Y15484921D01*
X15670541Y15490882D01*
X15693623Y15499140D01*
X15715795Y15509629D01*
X15736820Y15522230D01*
X15756521Y15536841D01*
X15774691Y15553309D01*
X15791159Y15571479D01*
X15805770Y15591180D01*
X15818371Y15612205D01*
X15828860Y15634377D01*
X15837118Y15657459D01*
X15843079Y15681260D01*
X15846676Y15705510D01*
X15847880Y15730000D01*
X15846676Y15754490D01*
X15843079Y15778740D01*
X15837118Y15802541D01*
X15828860Y15825623D01*
X15818371Y15847795D01*
X15805770Y15868820D01*
X15791159Y15888521D01*
X15774691Y15906691D01*
X15756521Y15923159D01*
X15736820Y15937770D01*
X15715795Y15950371D01*
X15693623Y15960860D01*
X15670541Y15969118D01*
X15646740Y15975079D01*
X15622490Y15978676D01*
X15598000Y15979880D01*
X15573510Y15978676D01*
X15549260Y15975079D01*
X15525459Y15969118D01*
X15502377Y15960860D01*
X15480205Y15950371D01*
X15459180Y15937770D01*
X15439479Y15923159D01*
X15421309Y15906691D01*
X15404841Y15888521D01*
X15390230Y15868820D01*
X15377629Y15847795D01*
X15367140Y15825623D01*
X15358882Y15802541D01*
X15352921Y15778740D01*
X15349324Y15754490D01*
X15348120Y15730000D01*
X15349324Y15705510D01*
X15352921Y15681260D01*
X15358882Y15657459D01*
X15367140Y15634377D01*
X15377629Y15612205D01*
X15390230Y15591180D01*
X15404841Y15571479D01*
X15421309Y15553309D01*
X15439479Y15536841D01*
X15459180Y15522230D01*
X15480205Y15509629D01*
X15502377Y15499140D01*
X15525459Y15490882D01*
X15549260Y15484921D01*
X15573510Y15481324D01*
X15598000Y15480120D01*
D02*
G37*
%LPC*%
G36*
X28060000Y13674478D02*
X28010481Y13676912D01*
X27961447Y13684186D01*
X27913353Y13696232D01*
X27866674Y13712934D01*
X27821859Y13734130D01*
X27779335Y13759618D01*
X27739512Y13789153D01*
X27702779Y13822445D01*
X27669487Y13859178D01*
X27639952Y13899001D01*
X27614464Y13941525D01*
X27593268Y13986340D01*
X27576566Y14033019D01*
X27564520Y14081113D01*
X27557246Y14130147D01*
X27554812Y14179666D01*
X27557246Y14229185D01*
X27564520Y14278219D01*
X27576566Y14326313D01*
X27593268Y14372992D01*
X27614464Y14417807D01*
X27639952Y14460331D01*
X27669487Y14500154D01*
X27702779Y14536887D01*
X27739512Y14570179D01*
X27779335Y14599714D01*
X27821859Y14625202D01*
X27866674Y14646398D01*
X27913353Y14663100D01*
X27961447Y14675146D01*
X28010481Y14682420D01*
X28060000Y14684854D01*
X28109519Y14682420D01*
X28158553Y14675146D01*
X28206647Y14663100D01*
X28253326Y14646398D01*
X28298141Y14625202D01*
X28340665Y14599714D01*
X28380488Y14570179D01*
X28417221Y14536887D01*
X28450513Y14500154D01*
X28480048Y14460331D01*
X28505536Y14417807D01*
X28526732Y14372992D01*
X28543434Y14326313D01*
X28555480Y14278219D01*
X28562754Y14229185D01*
X28565188Y14179666D01*
X28562754Y14130147D01*
X28555480Y14081113D01*
X28543434Y14033019D01*
X28526732Y13986340D01*
X28505536Y13941525D01*
X28480048Y13899001D01*
X28450513Y13859178D01*
X28417221Y13822445D01*
X28380488Y13789153D01*
X28340665Y13759618D01*
X28298141Y13734130D01*
X28253326Y13712934D01*
X28206647Y13696232D01*
X28158553Y13684186D01*
X28109519Y13676912D01*
X28060000Y13674478D01*
D02*
G37*
%LPD*%
G36*
X28060000Y13929786D02*
X28084490Y13930990D01*
X28108740Y13934587D01*
X28132541Y13940548D01*
X28155623Y13948806D01*
X28177795Y13959295D01*
X28198820Y13971896D01*
X28218521Y13986507D01*
X28236691Y14002975D01*
X28253159Y14021145D01*
X28267770Y14040846D01*
X28280371Y14061871D01*
X28290860Y14084043D01*
X28299118Y14107125D01*
X28305079Y14130926D01*
X28308676Y14155176D01*
X28309880Y14179666D01*
X28308676Y14204156D01*
X28305079Y14228406D01*
X28299118Y14252207D01*
X28290860Y14275289D01*
X28280371Y14297461D01*
X28267770Y14318486D01*
X28253159Y14338187D01*
X28236691Y14356357D01*
X28218521Y14372825D01*
X28198820Y14387436D01*
X28177795Y14400037D01*
X28155623Y14410526D01*
X28132541Y14418784D01*
X28108740Y14424745D01*
X28084490Y14428342D01*
X28060000Y14429546D01*
X28035510Y14428342D01*
X28011260Y14424745D01*
X27987459Y14418784D01*
X27964377Y14410526D01*
X27942205Y14400037D01*
X27921180Y14387436D01*
X27901479Y14372825D01*
X27883309Y14356357D01*
X27866841Y14338187D01*
X27852230Y14318486D01*
X27839629Y14297461D01*
X27829140Y14275289D01*
X27820882Y14252207D01*
X27814921Y14228406D01*
X27811324Y14204156D01*
X27810120Y14179666D01*
X27811324Y14155176D01*
X27814921Y14130926D01*
X27820882Y14107125D01*
X27829140Y14084043D01*
X27839629Y14061871D01*
X27852230Y14040846D01*
X27866841Y14021145D01*
X27883309Y14002975D01*
X27901479Y13986507D01*
X27921180Y13971896D01*
X27942205Y13959295D01*
X27964377Y13948806D01*
X27987459Y13940548D01*
X28011260Y13934587D01*
X28035510Y13930990D01*
X28060000Y13929786D01*
D02*
G37*
%LPC*%
G36*
X16270000Y11134812D02*
X16220481Y11137246D01*
X16171447Y11144520D01*
X16123353Y11156566D01*
X16076674Y11173268D01*
X16031859Y11194464D01*
X15989335Y11219952D01*
X15949512Y11249487D01*
X15912779Y11282779D01*
X15879487Y11319512D01*
X15849952Y11359335D01*
X15824464Y11401859D01*
X15803268Y11446674D01*
X15786566Y11493353D01*
X15774520Y11541447D01*
X15767246Y11590481D01*
X15764812Y11640000D01*
X15767246Y11689519D01*
X15774520Y11738553D01*
X15786566Y11786647D01*
X15803268Y11833326D01*
X15824464Y11878141D01*
X15849952Y11920665D01*
X15879487Y11960488D01*
X15912779Y11997221D01*
X15949512Y12030513D01*
X15989335Y12060048D01*
X16031859Y12085536D01*
X16076674Y12106732D01*
X16123353Y12123434D01*
X16171447Y12135480D01*
X16220481Y12142754D01*
X16270000Y12145188D01*
X16319519Y12142754D01*
X16368553Y12135480D01*
X16416647Y12123434D01*
X16463326Y12106732D01*
X16508141Y12085536D01*
X16550665Y12060048D01*
X16590488Y12030513D01*
X16627221Y11997221D01*
X16660513Y11960488D01*
X16690048Y11920665D01*
X16715536Y11878141D01*
X16736732Y11833326D01*
X16753434Y11786647D01*
X16765480Y11738553D01*
X16772754Y11689519D01*
X16775188Y11640000D01*
X16772754Y11590481D01*
X16765480Y11541447D01*
X16753434Y11493353D01*
X16736732Y11446674D01*
X16715536Y11401859D01*
X16690048Y11359335D01*
X16660513Y11319512D01*
X16627221Y11282779D01*
X16590488Y11249487D01*
X16550665Y11219952D01*
X16508141Y11194464D01*
X16463326Y11173268D01*
X16416647Y11156566D01*
X16368553Y11144520D01*
X16319519Y11137246D01*
X16270000Y11134812D01*
D02*
G37*
%LPD*%
G36*
X16270000Y11390120D02*
X16294490Y11391324D01*
X16318740Y11394921D01*
X16342541Y11400882D01*
X16365623Y11409140D01*
X16387795Y11419629D01*
X16408820Y11432230D01*
X16428521Y11446841D01*
X16446691Y11463309D01*
X16463159Y11481479D01*
X16477770Y11501180D01*
X16490371Y11522205D01*
X16500860Y11544377D01*
X16509118Y11567459D01*
X16515079Y11591260D01*
X16518676Y11615510D01*
X16519880Y11640000D01*
X16518676Y11664490D01*
X16515079Y11688740D01*
X16509118Y11712541D01*
X16500860Y11735623D01*
X16490371Y11757795D01*
X16477770Y11778820D01*
X16463159Y11798521D01*
X16446691Y11816691D01*
X16428521Y11833159D01*
X16408820Y11847770D01*
X16387795Y11860371D01*
X16365623Y11870860D01*
X16342541Y11879118D01*
X16318740Y11885079D01*
X16294490Y11888676D01*
X16270000Y11889880D01*
X16245510Y11888676D01*
X16221260Y11885079D01*
X16197459Y11879118D01*
X16174377Y11870860D01*
X16152205Y11860371D01*
X16131180Y11847770D01*
X16111479Y11833159D01*
X16093309Y11816691D01*
X16076841Y11798521D01*
X16062230Y11778820D01*
X16049629Y11757795D01*
X16039140Y11735623D01*
X16030882Y11712541D01*
X16024921Y11688740D01*
X16021324Y11664490D01*
X16020120Y11640000D01*
X16021324Y11615510D01*
X16024921Y11591260D01*
X16030882Y11567459D01*
X16039140Y11544377D01*
X16049629Y11522205D01*
X16062230Y11501180D01*
X16076841Y11481479D01*
X16093309Y11463309D01*
X16111479Y11446841D01*
X16131180Y11432230D01*
X16152205Y11419629D01*
X16174377Y11409140D01*
X16197459Y11400882D01*
X16221260Y11394921D01*
X16245510Y11391324D01*
X16270000Y11390120D01*
D02*
G37*
%LPC*%
G36*
X26640000Y10624812D02*
X26595393Y10627004D01*
X26551190Y10633562D01*
X26507872Y10644411D01*
X26465804Y10659465D01*
X26425425Y10678562D01*
X26387116Y10701524D01*
X26351234Y10728136D01*
X26318134Y10758134D01*
X26288136Y10791234D01*
X26261524Y10827116D01*
X26238562Y10865425D01*
X26219465Y10905804D01*
X26204411Y10947872D01*
X26193562Y10991190D01*
X26187004Y11035393D01*
X26184812Y11080000D01*
X26187004Y11124607D01*
X26193562Y11168810D01*
X26204411Y11212128D01*
X26219465Y11254196D01*
X26238562Y11294575D01*
X26261524Y11332884D01*
X26288136Y11368766D01*
X26318134Y11401866D01*
X26351234Y11431864D01*
X26387116Y11458476D01*
X26425425Y11481438D01*
X26465804Y11500535D01*
X26507872Y11515589D01*
X26551190Y11526438D01*
X26595393Y11532996D01*
X26640000Y11535188D01*
X26684607Y11532996D01*
X26728810Y11526438D01*
X26772128Y11515589D01*
X26814196Y11500535D01*
X26854575Y11481438D01*
X26892884Y11458476D01*
X26928766Y11431864D01*
X26961866Y11401866D01*
X26991864Y11368766D01*
X27018476Y11332884D01*
X27041438Y11294575D01*
X27060535Y11254196D01*
X27075589Y11212128D01*
X27086438Y11168810D01*
X27092996Y11124607D01*
X27095188Y11080000D01*
X27092996Y11035393D01*
X27086438Y10991190D01*
X27075589Y10947872D01*
X27060535Y10905804D01*
X27041438Y10865425D01*
X27018476Y10827116D01*
X26991864Y10791234D01*
X26961866Y10758134D01*
X26928766Y10728136D01*
X26892884Y10701524D01*
X26854575Y10678562D01*
X26814196Y10659465D01*
X26772128Y10644411D01*
X26728810Y10633562D01*
X26684607Y10627004D01*
X26640000Y10624812D01*
D02*
G37*
%LPC*%
G36*
X28860000Y8275146D02*
X28810481Y8277580D01*
X28761447Y8284854D01*
X28713353Y8296900D01*
X28666674Y8313602D01*
X28621859Y8334798D01*
X28579335Y8360286D01*
X28539512Y8389821D01*
X28502779Y8423113D01*
X28469487Y8459846D01*
X28439952Y8499669D01*
X28414464Y8542193D01*
X28393268Y8587008D01*
X28376566Y8633687D01*
X28364520Y8681781D01*
X28357246Y8730815D01*
X28354812Y8780334D01*
X28357246Y8829853D01*
X28364520Y8878887D01*
X28376566Y8926981D01*
X28393268Y8973660D01*
X28414464Y9018475D01*
X28439952Y9060999D01*
X28469487Y9100822D01*
X28502779Y9137555D01*
X28539512Y9170847D01*
X28579335Y9200382D01*
X28621859Y9225870D01*
X28666674Y9247066D01*
X28713353Y9263768D01*
X28761447Y9275814D01*
X28810481Y9283088D01*
X28860000Y9285522D01*
X28909519Y9283088D01*
X28958553Y9275814D01*
X29006647Y9263768D01*
X29053326Y9247066D01*
X29098141Y9225870D01*
X29140665Y9200382D01*
X29180488Y9170847D01*
X29217221Y9137555D01*
X29250513Y9100822D01*
X29280048Y9060999D01*
X29305536Y9018475D01*
X29326732Y8973660D01*
X29343434Y8926981D01*
X29355480Y8878887D01*
X29362754Y8829853D01*
X29365188Y8780334D01*
X29362754Y8730815D01*
X29355480Y8681781D01*
X29343434Y8633687D01*
X29326732Y8587008D01*
X29305536Y8542193D01*
X29280048Y8499669D01*
X29250513Y8459846D01*
X29217221Y8423113D01*
X29180488Y8389821D01*
X29140665Y8360286D01*
X29098141Y8334798D01*
X29053326Y8313602D01*
X29006647Y8296900D01*
X28958553Y8284854D01*
X28909519Y8277580D01*
X28860000Y8275146D01*
D02*
G37*
%LPD*%
G36*
X28860000Y8530454D02*
X28884490Y8531658D01*
X28908740Y8535255D01*
X28932541Y8541216D01*
X28955623Y8549474D01*
X28977795Y8559963D01*
X28998820Y8572564D01*
X29018521Y8587175D01*
X29036691Y8603643D01*
X29053159Y8621813D01*
X29067770Y8641514D01*
X29080371Y8662539D01*
X29090860Y8684711D01*
X29099118Y8707793D01*
X29105079Y8731594D01*
X29108676Y8755844D01*
X29109880Y8780334D01*
X29108676Y8804824D01*
X29105079Y8829074D01*
X29099118Y8852875D01*
X29090860Y8875957D01*
X29080371Y8898129D01*
X29067770Y8919154D01*
X29053159Y8938855D01*
X29036691Y8957025D01*
X29018521Y8973493D01*
X28998820Y8988104D01*
X28977795Y9000705D01*
X28955623Y9011194D01*
X28932541Y9019452D01*
X28908740Y9025413D01*
X28884490Y9029010D01*
X28860000Y9030214D01*
X28835510Y9029010D01*
X28811260Y9025413D01*
X28787459Y9019452D01*
X28764377Y9011194D01*
X28742205Y9000705D01*
X28721180Y8988104D01*
X28701479Y8973493D01*
X28683309Y8957025D01*
X28666841Y8938855D01*
X28652230Y8919154D01*
X28639629Y8898129D01*
X28629140Y8875957D01*
X28620882Y8852875D01*
X28614921Y8829074D01*
X28611324Y8804824D01*
X28610120Y8780334D01*
X28611324Y8755844D01*
X28614921Y8731594D01*
X28620882Y8707793D01*
X28629140Y8684711D01*
X28639629Y8662539D01*
X28652230Y8641514D01*
X28666841Y8621813D01*
X28683309Y8603643D01*
X28701479Y8587175D01*
X28721180Y8572564D01*
X28742205Y8559963D01*
X28764377Y8549474D01*
X28787459Y8541216D01*
X28811260Y8535255D01*
X28835510Y8531658D01*
X28860000Y8530454D01*
D02*
G37*
%LPC*%
G36*
X16140000Y7844812D02*
X16090481Y7847246D01*
X16041447Y7854520D01*
X15993353Y7866566D01*
X15946674Y7883268D01*
X15901859Y7904464D01*
X15859335Y7929952D01*
X15819512Y7959487D01*
X15782779Y7992779D01*
X15749487Y8029512D01*
X15719952Y8069335D01*
X15694464Y8111859D01*
X15673268Y8156674D01*
X15656566Y8203353D01*
X15644520Y8251447D01*
X15637246Y8300481D01*
X15634812Y8350000D01*
X15637246Y8399519D01*
X15644520Y8448553D01*
X15656566Y8496647D01*
X15673268Y8543326D01*
X15694464Y8588141D01*
X15719952Y8630665D01*
X15749487Y8670488D01*
X15782779Y8707221D01*
X15819512Y8740513D01*
X15859335Y8770048D01*
X15901859Y8795536D01*
X15946674Y8816732D01*
X15993353Y8833434D01*
X16041447Y8845480D01*
X16090481Y8852754D01*
X16140000Y8855188D01*
X16189519Y8852754D01*
X16238553Y8845480D01*
X16286647Y8833434D01*
X16333326Y8816732D01*
X16378141Y8795536D01*
X16420665Y8770048D01*
X16460488Y8740513D01*
X16497221Y8707221D01*
X16530513Y8670488D01*
X16560048Y8630665D01*
X16585536Y8588141D01*
X16606732Y8543326D01*
X16623434Y8496647D01*
X16635480Y8448553D01*
X16642754Y8399519D01*
X16645188Y8350000D01*
X16642754Y8300481D01*
X16635480Y8251447D01*
X16623434Y8203353D01*
X16606732Y8156674D01*
X16585536Y8111859D01*
X16560048Y8069335D01*
X16530513Y8029512D01*
X16497221Y7992779D01*
X16460488Y7959487D01*
X16420665Y7929952D01*
X16378141Y7904464D01*
X16333326Y7883268D01*
X16286647Y7866566D01*
X16238553Y7854520D01*
X16189519Y7847246D01*
X16140000Y7844812D01*
D02*
G37*
%LPD*%
G36*
X16140000Y8100120D02*
X16164490Y8101324D01*
X16188740Y8104921D01*
X16212541Y8110882D01*
X16235623Y8119140D01*
X16257795Y8129629D01*
X16278820Y8142230D01*
X16298521Y8156841D01*
X16316691Y8173309D01*
X16333159Y8191479D01*
X16347770Y8211180D01*
X16360371Y8232205D01*
X16370860Y8254377D01*
X16379118Y8277459D01*
X16385079Y8301260D01*
X16388676Y8325510D01*
X16389880Y8350000D01*
X16388676Y8374490D01*
X16385079Y8398740D01*
X16379118Y8422541D01*
X16370860Y8445623D01*
X16360371Y8467795D01*
X16347770Y8488820D01*
X16333159Y8508521D01*
X16316691Y8526691D01*
X16298521Y8543159D01*
X16278820Y8557770D01*
X16257795Y8570371D01*
X16235623Y8580860D01*
X16212541Y8589118D01*
X16188740Y8595079D01*
X16164490Y8598676D01*
X16140000Y8599880D01*
X16115510Y8598676D01*
X16091260Y8595079D01*
X16067459Y8589118D01*
X16044377Y8580860D01*
X16022205Y8570371D01*
X16001180Y8557770D01*
X15981479Y8543159D01*
X15963309Y8526691D01*
X15946841Y8508521D01*
X15932230Y8488820D01*
X15919629Y8467795D01*
X15909140Y8445623D01*
X15900882Y8422541D01*
X15894921Y8398740D01*
X15891324Y8374490D01*
X15890120Y8350000D01*
X15891324Y8325510D01*
X15894921Y8301260D01*
X15900882Y8277459D01*
X15909140Y8254377D01*
X15919629Y8232205D01*
X15932230Y8211180D01*
X15946841Y8191479D01*
X15963309Y8173309D01*
X15981479Y8156841D01*
X16001180Y8142230D01*
X16022205Y8129629D01*
X16044377Y8119140D01*
X16067459Y8110882D01*
X16091260Y8104921D01*
X16115510Y8101324D01*
X16140000Y8100120D01*
D02*
G37*
%LPC*%
G36*
X22455000Y7594812D02*
X22405481Y7597246D01*
X22356447Y7604520D01*
X22308353Y7616566D01*
X22261674Y7633268D01*
X22216859Y7654464D01*
X22174335Y7679952D01*
X22134512Y7709487D01*
X22097779Y7742779D01*
X22064487Y7779512D01*
X22034952Y7819335D01*
X22009464Y7861859D01*
X21988268Y7906674D01*
X21971566Y7953353D01*
X21959520Y8001447D01*
X21952246Y8050481D01*
X21949812Y8100000D01*
X21952246Y8149519D01*
X21959520Y8198553D01*
X21971566Y8246647D01*
X21988268Y8293326D01*
X22009464Y8338141D01*
X22034952Y8380665D01*
X22064487Y8420488D01*
X22097779Y8457221D01*
X22134512Y8490513D01*
X22174335Y8520048D01*
X22216859Y8545536D01*
X22261674Y8566732D01*
X22308353Y8583434D01*
X22356447Y8595480D01*
X22405481Y8602754D01*
X22455000Y8605188D01*
X22504519Y8602754D01*
X22553553Y8595480D01*
X22601647Y8583434D01*
X22648326Y8566732D01*
X22693141Y8545536D01*
X22735665Y8520048D01*
X22775488Y8490513D01*
X22812221Y8457221D01*
X22845513Y8420488D01*
X22875048Y8380665D01*
X22900536Y8338141D01*
X22921732Y8293326D01*
X22938434Y8246647D01*
X22950480Y8198553D01*
X22957754Y8149519D01*
X22960188Y8100000D01*
X22957754Y8050481D01*
X22950480Y8001447D01*
X22938434Y7953353D01*
X22921732Y7906674D01*
X22900536Y7861859D01*
X22875048Y7819335D01*
X22845513Y7779512D01*
X22812221Y7742779D01*
X22775488Y7709487D01*
X22735665Y7679952D01*
X22693141Y7654464D01*
X22648326Y7633268D01*
X22601647Y7616566D01*
X22553553Y7604520D01*
X22504519Y7597246D01*
X22455000Y7594812D01*
D02*
G37*
%LPD*%
G36*
X22455000Y7850120D02*
X22479490Y7851324D01*
X22503740Y7854921D01*
X22527541Y7860882D01*
X22550623Y7869140D01*
X22572795Y7879629D01*
X22593820Y7892230D01*
X22613521Y7906841D01*
X22631691Y7923309D01*
X22648159Y7941479D01*
X22662770Y7961180D01*
X22675371Y7982205D01*
X22685860Y8004377D01*
X22694118Y8027459D01*
X22700079Y8051260D01*
X22703676Y8075510D01*
X22704880Y8100000D01*
X22703676Y8124490D01*
X22700079Y8148740D01*
X22694118Y8172541D01*
X22685860Y8195623D01*
X22675371Y8217795D01*
X22662770Y8238820D01*
X22648159Y8258521D01*
X22631691Y8276691D01*
X22613521Y8293159D01*
X22593820Y8307770D01*
X22572795Y8320371D01*
X22550623Y8330860D01*
X22527541Y8339118D01*
X22503740Y8345079D01*
X22479490Y8348676D01*
X22455000Y8349880D01*
X22430510Y8348676D01*
X22406260Y8345079D01*
X22382459Y8339118D01*
X22359377Y8330860D01*
X22337205Y8320371D01*
X22316180Y8307770D01*
X22296479Y8293159D01*
X22278309Y8276691D01*
X22261841Y8258521D01*
X22247230Y8238820D01*
X22234629Y8217795D01*
X22224140Y8195623D01*
X22215882Y8172541D01*
X22209921Y8148740D01*
X22206324Y8124490D01*
X22205120Y8100000D01*
X22206324Y8075510D01*
X22209921Y8051260D01*
X22215882Y8027459D01*
X22224140Y8004377D01*
X22234629Y7982205D01*
X22247230Y7961180D01*
X22261841Y7941479D01*
X22278309Y7923309D01*
X22296479Y7906841D01*
X22316180Y7892230D01*
X22337205Y7879629D01*
X22359377Y7869140D01*
X22382459Y7860882D01*
X22406260Y7854921D01*
X22430510Y7851324D01*
X22455000Y7850120D01*
D02*
G37*
%LPC*%
G36*
X14893000Y4854812D02*
X14843481Y4857246D01*
X14794447Y4864520D01*
X14746353Y4876566D01*
X14699674Y4893268D01*
X14654859Y4914464D01*
X14612335Y4939952D01*
X14572512Y4969487D01*
X14535779Y5002779D01*
X14502487Y5039512D01*
X14472952Y5079335D01*
X14447464Y5121859D01*
X14426268Y5166674D01*
X14409566Y5213353D01*
X14397520Y5261447D01*
X14390246Y5310481D01*
X14387812Y5360000D01*
X14390246Y5409519D01*
X14397520Y5458553D01*
X14409566Y5506647D01*
X14426268Y5553326D01*
X14447464Y5598141D01*
X14472952Y5640665D01*
X14502487Y5680488D01*
X14535779Y5717221D01*
X14572512Y5750513D01*
X14612335Y5780048D01*
X14654859Y5805536D01*
X14699674Y5826732D01*
X14746353Y5843434D01*
X14794447Y5855480D01*
X14843481Y5862754D01*
X14893000Y5865188D01*
X14942519Y5862754D01*
X14991553Y5855480D01*
X15039647Y5843434D01*
X15086326Y5826732D01*
X15131141Y5805536D01*
X15173665Y5780048D01*
X15213488Y5750513D01*
X15250221Y5717221D01*
X15283513Y5680488D01*
X15313048Y5640665D01*
X15338536Y5598141D01*
X15359732Y5553326D01*
X15376434Y5506647D01*
X15388480Y5458553D01*
X15395754Y5409519D01*
X15398188Y5360000D01*
X15395754Y5310481D01*
X15388480Y5261447D01*
X15376434Y5213353D01*
X15359732Y5166674D01*
X15338536Y5121859D01*
X15313048Y5079335D01*
X15283513Y5039512D01*
X15250221Y5002779D01*
X15213488Y4969487D01*
X15173665Y4939952D01*
X15131141Y4914464D01*
X15086326Y4893268D01*
X15039647Y4876566D01*
X14991553Y4864520D01*
X14942519Y4857246D01*
X14893000Y4854812D01*
D02*
G37*
%LPD*%
G36*
X14893000Y5110120D02*
X14917490Y5111324D01*
X14941740Y5114921D01*
X14965541Y5120882D01*
X14988623Y5129140D01*
X15010795Y5139629D01*
X15031820Y5152230D01*
X15051521Y5166841D01*
X15069691Y5183309D01*
X15086159Y5201479D01*
X15100770Y5221180D01*
X15113371Y5242205D01*
X15123860Y5264377D01*
X15132118Y5287459D01*
X15138079Y5311260D01*
X15141676Y5335510D01*
X15142880Y5360000D01*
X15141676Y5384490D01*
X15138079Y5408740D01*
X15132118Y5432541D01*
X15123860Y5455623D01*
X15113371Y5477795D01*
X15100770Y5498820D01*
X15086159Y5518521D01*
X15069691Y5536691D01*
X15051521Y5553159D01*
X15031820Y5567770D01*
X15010795Y5580371D01*
X14988623Y5590860D01*
X14965541Y5599118D01*
X14941740Y5605079D01*
X14917490Y5608676D01*
X14893000Y5609880D01*
X14868510Y5608676D01*
X14844260Y5605079D01*
X14820459Y5599118D01*
X14797377Y5590860D01*
X14775205Y5580371D01*
X14754180Y5567770D01*
X14734479Y5553159D01*
X14716309Y5536691D01*
X14699841Y5518521D01*
X14685230Y5498820D01*
X14672629Y5477795D01*
X14662140Y5455623D01*
X14653882Y5432541D01*
X14647921Y5408740D01*
X14644324Y5384490D01*
X14643120Y5360000D01*
X14644324Y5335510D01*
X14647921Y5311260D01*
X14653882Y5287459D01*
X14662140Y5264377D01*
X14672629Y5242205D01*
X14685230Y5221180D01*
X14699841Y5201479D01*
X14716309Y5183309D01*
X14734479Y5166841D01*
X14754180Y5152230D01*
X14775205Y5139629D01*
X14797377Y5129140D01*
X14820459Y5120882D01*
X14844260Y5114921D01*
X14868510Y5111324D01*
X14893000Y5110120D01*
D02*
G37*
%LPC*%
G36*
X29470000Y3495146D02*
X29420481Y3497580D01*
X29371447Y3504854D01*
X29323353Y3516900D01*
X29276674Y3533602D01*
X29231859Y3554798D01*
X29189335Y3580286D01*
X29149512Y3609821D01*
X29112779Y3643113D01*
X29079487Y3679846D01*
X29049952Y3719669D01*
X29024464Y3762193D01*
X29003268Y3807008D01*
X28986566Y3853687D01*
X28974520Y3901781D01*
X28967246Y3950815D01*
X28964812Y4000334D01*
X28967246Y4049853D01*
X28974520Y4098887D01*
X28986566Y4146981D01*
X29003268Y4193660D01*
X29024464Y4238475D01*
X29049952Y4280999D01*
X29079487Y4320822D01*
X29112779Y4357555D01*
X29149512Y4390847D01*
X29189335Y4420382D01*
X29231859Y4445870D01*
X29276674Y4467066D01*
X29323353Y4483768D01*
X29371447Y4495814D01*
X29420481Y4503088D01*
X29470000Y4505522D01*
X29519519Y4503088D01*
X29568553Y4495814D01*
X29616647Y4483768D01*
X29663326Y4467066D01*
X29708141Y4445870D01*
X29750665Y4420382D01*
X29790488Y4390847D01*
X29827221Y4357555D01*
X29860513Y4320822D01*
X29890048Y4280999D01*
X29915536Y4238475D01*
X29936732Y4193660D01*
X29953434Y4146981D01*
X29965480Y4098887D01*
X29972754Y4049853D01*
X29975188Y4000334D01*
X29972754Y3950815D01*
X29965480Y3901781D01*
X29953434Y3853687D01*
X29936732Y3807008D01*
X29915536Y3762193D01*
X29890048Y3719669D01*
X29860513Y3679846D01*
X29827221Y3643113D01*
X29790488Y3609821D01*
X29750665Y3580286D01*
X29708141Y3554798D01*
X29663326Y3533602D01*
X29616647Y3516900D01*
X29568553Y3504854D01*
X29519519Y3497580D01*
X29470000Y3495146D01*
D02*
G37*
%LPD*%
G36*
X29470000Y3750454D02*
X29494490Y3751658D01*
X29518740Y3755255D01*
X29542541Y3761216D01*
X29565623Y3769474D01*
X29587795Y3779963D01*
X29608820Y3792564D01*
X29628521Y3807175D01*
X29646691Y3823643D01*
X29663159Y3841813D01*
X29677770Y3861514D01*
X29690371Y3882539D01*
X29700860Y3904711D01*
X29709118Y3927793D01*
X29715079Y3951594D01*
X29718676Y3975844D01*
X29719880Y4000334D01*
X29718676Y4024824D01*
X29715079Y4049074D01*
X29709118Y4072875D01*
X29700860Y4095957D01*
X29690371Y4118129D01*
X29677770Y4139154D01*
X29663159Y4158855D01*
X29646691Y4177025D01*
X29628521Y4193493D01*
X29608820Y4208104D01*
X29587795Y4220705D01*
X29565623Y4231194D01*
X29542541Y4239452D01*
X29518740Y4245413D01*
X29494490Y4249010D01*
X29470000Y4250214D01*
X29445510Y4249010D01*
X29421260Y4245413D01*
X29397459Y4239452D01*
X29374377Y4231194D01*
X29352205Y4220705D01*
X29331180Y4208104D01*
X29311479Y4193493D01*
X29293309Y4177025D01*
X29276841Y4158855D01*
X29262230Y4139154D01*
X29249629Y4118129D01*
X29239140Y4095957D01*
X29230882Y4072875D01*
X29224921Y4049074D01*
X29221324Y4024824D01*
X29220120Y4000334D01*
X29221324Y3975844D01*
X29224921Y3951594D01*
X29230882Y3927793D01*
X29239140Y3904711D01*
X29249629Y3882539D01*
X29262230Y3861514D01*
X29276841Y3841813D01*
X29293309Y3823643D01*
X29311479Y3807175D01*
X29331180Y3792564D01*
X29352205Y3779963D01*
X29374377Y3769474D01*
X29397459Y3761216D01*
X29421260Y3755255D01*
X29445510Y3751658D01*
X29470000Y3750454D01*
D02*
G37*
%LPC*%
G36*
X8655000Y3845000D02*
X6145000Y3845000D01*
X6145000Y8155000D01*
X6645000Y8155000D01*
X6645000Y17955000D01*
X9255000Y17955000D01*
X9255000Y5045000D01*
X8655000Y5045000D01*
X8655000Y3845000D01*
D02*
G37*
%LPD*%
G36*
X8400000Y4100000D02*
X8400000Y5300000D01*
X9000000Y5300000D01*
X9000000Y17700000D01*
X6900000Y17700000D01*
X6900000Y7900000D01*
X6400000Y7900000D01*
X6400000Y4100000D01*
X8400000Y4100000D01*
D02*
G37*
%LPC*%
G36*
X39440000Y16789752D02*
X39390476Y16792186D01*
X39341440Y16799460D01*
X39293333Y16811509D01*
X39246650Y16828213D01*
X39201826Y16849412D01*
X39159300Y16874903D01*
X39119477Y16904438D01*
X39082736Y16937736D01*
X39049438Y16974477D01*
X39019903Y17014300D01*
X38994412Y17056826D01*
X38973213Y17101650D01*
X38956509Y17148333D01*
X38944460Y17196440D01*
X38937186Y17245476D01*
X38934752Y17295000D01*
X38937186Y17344524D01*
X38944460Y17393560D01*
X38956509Y17441667D01*
X38973213Y17488350D01*
X38994412Y17533174D01*
X39019903Y17575700D01*
X39049438Y17615523D01*
X39082736Y17652264D01*
X39119477Y17685562D01*
X39159300Y17715097D01*
X39201826Y17740588D01*
X39246650Y17761787D01*
X39293333Y17778491D01*
X39341440Y17790540D01*
X39390476Y17797814D01*
X39440000Y17800248D01*
X39489524Y17797814D01*
X39538560Y17790540D01*
X39586667Y17778491D01*
X39633350Y17761787D01*
X39678174Y17740588D01*
X39720700Y17715097D01*
X39760523Y17685562D01*
X39797264Y17652264D01*
X39830562Y17615523D01*
X39860097Y17575700D01*
X39885588Y17533174D01*
X39906787Y17488350D01*
X39923491Y17441667D01*
X39935540Y17393560D01*
X39942814Y17344524D01*
X39945248Y17295000D01*
X39942814Y17245476D01*
X39935540Y17196440D01*
X39923491Y17148333D01*
X39906787Y17101650D01*
X39885588Y17056826D01*
X39860097Y17014300D01*
X39830562Y16974477D01*
X39797264Y16937736D01*
X39760523Y16904438D01*
X39720700Y16874903D01*
X39678174Y16849412D01*
X39633350Y16828213D01*
X39586667Y16811509D01*
X39538560Y16799460D01*
X39489524Y16792186D01*
X39440000Y16789752D01*
D02*
G37*
%LPC*%
G36*
X38170000Y16789752D02*
X38120476Y16792186D01*
X38071440Y16799460D01*
X38023333Y16811509D01*
X37976650Y16828213D01*
X37931826Y16849412D01*
X37889300Y16874903D01*
X37849477Y16904438D01*
X37812736Y16937736D01*
X37779438Y16974477D01*
X37749903Y17014300D01*
X37724412Y17056826D01*
X37703213Y17101650D01*
X37686509Y17148333D01*
X37674460Y17196440D01*
X37667186Y17245476D01*
X37664752Y17295000D01*
X37667186Y17344524D01*
X37674460Y17393560D01*
X37686509Y17441667D01*
X37703213Y17488350D01*
X37724412Y17533174D01*
X37749903Y17575700D01*
X37779438Y17615523D01*
X37812736Y17652264D01*
X37849477Y17685562D01*
X37889300Y17715097D01*
X37931826Y17740588D01*
X37976650Y17761787D01*
X38023333Y17778491D01*
X38071440Y17790540D01*
X38120476Y17797814D01*
X38170000Y17800248D01*
X38219524Y17797814D01*
X38268560Y17790540D01*
X38316667Y17778491D01*
X38363350Y17761787D01*
X38408174Y17740588D01*
X38450700Y17715097D01*
X38490523Y17685562D01*
X38527264Y17652264D01*
X38560562Y17615523D01*
X38590097Y17575700D01*
X38615588Y17533174D01*
X38636787Y17488350D01*
X38653491Y17441667D01*
X38665540Y17393560D01*
X38672814Y17344524D01*
X38675248Y17295000D01*
X38672814Y17245476D01*
X38665540Y17196440D01*
X38653491Y17148333D01*
X38636787Y17101650D01*
X38615588Y17056826D01*
X38590097Y17014300D01*
X38560562Y16974477D01*
X38527264Y16937736D01*
X38490523Y16904438D01*
X38450700Y16874903D01*
X38408174Y16849412D01*
X38363350Y16828213D01*
X38316667Y16811509D01*
X38268560Y16799460D01*
X38219524Y16792186D01*
X38170000Y16789752D01*
D02*
G37*
%LPC*%
G36*
X36900000Y16789752D02*
X36850476Y16792186D01*
X36801440Y16799460D01*
X36753333Y16811509D01*
X36706650Y16828213D01*
X36661826Y16849412D01*
X36619300Y16874903D01*
X36579477Y16904438D01*
X36542736Y16937736D01*
X36509438Y16974477D01*
X36479903Y17014300D01*
X36454412Y17056826D01*
X36433213Y17101650D01*
X36416509Y17148333D01*
X36404460Y17196440D01*
X36397186Y17245476D01*
X36394752Y17295000D01*
X36397186Y17344524D01*
X36404460Y17393560D01*
X36416509Y17441667D01*
X36433213Y17488350D01*
X36454412Y17533174D01*
X36479903Y17575700D01*
X36509438Y17615523D01*
X36542736Y17652264D01*
X36579477Y17685562D01*
X36619300Y17715097D01*
X36661826Y17740588D01*
X36706650Y17761787D01*
X36753333Y17778491D01*
X36801440Y17790540D01*
X36850476Y17797814D01*
X36900000Y17800248D01*
X36949524Y17797814D01*
X36998560Y17790540D01*
X37046667Y17778491D01*
X37093350Y17761787D01*
X37138174Y17740588D01*
X37180700Y17715097D01*
X37220523Y17685562D01*
X37257264Y17652264D01*
X37290562Y17615523D01*
X37320097Y17575700D01*
X37345588Y17533174D01*
X37366787Y17488350D01*
X37383491Y17441667D01*
X37395540Y17393560D01*
X37402814Y17344524D01*
X37405248Y17295000D01*
X37402814Y17245476D01*
X37395540Y17196440D01*
X37383491Y17148333D01*
X37366787Y17101650D01*
X37345588Y17056826D01*
X37320097Y17014300D01*
X37290562Y16974477D01*
X37257264Y16937736D01*
X37220523Y16904438D01*
X37180700Y16874903D01*
X37138174Y16849412D01*
X37093350Y16828213D01*
X37046667Y16811509D01*
X36998560Y16799460D01*
X36949524Y16792186D01*
X36900000Y16789752D01*
D02*
G37*
%LPC*%
G36*
X35630000Y16789752D02*
X35580476Y16792186D01*
X35531440Y16799460D01*
X35483333Y16811509D01*
X35436650Y16828213D01*
X35391826Y16849412D01*
X35349300Y16874903D01*
X35309477Y16904438D01*
X35272736Y16937736D01*
X35239438Y16974477D01*
X35209903Y17014300D01*
X35184412Y17056826D01*
X35163213Y17101650D01*
X35146509Y17148333D01*
X35134460Y17196440D01*
X35127186Y17245476D01*
X35124752Y17295000D01*
X35127186Y17344524D01*
X35134460Y17393560D01*
X35146509Y17441667D01*
X35163213Y17488350D01*
X35184412Y17533174D01*
X35209903Y17575700D01*
X35239438Y17615523D01*
X35272736Y17652264D01*
X35309477Y17685562D01*
X35349300Y17715097D01*
X35391826Y17740588D01*
X35436650Y17761787D01*
X35483333Y17778491D01*
X35531440Y17790540D01*
X35580476Y17797814D01*
X35630000Y17800248D01*
X35679524Y17797814D01*
X35728560Y17790540D01*
X35776667Y17778491D01*
X35823350Y17761787D01*
X35868174Y17740588D01*
X35910700Y17715097D01*
X35950523Y17685562D01*
X35987264Y17652264D01*
X36020562Y17615523D01*
X36050097Y17575700D01*
X36075588Y17533174D01*
X36096787Y17488350D01*
X36113491Y17441667D01*
X36125540Y17393560D01*
X36132814Y17344524D01*
X36135248Y17295000D01*
X36132814Y17245476D01*
X36125540Y17196440D01*
X36113491Y17148333D01*
X36096787Y17101650D01*
X36075588Y17056826D01*
X36050097Y17014300D01*
X36020562Y16974477D01*
X35987264Y16937736D01*
X35950523Y16904438D01*
X35910700Y16874903D01*
X35868174Y16849412D01*
X35823350Y16828213D01*
X35776667Y16811509D01*
X35728560Y16799460D01*
X35679524Y16792186D01*
X35630000Y16789752D01*
D02*
G37*
%LPC*%
G36*
X34360000Y16789752D02*
X34310476Y16792186D01*
X34261440Y16799460D01*
X34213333Y16811509D01*
X34166650Y16828213D01*
X34121826Y16849412D01*
X34079300Y16874903D01*
X34039477Y16904438D01*
X34002736Y16937736D01*
X33969438Y16974477D01*
X33939903Y17014300D01*
X33914412Y17056826D01*
X33893213Y17101650D01*
X33876509Y17148333D01*
X33864460Y17196440D01*
X33857186Y17245476D01*
X33854752Y17295000D01*
X33857186Y17344524D01*
X33864460Y17393560D01*
X33876509Y17441667D01*
X33893213Y17488350D01*
X33914412Y17533174D01*
X33939903Y17575700D01*
X33969438Y17615523D01*
X34002736Y17652264D01*
X34039477Y17685562D01*
X34079300Y17715097D01*
X34121826Y17740588D01*
X34166650Y17761787D01*
X34213333Y17778491D01*
X34261440Y17790540D01*
X34310476Y17797814D01*
X34360000Y17800248D01*
X34409524Y17797814D01*
X34458560Y17790540D01*
X34506667Y17778491D01*
X34553350Y17761787D01*
X34598174Y17740588D01*
X34640700Y17715097D01*
X34680523Y17685562D01*
X34717264Y17652264D01*
X34750562Y17615523D01*
X34780097Y17575700D01*
X34805588Y17533174D01*
X34826787Y17488350D01*
X34843491Y17441667D01*
X34855540Y17393560D01*
X34862814Y17344524D01*
X34865248Y17295000D01*
X34862814Y17245476D01*
X34855540Y17196440D01*
X34843491Y17148333D01*
X34826787Y17101650D01*
X34805588Y17056826D01*
X34780097Y17014300D01*
X34750562Y16974477D01*
X34717264Y16937736D01*
X34680523Y16904438D01*
X34640700Y16874903D01*
X34598174Y16849412D01*
X34553350Y16828213D01*
X34506667Y16811509D01*
X34458560Y16799460D01*
X34409524Y16792186D01*
X34360000Y16789752D01*
D02*
G37*
%LPC*%
G36*
X4007387Y14655000D02*
X1602613Y14655000D01*
X1556170Y14656141D01*
X1507467Y14659734D01*
X1458999Y14665711D01*
X1410869Y14674062D01*
X1363237Y14684758D01*
X1316140Y14697792D01*
X1269770Y14713110D01*
X1224210Y14730685D01*
X1179569Y14750473D01*
X1135914Y14772447D01*
X1093447Y14796505D01*
X1052173Y14822641D01*
X1012236Y14850767D01*
X973747Y14880804D01*
X936766Y14912705D01*
X901388Y14946388D01*
X867705Y14981766D01*
X835804Y15018747D01*
X805767Y15057236D01*
X777641Y15097173D01*
X751505Y15138447D01*
X727447Y15180914D01*
X705473Y15224569D01*
X685685Y15269210D01*
X668110Y15314770D01*
X652792Y15361140D01*
X639758Y15408237D01*
X629062Y15455869D01*
X620711Y15503999D01*
X614734Y15552467D01*
X611141Y15601170D01*
X609941Y15650000D01*
X611141Y15698830D01*
X614734Y15747533D01*
X620711Y15796001D01*
X629062Y15844131D01*
X639758Y15891763D01*
X652792Y15938860D01*
X668110Y15985230D01*
X685685Y16030790D01*
X705473Y16075431D01*
X727447Y16119086D01*
X751505Y16161553D01*
X777641Y16202827D01*
X805767Y16242764D01*
X835804Y16281253D01*
X867705Y16318234D01*
X901388Y16353612D01*
X936766Y16387295D01*
X973747Y16419196D01*
X1012236Y16449233D01*
X1052173Y16477359D01*
X1093447Y16503495D01*
X1135914Y16527553D01*
X1179569Y16549527D01*
X1224210Y16569315D01*
X1269770Y16586890D01*
X1316140Y16602208D01*
X1363237Y16615242D01*
X1410869Y16625938D01*
X1458999Y16634289D01*
X1507467Y16640266D01*
X1556170Y16643859D01*
X1602613Y16645000D01*
X4007387Y16645000D01*
X4053830Y16643859D01*
X4102533Y16640266D01*
X4151001Y16634289D01*
X4199131Y16625938D01*
X4246763Y16615242D01*
X4293860Y16602208D01*
X4340230Y16586890D01*
X4385790Y16569315D01*
X4430431Y16549527D01*
X4474086Y16527553D01*
X4516553Y16503495D01*
X4557827Y16477359D01*
X4597764Y16449233D01*
X4636253Y16419196D01*
X4673234Y16387295D01*
X4708612Y16353612D01*
X4742295Y16318234D01*
X4774196Y16281253D01*
X4804233Y16242764D01*
X4832359Y16202827D01*
X4858495Y16161553D01*
X4882553Y16119086D01*
X4904527Y16075431D01*
X4924315Y16030790D01*
X4941890Y15985230D01*
X4957208Y15938860D01*
X4970242Y15891763D01*
X4980938Y15844131D01*
X4989289Y15796001D01*
X4995266Y15747533D01*
X4998859Y15698830D01*
X5000059Y15650000D01*
X4998859Y15601170D01*
X4995266Y15552467D01*
X4989289Y15503999D01*
X4980938Y15455869D01*
X4970242Y15408237D01*
X4957208Y15361140D01*
X4941890Y15314770D01*
X4924315Y15269210D01*
X4904527Y15224569D01*
X4882553Y15180914D01*
X4858495Y15138447D01*
X4832359Y15097173D01*
X4804233Y15057236D01*
X4774196Y15018747D01*
X4742295Y14981766D01*
X4708612Y14946388D01*
X4673234Y14912705D01*
X4636253Y14880804D01*
X4597764Y14850767D01*
X4557827Y14822641D01*
X4516553Y14796505D01*
X4474086Y14772447D01*
X4430431Y14750473D01*
X4385790Y14730685D01*
X4340230Y14713110D01*
X4293860Y14697792D01*
X4246763Y14684758D01*
X4199131Y14674062D01*
X4151001Y14665711D01*
X4102533Y14659734D01*
X4053830Y14656141D01*
X4007387Y14655000D01*
D02*
G37*
%LPC*%
G36*
X46198737Y14051847D02*
X46110997Y14056159D01*
X46024081Y14069051D01*
X45938866Y14090396D01*
X45856144Y14119996D01*
X45776727Y14157556D01*
X45701374Y14202721D01*
X45630810Y14255055D01*
X45565711Y14314057D01*
X45506709Y14379156D01*
X45454375Y14449720D01*
X45409210Y14525073D01*
X45371650Y14604490D01*
X45342050Y14687212D01*
X45320705Y14772427D01*
X45307813Y14859343D01*
X45303501Y14947083D01*
X45307813Y15034823D01*
X45320705Y15121739D01*
X45342050Y15206954D01*
X45371650Y15289676D01*
X45409210Y15369093D01*
X45454375Y15444446D01*
X45506709Y15515010D01*
X45565711Y15580109D01*
X45630810Y15639111D01*
X45701374Y15691445D01*
X45776727Y15736610D01*
X45856144Y15774170D01*
X45938866Y15803770D01*
X46024081Y15825115D01*
X46110997Y15838007D01*
X46198737Y15842319D01*
X46286477Y15838007D01*
X46373393Y15825115D01*
X46458608Y15803770D01*
X46541330Y15774170D01*
X46620747Y15736610D01*
X46696100Y15691445D01*
X46766664Y15639111D01*
X46831763Y15580109D01*
X46890765Y15515010D01*
X46943099Y15444446D01*
X46988264Y15369093D01*
X47025824Y15289676D01*
X47055424Y15206954D01*
X47076769Y15121739D01*
X47089661Y15034823D01*
X47093973Y14947083D01*
X47089661Y14859343D01*
X47076769Y14772427D01*
X47055424Y14687212D01*
X47025824Y14604490D01*
X46988264Y14525073D01*
X46943099Y14449720D01*
X46890765Y14379156D01*
X46831763Y14314057D01*
X46766664Y14255055D01*
X46696100Y14202721D01*
X46620747Y14157556D01*
X46541330Y14119996D01*
X46458608Y14090396D01*
X46373393Y14069051D01*
X46286477Y14056159D01*
X46198737Y14051847D01*
D02*
G37*
%LPC*%
G36*
X46198737Y12051847D02*
X46110997Y12056159D01*
X46024081Y12069051D01*
X45938866Y12090396D01*
X45856144Y12119996D01*
X45776727Y12157556D01*
X45701374Y12202721D01*
X45630810Y12255055D01*
X45565711Y12314057D01*
X45506709Y12379156D01*
X45454375Y12449720D01*
X45409210Y12525073D01*
X45371650Y12604490D01*
X45342050Y12687212D01*
X45320705Y12772427D01*
X45307813Y12859343D01*
X45303501Y12947083D01*
X45307813Y13034823D01*
X45320705Y13121739D01*
X45342050Y13206954D01*
X45371650Y13289676D01*
X45409210Y13369093D01*
X45454375Y13444446D01*
X45506709Y13515010D01*
X45565711Y13580109D01*
X45630810Y13639111D01*
X45701374Y13691445D01*
X45776727Y13736610D01*
X45856144Y13774170D01*
X45938866Y13803770D01*
X46024081Y13825115D01*
X46110997Y13838007D01*
X46198737Y13842319D01*
X46286477Y13838007D01*
X46373393Y13825115D01*
X46458608Y13803770D01*
X46541330Y13774170D01*
X46620747Y13736610D01*
X46696100Y13691445D01*
X46766664Y13639111D01*
X46831763Y13580109D01*
X46890765Y13515010D01*
X46943099Y13444446D01*
X46988264Y13369093D01*
X47025824Y13289676D01*
X47055424Y13206954D01*
X47076769Y13121739D01*
X47089661Y13034823D01*
X47093973Y12947083D01*
X47089661Y12859343D01*
X47076769Y12772427D01*
X47055424Y12687212D01*
X47025824Y12604490D01*
X46988264Y12525073D01*
X46943099Y12449720D01*
X46890765Y12379156D01*
X46831763Y12314057D01*
X46766664Y12255055D01*
X46696100Y12202721D01*
X46620747Y12157556D01*
X46541330Y12119996D01*
X46458608Y12090396D01*
X46373393Y12069051D01*
X46286477Y12056159D01*
X46198737Y12051847D01*
D02*
G37*
%LPC*%
G36*
X31000000Y12484812D02*
X30955393Y12487004D01*
X30911190Y12493562D01*
X30867872Y12504411D01*
X30825804Y12519465D01*
X30785425Y12538562D01*
X30747116Y12561524D01*
X30711234Y12588136D01*
X30678134Y12618134D01*
X30648136Y12651234D01*
X30621524Y12687116D01*
X30598562Y12725425D01*
X30579465Y12765804D01*
X30564411Y12807872D01*
X30553562Y12851190D01*
X30547004Y12895393D01*
X30544812Y12940000D01*
X30547004Y12984607D01*
X30553562Y13028810D01*
X30564411Y13072128D01*
X30579465Y13114196D01*
X30598562Y13154575D01*
X30621524Y13192884D01*
X30648136Y13228766D01*
X30678134Y13261866D01*
X30711234Y13291864D01*
X30747116Y13318476D01*
X30785425Y13341438D01*
X30825804Y13360535D01*
X30867872Y13375589D01*
X30911190Y13386438D01*
X30955393Y13392996D01*
X31000000Y13395188D01*
X31044607Y13392996D01*
X31088810Y13386438D01*
X31132128Y13375589D01*
X31174196Y13360535D01*
X31214575Y13341438D01*
X31252884Y13318476D01*
X31288766Y13291864D01*
X31321866Y13261866D01*
X31351864Y13228766D01*
X31378476Y13192884D01*
X31401438Y13154575D01*
X31420535Y13114196D01*
X31435589Y13072128D01*
X31446438Y13028810D01*
X31452996Y12984607D01*
X31455188Y12940000D01*
X31452996Y12895393D01*
X31446438Y12851190D01*
X31435589Y12807872D01*
X31420535Y12765804D01*
X31401438Y12725425D01*
X31378476Y12687116D01*
X31351864Y12651234D01*
X31321866Y12618134D01*
X31288766Y12588136D01*
X31252884Y12561524D01*
X31214575Y12538562D01*
X31174196Y12519465D01*
X31132128Y12504411D01*
X31088810Y12493562D01*
X31044607Y12487004D01*
X31000000Y12484812D01*
D02*
G37*
%LPC*%
G36*
X2805000Y11194752D02*
X2706475Y11199594D01*
X2608884Y11214069D01*
X2513193Y11238038D01*
X2420304Y11271275D01*
X2331140Y11313445D01*
X2246512Y11364170D01*
X2167277Y11422935D01*
X2094183Y11489183D01*
X2027935Y11562277D01*
X1969170Y11641512D01*
X1918445Y11726140D01*
X1876275Y11815304D01*
X1843038Y11908193D01*
X1819069Y12003884D01*
X1804594Y12101475D01*
X1799752Y12200000D01*
X1804594Y12298525D01*
X1819069Y12396116D01*
X1843038Y12491807D01*
X1876275Y12584696D01*
X1918445Y12673860D01*
X1969170Y12758488D01*
X2027935Y12837723D01*
X2094183Y12910817D01*
X2167277Y12977065D01*
X2246512Y13035830D01*
X2331140Y13086555D01*
X2420304Y13128725D01*
X2513193Y13161962D01*
X2608884Y13185931D01*
X2706475Y13200406D01*
X2805000Y13205248D01*
X2903525Y13200406D01*
X3001116Y13185931D01*
X3096807Y13161962D01*
X3189696Y13128725D01*
X3278860Y13086555D01*
X3363488Y13035830D01*
X3442723Y12977065D01*
X3515817Y12910817D01*
X3582065Y12837723D01*
X3640830Y12758488D01*
X3691555Y12673860D01*
X3733725Y12584696D01*
X3766962Y12491807D01*
X3790931Y12396116D01*
X3805406Y12298525D01*
X3810248Y12200000D01*
X3805406Y12101475D01*
X3790931Y12003884D01*
X3766962Y11908193D01*
X3733725Y11815304D01*
X3691555Y11726140D01*
X3640830Y11641512D01*
X3582065Y11562277D01*
X3515817Y11489183D01*
X3442723Y11422935D01*
X3363488Y11364170D01*
X3278860Y11313445D01*
X3189696Y11271275D01*
X3096807Y11238038D01*
X3001116Y11214069D01*
X2903525Y11199594D01*
X2805000Y11194752D01*
D02*
G37*
%LPC*%
G36*
X46198737Y10051847D02*
X46110997Y10056159D01*
X46024081Y10069051D01*
X45938866Y10090396D01*
X45856144Y10119996D01*
X45776727Y10157556D01*
X45701374Y10202721D01*
X45630810Y10255055D01*
X45565711Y10314057D01*
X45506709Y10379156D01*
X45454375Y10449720D01*
X45409210Y10525073D01*
X45371650Y10604490D01*
X45342050Y10687212D01*
X45320705Y10772427D01*
X45307813Y10859343D01*
X45303501Y10947083D01*
X45307813Y11034823D01*
X45320705Y11121739D01*
X45342050Y11206954D01*
X45371650Y11289676D01*
X45409210Y11369093D01*
X45454375Y11444446D01*
X45506709Y11515010D01*
X45565711Y11580109D01*
X45630810Y11639111D01*
X45701374Y11691445D01*
X45776727Y11736610D01*
X45856144Y11774170D01*
X45938866Y11803770D01*
X46024081Y11825115D01*
X46110997Y11838007D01*
X46198737Y11842319D01*
X46286477Y11838007D01*
X46373393Y11825115D01*
X46458608Y11803770D01*
X46541330Y11774170D01*
X46620747Y11736610D01*
X46696100Y11691445D01*
X46766664Y11639111D01*
X46831763Y11580109D01*
X46890765Y11515010D01*
X46943099Y11444446D01*
X46988264Y11369093D01*
X47025824Y11289676D01*
X47055424Y11206954D01*
X47076769Y11121739D01*
X47089661Y11034823D01*
X47093973Y10947083D01*
X47089661Y10859343D01*
X47076769Y10772427D01*
X47055424Y10687212D01*
X47025824Y10604490D01*
X46988264Y10525073D01*
X46943099Y10449720D01*
X46890765Y10379156D01*
X46831763Y10314057D01*
X46766664Y10255055D01*
X46696100Y10202721D01*
X46620747Y10157556D01*
X46541330Y10119996D01*
X46458608Y10090396D01*
X46373393Y10069051D01*
X46286477Y10056159D01*
X46198737Y10051847D01*
D02*
G37*
%LPC*%
G36*
X31000000Y10744812D02*
X30955393Y10747004D01*
X30911190Y10753562D01*
X30867872Y10764411D01*
X30825804Y10779465D01*
X30785425Y10798562D01*
X30747116Y10821524D01*
X30711234Y10848136D01*
X30678134Y10878134D01*
X30648136Y10911234D01*
X30621524Y10947116D01*
X30598562Y10985425D01*
X30579465Y11025804D01*
X30564411Y11067872D01*
X30553562Y11111190D01*
X30547004Y11155393D01*
X30544812Y11200000D01*
X30547004Y11244607D01*
X30553562Y11288810D01*
X30564411Y11332128D01*
X30579465Y11374196D01*
X30598562Y11414575D01*
X30621524Y11452884D01*
X30648136Y11488766D01*
X30678134Y11521866D01*
X30711234Y11551864D01*
X30747116Y11578476D01*
X30785425Y11601438D01*
X30825804Y11620535D01*
X30867872Y11635589D01*
X30911190Y11646438D01*
X30955393Y11652996D01*
X31000000Y11655188D01*
X31044607Y11652996D01*
X31088810Y11646438D01*
X31132128Y11635589D01*
X31174196Y11620535D01*
X31214575Y11601438D01*
X31252884Y11578476D01*
X31288766Y11551864D01*
X31321866Y11521866D01*
X31351864Y11488766D01*
X31378476Y11452884D01*
X31401438Y11414575D01*
X31420535Y11374196D01*
X31435589Y11332128D01*
X31446438Y11288810D01*
X31452996Y11244607D01*
X31455188Y11200000D01*
X31452996Y11155393D01*
X31446438Y11111190D01*
X31435589Y11067872D01*
X31420535Y11025804D01*
X31401438Y10985425D01*
X31378476Y10947116D01*
X31351864Y10911234D01*
X31321866Y10878134D01*
X31288766Y10848136D01*
X31252884Y10821524D01*
X31214575Y10798562D01*
X31174196Y10779465D01*
X31132128Y10764411D01*
X31088810Y10753562D01*
X31044607Y10747004D01*
X31000000Y10744812D01*
D02*
G37*
%LPC*%
G36*
X46198737Y8051847D02*
X46110997Y8056159D01*
X46024081Y8069051D01*
X45938866Y8090396D01*
X45856144Y8119996D01*
X45776727Y8157556D01*
X45701374Y8202721D01*
X45630810Y8255055D01*
X45565711Y8314057D01*
X45506709Y8379156D01*
X45454375Y8449720D01*
X45409210Y8525073D01*
X45371650Y8604490D01*
X45342050Y8687212D01*
X45320705Y8772427D01*
X45307813Y8859343D01*
X45303501Y8947083D01*
X45307813Y9034823D01*
X45320705Y9121739D01*
X45342050Y9206954D01*
X45371650Y9289676D01*
X45409210Y9369093D01*
X45454375Y9444446D01*
X45506709Y9515010D01*
X45565711Y9580109D01*
X45630810Y9639111D01*
X45701374Y9691445D01*
X45776727Y9736610D01*
X45856144Y9774170D01*
X45938866Y9803770D01*
X46024081Y9825115D01*
X46110997Y9838007D01*
X46198737Y9842319D01*
X46286477Y9838007D01*
X46373393Y9825115D01*
X46458608Y9803770D01*
X46541330Y9774170D01*
X46620747Y9736610D01*
X46696100Y9691445D01*
X46766664Y9639111D01*
X46831763Y9580109D01*
X46890765Y9515010D01*
X46943099Y9444446D01*
X46988264Y9369093D01*
X47025824Y9289676D01*
X47055424Y9206954D01*
X47076769Y9121739D01*
X47089661Y9034823D01*
X47093973Y8947083D01*
X47089661Y8859343D01*
X47076769Y8772427D01*
X47055424Y8687212D01*
X47025824Y8604490D01*
X46988264Y8525073D01*
X46943099Y8449720D01*
X46890765Y8379156D01*
X46831763Y8314057D01*
X46766664Y8255055D01*
X46696100Y8202721D01*
X46620747Y8157556D01*
X46541330Y8119996D01*
X46458608Y8090396D01*
X46373393Y8069051D01*
X46286477Y8056159D01*
X46198737Y8051847D01*
D02*
G37*
%LPC*%
G36*
X2805000Y6694752D02*
X2706475Y6699594D01*
X2608884Y6714069D01*
X2513193Y6738038D01*
X2420304Y6771275D01*
X2331140Y6813445D01*
X2246512Y6864170D01*
X2167277Y6922935D01*
X2094183Y6989183D01*
X2027935Y7062277D01*
X1969170Y7141512D01*
X1918445Y7226140D01*
X1876275Y7315304D01*
X1843038Y7408193D01*
X1819069Y7503884D01*
X1804594Y7601475D01*
X1799752Y7700000D01*
X1804594Y7798525D01*
X1819069Y7896116D01*
X1843038Y7991807D01*
X1876275Y8084696D01*
X1918445Y8173860D01*
X1969170Y8258488D01*
X2027935Y8337723D01*
X2094183Y8410817D01*
X2167277Y8477065D01*
X2246512Y8535830D01*
X2331140Y8586555D01*
X2420304Y8628725D01*
X2513193Y8661962D01*
X2608884Y8685931D01*
X2706475Y8700406D01*
X2805000Y8705248D01*
X2903525Y8700406D01*
X3001116Y8685931D01*
X3096807Y8661962D01*
X3189696Y8628725D01*
X3278860Y8586555D01*
X3363488Y8535830D01*
X3442723Y8477065D01*
X3515817Y8410817D01*
X3582065Y8337723D01*
X3640830Y8258488D01*
X3691555Y8173860D01*
X3733725Y8084696D01*
X3766962Y7991807D01*
X3790931Y7896116D01*
X3805406Y7798525D01*
X3810248Y7700000D01*
X3805406Y7601475D01*
X3790931Y7503884D01*
X3766962Y7408193D01*
X3733725Y7315304D01*
X3691555Y7226140D01*
X3640830Y7141512D01*
X3582065Y7062277D01*
X3515817Y6989183D01*
X3442723Y6922935D01*
X3363488Y6864170D01*
X3278860Y6813445D01*
X3189696Y6771275D01*
X3096807Y6738038D01*
X3001116Y6714069D01*
X2903525Y6699594D01*
X2805000Y6694752D01*
D02*
G37*
%LPC*%
G36*
X46198737Y6051847D02*
X46110997Y6056159D01*
X46024081Y6069051D01*
X45938866Y6090396D01*
X45856144Y6119996D01*
X45776727Y6157556D01*
X45701374Y6202721D01*
X45630810Y6255055D01*
X45565711Y6314057D01*
X45506709Y6379156D01*
X45454375Y6449720D01*
X45409210Y6525073D01*
X45371650Y6604490D01*
X45342050Y6687212D01*
X45320705Y6772427D01*
X45307813Y6859343D01*
X45303501Y6947083D01*
X45307813Y7034823D01*
X45320705Y7121739D01*
X45342050Y7206954D01*
X45371650Y7289676D01*
X45409210Y7369093D01*
X45454375Y7444446D01*
X45506709Y7515010D01*
X45565711Y7580109D01*
X45630810Y7639111D01*
X45701374Y7691445D01*
X45776727Y7736610D01*
X45856144Y7774170D01*
X45938866Y7803770D01*
X46024081Y7825115D01*
X46110997Y7838007D01*
X46198737Y7842319D01*
X46286477Y7838007D01*
X46373393Y7825115D01*
X46458608Y7803770D01*
X46541330Y7774170D01*
X46620747Y7736610D01*
X46696100Y7691445D01*
X46766664Y7639111D01*
X46831763Y7580109D01*
X46890765Y7515010D01*
X46943099Y7444446D01*
X46988264Y7369093D01*
X47025824Y7289676D01*
X47055424Y7206954D01*
X47076769Y7121739D01*
X47089661Y7034823D01*
X47093973Y6947083D01*
X47089661Y6859343D01*
X47076769Y6772427D01*
X47055424Y6687212D01*
X47025824Y6604490D01*
X46988264Y6525073D01*
X46943099Y6449720D01*
X46890765Y6379156D01*
X46831763Y6314057D01*
X46766664Y6255055D01*
X46696100Y6202721D01*
X46620747Y6157556D01*
X46541330Y6119996D01*
X46458608Y6090396D01*
X46373393Y6069051D01*
X46286477Y6056159D01*
X46198737Y6051847D01*
D02*
G37*
%LPC*%
G36*
X46048737Y5097083D02*
X45357485Y5097083D01*
X45359984Y5113926D01*
X45380375Y5195333D01*
X45408646Y5274343D01*
X45444532Y5350217D01*
X45487677Y5422201D01*
X45537667Y5489606D01*
X45594029Y5551791D01*
X45656214Y5608153D01*
X45723619Y5658143D01*
X45795603Y5701288D01*
X45871477Y5737174D01*
X45950487Y5765445D01*
X46031894Y5785836D01*
X46048737Y5788335D01*
X46048737Y5097083D01*
D02*
G37*
%LPC*%
G36*
X47039989Y5097083D02*
X46348737Y5097083D01*
X46348737Y5788335D01*
X46365580Y5785836D01*
X46446987Y5765445D01*
X46525997Y5737174D01*
X46601871Y5701288D01*
X46673855Y5658143D01*
X46741260Y5608153D01*
X46803445Y5551791D01*
X46859807Y5489606D01*
X46909797Y5422201D01*
X46952942Y5350217D01*
X46988828Y5274343D01*
X47017099Y5195333D01*
X47037490Y5113926D01*
X47039989Y5097083D01*
D02*
G37*
%LPC*%
G36*
X4007387Y3255000D02*
X1602613Y3255000D01*
X1556170Y3256141D01*
X1507467Y3259734D01*
X1458999Y3265711D01*
X1410869Y3274062D01*
X1363237Y3284758D01*
X1316140Y3297792D01*
X1269770Y3313110D01*
X1224210Y3330685D01*
X1179569Y3350473D01*
X1135914Y3372447D01*
X1093447Y3396505D01*
X1052173Y3422641D01*
X1012236Y3450767D01*
X973747Y3480804D01*
X936766Y3512705D01*
X901388Y3546388D01*
X867705Y3581766D01*
X835804Y3618747D01*
X805767Y3657236D01*
X777641Y3697173D01*
X751505Y3738447D01*
X727447Y3780914D01*
X705473Y3824569D01*
X685685Y3869210D01*
X668110Y3914770D01*
X652792Y3961140D01*
X639758Y4008237D01*
X629062Y4055869D01*
X620711Y4103999D01*
X614734Y4152467D01*
X611141Y4201170D01*
X609941Y4250000D01*
X611141Y4298830D01*
X614734Y4347533D01*
X620711Y4396001D01*
X629062Y4444131D01*
X639758Y4491763D01*
X652792Y4538860D01*
X668110Y4585230D01*
X685685Y4630790D01*
X705473Y4675431D01*
X727447Y4719086D01*
X751505Y4761553D01*
X777641Y4802827D01*
X805767Y4842764D01*
X835804Y4881253D01*
X867705Y4918234D01*
X901388Y4953612D01*
X936766Y4987295D01*
X973747Y5019196D01*
X1012236Y5049233D01*
X1052173Y5077359D01*
X1093447Y5103495D01*
X1135914Y5127553D01*
X1179569Y5149527D01*
X1224210Y5169315D01*
X1269770Y5186890D01*
X1316140Y5202208D01*
X1363237Y5215242D01*
X1410869Y5225938D01*
X1458999Y5234289D01*
X1507467Y5240266D01*
X1556170Y5243859D01*
X1602613Y5245000D01*
X4007387Y5245000D01*
X4053830Y5243859D01*
X4102533Y5240266D01*
X4151001Y5234289D01*
X4199131Y5225938D01*
X4246763Y5215242D01*
X4293860Y5202208D01*
X4340230Y5186890D01*
X4385790Y5169315D01*
X4430431Y5149527D01*
X4474086Y5127553D01*
X4516553Y5103495D01*
X4557827Y5077359D01*
X4597764Y5049233D01*
X4636253Y5019196D01*
X4673234Y4987295D01*
X4708612Y4953612D01*
X4742295Y4918234D01*
X4774196Y4881253D01*
X4804233Y4842764D01*
X4832359Y4802827D01*
X4858495Y4761553D01*
X4882553Y4719086D01*
X4904527Y4675431D01*
X4924315Y4630790D01*
X4941890Y4585230D01*
X4957208Y4538860D01*
X4970242Y4491763D01*
X4980938Y4444131D01*
X4989289Y4396001D01*
X4995266Y4347533D01*
X4998859Y4298830D01*
X5000059Y4250000D01*
X4998859Y4201170D01*
X4995266Y4152467D01*
X4989289Y4103999D01*
X4980938Y4055869D01*
X4970242Y4008237D01*
X4957208Y3961140D01*
X4941890Y3914770D01*
X4924315Y3869210D01*
X4904527Y3824569D01*
X4882553Y3780914D01*
X4858495Y3738447D01*
X4832359Y3697173D01*
X4804233Y3657236D01*
X4774196Y3618747D01*
X4742295Y3581766D01*
X4708612Y3546388D01*
X4673234Y3512705D01*
X4636253Y3480804D01*
X4597764Y3450767D01*
X4557827Y3422641D01*
X4516553Y3396505D01*
X4474086Y3372447D01*
X4430431Y3350473D01*
X4385790Y3330685D01*
X4340230Y3313110D01*
X4293860Y3297792D01*
X4246763Y3284758D01*
X4199131Y3274062D01*
X4151001Y3265711D01*
X4102533Y3259734D01*
X4053830Y3256141D01*
X4007387Y3255000D01*
D02*
G37*
%LPC*%
G36*
X46348737Y4105831D02*
X46348737Y4797083D01*
X47039989Y4797083D01*
X47037490Y4780240D01*
X47017099Y4698833D01*
X46988828Y4619823D01*
X46952942Y4543949D01*
X46909797Y4471965D01*
X46859807Y4404560D01*
X46803445Y4342375D01*
X46741260Y4286013D01*
X46673855Y4236023D01*
X46601871Y4192878D01*
X46525997Y4156992D01*
X46446987Y4128721D01*
X46365580Y4108330D01*
X46348737Y4105831D01*
D02*
G37*
%LPC*%
G36*
X46048737Y4105831D02*
X46031894Y4108330D01*
X45950487Y4128721D01*
X45871477Y4156992D01*
X45795603Y4192878D01*
X45723619Y4236023D01*
X45656214Y4286013D01*
X45594029Y4342375D01*
X45537667Y4404560D01*
X45487677Y4471965D01*
X45444532Y4543949D01*
X45408646Y4619823D01*
X45380375Y4698833D01*
X45359984Y4780240D01*
X45357485Y4797083D01*
X46048737Y4797083D01*
X46048737Y4105831D01*
D02*
G37*
%LPD*%
G01*
%LPD*%
G75*
D10*
X46198737Y8947083D03*
D10*
X46198737Y12947083D03*
D10*
X46198737Y6947083D03*
D10*
X46198737Y4947083D03*
D10*
X46198737Y14947083D03*
D10*
X46198737Y10947083D03*
D11*
X2805000Y4250000D03*
D11*
X2805000Y15650000D03*
D12*
X36468737Y6947083D03*
D13*
X29470000Y4000334D03*
D13*
X900000Y12317000D03*
D14*
X900000Y2850000D03*
D14*
X47900000Y17050000D03*
D14*
X47900000Y7583000D03*
D14*
X15450000Y19000000D03*
D14*
X46150000Y900000D03*
D14*
X900000Y17050000D03*
D14*
X27150000Y900000D03*
D15*
X13998000Y16330000D03*
D13*
X11458000Y17320000D03*
D16*
X26640000Y11080000D03*
D14*
X21850000Y19000000D03*
D13*
X42098737Y13447083D03*
D15*
X32160000Y17759666D03*
D14*
X9050000Y19000000D03*
D16*
X31000000Y11200000D03*
D13*
X22455000Y8100000D03*
D14*
X46150000Y19000000D03*
D13*
X28860000Y18959666D03*
D13*
X15598000Y15730000D03*
D13*
X36425292Y3560000D03*
D14*
X33550000Y900000D03*
D14*
X47900000Y12316000D03*
D13*
X43998737Y11547083D03*
D15*
X10293000Y3180000D03*
D14*
X40050000Y19000000D03*
D13*
X16270000Y11640000D03*
D13*
X36700000Y15200000D03*
D13*
X10565000Y8950000D03*
D13*
X10565000Y10950000D03*
D14*
X2650000Y900000D03*
D15*
X26170000Y5200334D03*
D16*
X31000000Y12940000D03*
D13*
X34384708Y2160000D03*
D14*
X21850000Y900000D03*
D14*
X39950000Y900000D03*
D14*
X27150000Y19000000D03*
D15*
X7928000Y16820000D03*
D15*
X7400000Y5100000D03*
D14*
X15450000Y900000D03*
D14*
X9050000Y900000D03*
D15*
X19780000Y16510000D03*
D13*
X28060000Y14179666D03*
D13*
X38768737Y11347083D03*
D14*
X2650000Y19000000D03*
D13*
X28860000Y8780334D03*
D14*
X47900000Y2850000D03*
D13*
X14893000Y5360000D03*
D13*
X37750000Y14250000D03*
D13*
X16140000Y8350000D03*
D13*
X35500000Y16000000D03*
D13*
X900000Y7584000D03*
D16*
X32600000Y16200000D03*
M02*
