%FSLAX46Y46*%
%MOMM*%
%ADD10C,0.300000*%
G01*
%LPD*%
G01*
%LPD*%
D10*
X43698736Y13461369D02*
X43555880Y13318512D01*
D10*
X43913024Y13532797D02*
X43698736Y13461369D01*
D10*
X44198736Y13532797D02*
X43913024Y13532797D01*
D10*
X44413024Y13461369D02*
X44198736Y13532797D01*
D10*
X44555880Y13318512D02*
X44413024Y13461369D01*
D10*
X44555880Y13175654D02*
X44555880Y13318512D01*
D10*
X44484452Y13032797D02*
X44555880Y13175654D01*
D10*
X44413024Y12961369D02*
X44484452Y13032797D01*
D10*
X44270164Y12889940D02*
X44413024Y12961369D01*
D10*
X43841596Y12747083D02*
X44270164Y12889940D01*
D10*
X43698736Y12675654D02*
X43841596Y12747083D01*
D10*
X43627308Y12604226D02*
X43698736Y12675654D01*
D10*
X43555880Y12461369D02*
X43627308Y12604226D01*
D10*
X43555880Y12247083D02*
X43555880Y12461369D01*
D10*
X43698736Y12104226D02*
X43555880Y12247083D01*
D10*
X43913024Y12032797D02*
X43698736Y12104226D01*
D10*
X44198736Y12032797D02*
X43913024Y12032797D01*
D10*
X44413024Y12104226D02*
X44198736Y12032797D01*
D10*
X44555880Y12247083D02*
X44413024Y12104226D01*
D10*
X43055880Y12032797D02*
X43055880Y13532797D01*
D10*
X42555880Y13532797D02*
X43055880Y13532797D01*
D10*
X42341596Y13461369D02*
X42555880Y13532797D01*
D10*
X42198736Y13318512D02*
X42341596Y13461369D01*
D10*
X42127308Y13175654D02*
X42198736Y13318512D01*
D10*
X42055880Y12961369D02*
X42127308Y13175654D01*
D10*
X42055880Y12604226D02*
X42055880Y12961369D01*
D10*
X42127308Y12389940D02*
X42055880Y12604226D01*
D10*
X42198736Y12247083D02*
X42127308Y12389940D01*
D10*
X42341596Y12104226D02*
X42198736Y12247083D01*
D10*
X42555880Y12032797D02*
X42341596Y12104226D01*
D10*
X43055880Y12032797D02*
X42555880Y12032797D01*
D10*
X41770164Y12032797D02*
X41198736Y13532797D01*
D10*
X40627308Y12032797D02*
X41198736Y13532797D01*
D10*
X40841596Y12532797D02*
X41555880Y12532797D01*
D10*
X43627308Y7932797D02*
X44413024Y7932797D01*
D10*
X44055880Y7361368D02*
X43627308Y7932797D01*
D10*
X43841596Y7361368D02*
X44055880Y7361368D01*
D10*
X43698740Y7289940D02*
X43841596Y7361368D01*
D10*
X43627308Y7218511D02*
X43698740Y7289940D01*
D10*
X43555880Y7004226D02*
X43627308Y7218511D01*
D10*
X43555880Y6861368D02*
X43555880Y7004226D01*
D10*
X43627308Y6647083D02*
X43555880Y6861368D01*
D10*
X43770168Y6504226D02*
X43627308Y6647083D01*
D10*
X43984452Y6432797D02*
X43770168Y6504226D01*
D10*
X44198736Y6432797D02*
X43984452Y6432797D01*
D10*
X44413024Y6504226D02*
X44198736Y6432797D01*
D10*
X44484452Y6575654D02*
X44413024Y6504226D01*
D10*
X44555880Y6718511D02*
X44484452Y6575654D01*
D10*
X43055880Y6504226D02*
X42984452Y6575654D01*
D10*
X42984452Y6432797D02*
X43055880Y6504226D01*
D10*
X42913024Y6504226D02*
X42984452Y6432797D01*
D10*
X42984452Y6575654D02*
X42913024Y6504226D01*
D10*
X41484452Y7932797D02*
X42270168Y7932797D01*
D10*
X41913024Y7361368D02*
X41484452Y7932797D01*
D10*
X41698740Y7361368D02*
X41913024Y7361368D01*
D10*
X41555880Y7289940D02*
X41698740Y7361368D01*
D10*
X41484452Y7218511D02*
X41555880Y7289940D01*
D10*
X41413024Y7004226D02*
X41484452Y7218511D01*
D10*
X41413024Y6861368D02*
X41413024Y7004226D01*
D10*
X41484452Y6647083D02*
X41413024Y6861368D01*
D10*
X41627308Y6504226D02*
X41484452Y6647083D01*
D10*
X41841596Y6432797D02*
X41627308Y6504226D01*
D10*
X42055880Y6432797D02*
X41841596Y6432797D01*
D10*
X42270168Y6504226D02*
X42055880Y6432797D01*
D10*
X42341596Y6575654D02*
X42270168Y6504226D01*
D10*
X42413024Y6718511D02*
X42341596Y6575654D01*
D10*
X40555880Y6432797D02*
X41127308Y7932797D01*
D10*
X40555880Y6432797D02*
X39984452Y7932797D01*
D10*
X43555880Y5718511D02*
X43484452Y5575654D01*
D10*
X43698736Y5861368D02*
X43555880Y5718511D01*
D10*
X43841592Y5932797D02*
X43698736Y5861368D01*
D10*
X44127308Y5932797D02*
X43841592Y5932797D01*
D10*
X44270164Y5861368D02*
X44127308Y5932797D01*
D10*
X44413020Y5718511D02*
X44270164Y5861368D01*
D10*
X44484448Y5575654D02*
X44413020Y5718511D01*
D10*
X44555880Y5361368D02*
X44484448Y5575654D01*
D10*
X44555880Y5004226D02*
X44555880Y5361368D01*
D10*
X44484448Y4789940D02*
X44555880Y5004226D01*
D10*
X44413020Y4647083D02*
X44484448Y4789940D01*
D10*
X44270164Y4504226D02*
X44413020Y4647083D01*
D10*
X44127308Y4432797D02*
X44270164Y4504226D01*
D10*
X43841592Y4432797D02*
X44127308Y4432797D01*
D10*
X43698736Y4504226D02*
X43841592Y4432797D01*
D10*
X43555880Y4647083D02*
X43698736Y4504226D01*
D10*
X43484452Y4789940D02*
X43555880Y4647083D01*
D10*
X43484452Y5004226D02*
X43484452Y4789940D01*
D10*
X43484452Y5004226D02*
X43841592Y5004226D01*
D10*
X42984452Y4432797D02*
X42984452Y5932797D01*
D10*
X41984452Y4432797D02*
X42984452Y5932797D01*
D10*
X41984452Y4432797D02*
X41984452Y5932797D01*
D10*
X41413020Y4432797D02*
X41413020Y5932797D01*
D10*
X40913020Y5932797D02*
X41413020Y5932797D01*
D10*
X40698736Y5861368D02*
X40913020Y5932797D01*
D10*
X40555880Y5718511D02*
X40698736Y5861368D01*
D10*
X40484452Y5575654D02*
X40555880Y5718511D01*
D10*
X40413020Y5361368D02*
X40484452Y5575654D01*
D10*
X40413020Y5004226D02*
X40413020Y5361368D01*
D10*
X40484452Y4789940D02*
X40413020Y5004226D01*
D10*
X40555880Y4647083D02*
X40484452Y4789940D01*
D10*
X40698736Y4504226D02*
X40555880Y4647083D01*
D10*
X40913020Y4432797D02*
X40698736Y4504226D01*
D10*
X41413020Y4432797D02*
X40913020Y4432797D01*
D10*
X44555880Y14032797D02*
X44555880Y15532797D01*
D10*
X43627312Y15532797D02*
X44555880Y15532797D01*
D10*
X43984452Y14818512D02*
X44555880Y14818512D01*
D10*
X42913024Y14032797D02*
X43484452Y15532797D01*
D10*
X42913024Y14032797D02*
X42341596Y15532797D01*
D10*
X41698740Y15318512D02*
X41841596Y15247083D01*
D10*
X41484452Y15532797D02*
X41698740Y15318512D01*
D10*
X41484452Y14032797D02*
X41484452Y15532797D01*
D10*
X43698736Y11461369D02*
X43555880Y11318512D01*
D10*
X43913024Y11532797D02*
X43698736Y11461369D01*
D10*
X44198736Y11532797D02*
X43913024Y11532797D01*
D10*
X44413024Y11461369D02*
X44198736Y11532797D01*
D10*
X44555880Y11318512D02*
X44413024Y11461369D01*
D10*
X44555880Y11175654D02*
X44555880Y11318512D01*
D10*
X44484452Y11032797D02*
X44555880Y11175654D01*
D10*
X44413024Y10961369D02*
X44484452Y11032797D01*
D10*
X44270164Y10889940D02*
X44413024Y10961369D01*
D10*
X43841592Y10747083D02*
X44270164Y10889940D01*
D10*
X43698736Y10675654D02*
X43841592Y10747083D01*
D10*
X43627308Y10604226D02*
X43698736Y10675654D01*
D10*
X43555880Y10461369D02*
X43627308Y10604226D01*
D10*
X43555880Y10247083D02*
X43555880Y10461369D01*
D10*
X43698736Y10104226D02*
X43555880Y10247083D01*
D10*
X43913024Y10032797D02*
X43698736Y10104226D01*
D10*
X44198736Y10032797D02*
X43913024Y10032797D01*
D10*
X44413024Y10104226D02*
X44198736Y10032797D01*
D10*
X44555880Y10247083D02*
X44413024Y10104226D01*
D10*
X42127308Y11318512D02*
X42055880Y11175654D01*
D10*
X42270164Y11461369D02*
X42127308Y11318512D01*
D10*
X42413024Y11532797D02*
X42270164Y11461369D01*
D10*
X42698736Y11532797D02*
X42413024Y11532797D01*
D10*
X42841592Y11461369D02*
X42698736Y11532797D01*
D10*
X42984452Y11318512D02*
X42841592Y11461369D01*
D10*
X43055880Y11175654D02*
X42984452Y11318512D01*
D10*
X43127308Y10961369D02*
X43055880Y11175654D01*
D10*
X43127308Y10604226D02*
X43127308Y10961369D01*
D10*
X43055880Y10389940D02*
X43127308Y10604226D01*
D10*
X42984452Y10247083D02*
X43055880Y10389940D01*
D10*
X42841592Y10104226D02*
X42984452Y10247083D01*
D10*
X42698736Y10032797D02*
X42841592Y10104226D01*
D10*
X42413024Y10032797D02*
X42698736Y10032797D01*
D10*
X42270164Y10104226D02*
X42413024Y10032797D01*
D10*
X42127308Y10247083D02*
X42270164Y10104226D01*
D10*
X42055880Y10389940D02*
X42127308Y10247083D01*
D10*
X41555880Y10032797D02*
X41555880Y11532797D01*
D10*
X40698736Y10032797D02*
X41555880Y10032797D01*
G75*
M02*
