M48
FMAT,2
METRIC,TZ
T6C0.250
T5C0.350
T4C0.600
T1C0.700
T3C1.000
T2C1.600
%
G90
G05
M71
T6
X26.640Y11.080
X31.000Y11.200
X31.000Y12.940
X32.600Y16.200
T5
X29.470Y4.000
X0.900Y12.317
X0.900Y2.850
X47.900Y17.050
X47.900Y7.583
X15.450Y19.000
X46.150Y0.900
X0.900Y17.050
X27.150Y0.900
X11.458Y17.320
X21.850Y19.000
X42.099Y13.447
X9.050Y19.000
X22.455Y8.100
X46.150Y19.000
X28.860Y18.960
X15.598Y15.730
X36.425Y3.560
X33.550Y0.900
X47.900Y12.316
X43.999Y11.547
X40.050Y19.000
X16.270Y11.640
X36.700Y15.200
X10.565Y8.950
X10.565Y10.950
X2.650Y0.900
X34.385Y2.160
X21.850Y0.900
X39.950Y0.900
X27.150Y19.000
X15.450Y0.900
X9.050Y0.900
X28.060Y14.180
X38.769Y11.347
X2.650Y19.000
X28.860Y8.780
X47.900Y2.850
X14.893Y5.360
X37.750Y14.250
X16.140Y8.350
X35.500Y16.000
X0.900Y7.584
T4
X38.170Y17.295
X39.440Y17.295
X36.900Y17.295
X34.360Y17.295
X35.630Y17.295
X13.998Y16.330
X32.160Y17.760
X10.293Y3.180
X26.170Y5.200
X7.928Y16.820
X7.400Y5.100
X19.780Y16.510
T1
X46.199Y8.947
X46.199Y12.947
X46.199Y6.947
X46.199Y4.947
X46.199Y14.947
X46.199Y10.947
T3
X36.469Y6.947
X2.055Y4.250G85X3.555Y4.250
X2.055Y15.650G85X3.555Y15.650
T2
X2.805Y7.700
X2.805Y12.200
M30
