%FSLAX46Y46*%
%MOMM*%
%AMPS15*
21,1,0.800000,0.800000,0.000000,0.000000,0.000000*
%
%ADD15PS15*%
%AMPS14*
21,1,0.800000,0.800000,0.000000,0.000000,180.000000*
%
%ADD14PS14*%
%AMPS29*
21,1,1.450000,0.350000,0.000000,0.000000,90.000000*
%
%ADD29PS29*%
%AMPS28*
21,1,1.450000,0.350000,0.000000,0.000000,270.000000*
%
%ADD28PS28*%
%AMPS21*
21,1,0.500000,1.550000,0.000000,0.000000,0.000000*
%
%ADD21PS21*%
%AMPS18*
21,1,0.500000,1.550000,0.000000,0.000000,90.000000*
%
%ADD18PS18*%
%AMPS19*
21,1,0.500000,1.550000,0.000000,0.000000,180.000000*
%
%ADD19PS19*%
%AMPS20*
21,1,0.500000,1.550000,0.000000,0.000000,270.000000*
%
%ADD20PS20*%
%AMPS26*
21,1,1.000000,1.150000,0.000000,0.000000,90.000000*
%
%ADD26PS26*%
%AMPS27*
21,1,1.000000,1.150000,0.000000,0.000000,270.000000*
%
%ADD27PS27*%
%AMPS17*
21,1,1.800000,1.100000,0.000000,0.000000,0.000000*
%
%ADD17PS17*%
%AMPS22*
21,1,1.800000,1.100000,0.000000,0.000000,90.000000*
%
%ADD22PS22*%
%AMPS16*
21,1,1.800000,1.100000,0.000000,0.000000,180.000000*
%
%ADD16PS16*%
%AMPS23*
21,1,1.800000,1.100000,0.000000,0.000000,270.000000*
%
%ADD23PS23*%
%AMPS25*
21,1,1.750000,2.650000,0.000000,0.000000,0.000000*
%
%ADD25PS25*%
%AMPS24*
21,1,1.750000,2.650000,0.000000,0.000000,180.000000*
%
%ADD24PS24*%
%AMPS10*
21,1,1.000000,0.900000,0.000000,0.000000,0.000000*
%
%ADD10PS10*%
%AMPS12*
21,1,1.000000,0.900000,0.000000,0.000000,90.000000*
%
%ADD12PS12*%
%AMPS11*
21,1,1.000000,0.900000,0.000000,0.000000,180.000000*
%
%ADD11PS11*%
%AMPS13*
21,1,1.000000,0.900000,0.000000,0.000000,270.000000*
%
%ADD13PS13*%
G01*
%LPD*%
G01*
%LPD*%
G75*
D10*
X9728000Y14520000D03*
D11*
X9728000Y16120000D03*
D11*
X21255000Y4770000D03*
D10*
X21255000Y3170000D03*
D11*
X17255000Y4770000D03*
D10*
X17255000Y3170000D03*
D12*
X33184708Y2160000D03*
D13*
X31584708Y2160000D03*
D14*
X21255000Y8100000D03*
D15*
X21255000Y6400000D03*
D14*
X17255000Y8100000D03*
D15*
X17255000Y6400000D03*
D12*
X9365000Y12640000D03*
D13*
X7765000Y12640000D03*
D16*
X38768737Y9947083D03*
D17*
X38768737Y6947083D03*
D11*
X11458000Y16120000D03*
D10*
X11458000Y14520000D03*
D13*
X19780000Y13180000D03*
D12*
X21380000Y13180000D03*
D18*
X32659666Y9480000D03*
D18*
X32659666Y12680000D03*
D19*
X30460000Y15679666D03*
D20*
X24260334Y9480000D03*
D19*
X26460000Y15679666D03*
D20*
X24260334Y10280000D03*
D21*
X31260000Y7280334D03*
D18*
X32659666Y11880000D03*
D21*
X29660000Y7280334D03*
D20*
X24260334Y8680000D03*
D21*
X28860000Y7280334D03*
D19*
X31260000Y15679666D03*
D20*
X24260334Y11080000D03*
D19*
X25660000Y15679666D03*
D21*
X25660000Y7280334D03*
D20*
X24260334Y14280000D03*
D18*
X32659666Y8680000D03*
D18*
X32659666Y14280000D03*
D18*
X32659666Y13480000D03*
D19*
X28060000Y15679666D03*
D19*
X28860000Y15679666D03*
D21*
X28060000Y7280334D03*
D21*
X27260000Y7280334D03*
D21*
X26460000Y7280334D03*
D20*
X24260334Y13480000D03*
D18*
X32659666Y11080000D03*
D18*
X32659666Y10280000D03*
D19*
X29660000Y15679666D03*
D21*
X30460000Y7280334D03*
D19*
X27260000Y15679666D03*
D20*
X24260334Y12680000D03*
D20*
X24260334Y11880000D03*
D13*
X19780000Y11450000D03*
D12*
X21380000Y11450000D03*
D10*
X35125292Y3560000D03*
D11*
X35125292Y5160000D03*
D12*
X9365000Y10950000D03*
D13*
X7765000Y10950000D03*
D11*
X19255000Y4770000D03*
D10*
X19255000Y3170000D03*
D13*
X19780000Y14910000D03*
D12*
X21380000Y14910000D03*
D22*
X15093000Y3180000D03*
D23*
X12093000Y3180000D03*
D12*
X9365000Y8950000D03*
D13*
X7765000Y8950000D03*
D24*
X42098737Y11247083D03*
D25*
X42098737Y6947083D03*
D26*
X31584708Y5160000D03*
D27*
X33335292Y3860000D03*
D26*
X33335292Y5160000D03*
D27*
X31584708Y3860000D03*
D28*
X12728000Y12450000D03*
D29*
X13363000Y7450000D03*
D29*
X15268000Y7450000D03*
D29*
X11458000Y7450000D03*
D28*
X13998000Y12450000D03*
D29*
X12093000Y7450000D03*
D29*
X14633000Y7450000D03*
D28*
X13363000Y12450000D03*
D28*
X14633000Y12450000D03*
D28*
X10823000Y12450000D03*
D29*
X13998000Y7450000D03*
D29*
X10823000Y7450000D03*
D29*
X12728000Y7450000D03*
D28*
X12093000Y12450000D03*
D28*
X11458000Y12450000D03*
D28*
X15268000Y12450000D03*
D12*
X13693000Y5360000D03*
D13*
X12093000Y5360000D03*
D12*
X15598000Y14530000D03*
D13*
X13998000Y14530000D03*
D12*
X9365000Y7270000D03*
D13*
X7765000Y7270000D03*
D13*
X28860000Y17759666D03*
D12*
X30460000Y17759666D03*
D14*
X19255000Y8100000D03*
D15*
X19255000Y6400000D03*
D12*
X29470000Y5200334D03*
D13*
X27870000Y5200334D03*
M02*
