%FSLAX46Y46*%
%MOMM*%
%AMPS26*
1,1,1.600000,0.000000,0.000000*
%
%ADD26PS26*%
%AMPS15*
21,1,1.000000,1.000000,0.000000,0.000000,0.000000*
%
%ADD15PS15*%
%AMPS14*
21,1,1.000000,1.000000,0.000000,0.000000,180.000000*
%
%ADD14PS14*%
%AMPS30*
21,1,1.650000,0.550000,0.000000,0.000000,90.000000*
%
%ADD30PS30*%
%AMPS29*
21,1,1.650000,0.550000,0.000000,0.000000,270.000000*
%
%ADD29PS29*%
%AMPS21*
21,1,0.700000,1.750000,0.000000,0.000000,0.000000*
%
%ADD21PS21*%
%AMPS18*
21,1,0.700000,1.750000,0.000000,0.000000,90.000000*
%
%ADD18PS18*%
%AMPS19*
21,1,0.700000,1.750000,0.000000,0.000000,180.000000*
%
%ADD19PS19*%
%AMPS20*
21,1,0.700000,1.750000,0.000000,0.000000,270.000000*
%
%ADD20PS20*%
%AMPS27*
21,1,1.200000,1.350000,0.000000,0.000000,90.000000*
%
%ADD27PS27*%
%AMPS28*
21,1,1.200000,1.350000,0.000000,0.000000,270.000000*
%
%ADD28PS28*%
%AMPS17*
21,1,2.000000,1.300000,0.000000,0.000000,0.000000*
%
%ADD17PS17*%
%AMPS22*
21,1,2.000000,1.300000,0.000000,0.000000,90.000000*
%
%ADD22PS22*%
%AMPS16*
21,1,2.000000,1.300000,0.000000,0.000000,180.000000*
%
%ADD16PS16*%
%AMPS23*
21,1,2.000000,1.300000,0.000000,0.000000,270.000000*
%
%ADD23PS23*%
%AMPS25*
21,1,1.950000,2.850000,0.000000,0.000000,0.000000*
%
%ADD25PS25*%
%AMPS24*
21,1,1.950000,2.850000,0.000000,0.000000,180.000000*
%
%ADD24PS24*%
%AMPS10*
21,1,1.200000,1.100000,0.000000,0.000000,0.000000*
%
%ADD10PS10*%
%AMPS12*
21,1,1.200000,1.100000,0.000000,0.000000,90.000000*
%
%ADD12PS12*%
%AMPS11*
21,1,1.200000,1.100000,0.000000,0.000000,180.000000*
%
%ADD11PS11*%
%AMPS13*
21,1,1.200000,1.100000,0.000000,0.000000,270.000000*
%
%ADD13PS13*%
%AMPS35*
1,1,1.000000,0.000000,-0.350000*
4,1,4,
0.500000,0.850000,
0.500000,-0.350000,
-0.500000,-0.350000,
-0.500000,0.850000,
0.500000,0.850000,
0*
%
%ADD35PS35*%
%AMPS36*
1,1,1.200000,0.000000,0.000000*
%
%ADD36PS36*%
%AMPS37*
1,1,0.550000,0.000000,0.000000*
%
%ADD37PS37*%
%AMPS39*
1,1,0.450000,0.000000,0.000000*
%
%ADD39PS39*%
%AMPS38*
1,1,0.800000,0.000000,0.000000*
%
%ADD38PS38*%
%AMPS33*
21,1,2.400000,1.800000,0.000000,0.000000,0.000000*
1,1,1.800000,1.200000,0.000000*
1,1,1.800000,-1.200000,0.000000*
%
%ADD33PS33*%
%AMPS31*
21,1,1.400000,2.200000,0.000000,0.000000,270.000000*
%
%ADD31PS31*%
%AMPS34*
1,1,0.800000,0.000000,0.000000*
%
%ADD34PS34*%
%AMPS32*
1,1,1.800000,0.000000,0.000000*
%
%ADD32PS32*%
G01*
%LPD*%
G01*
%LPD*%
G75*
D10*
X9728000Y14520000D03*
D11*
X9728000Y16120000D03*
D11*
X21255000Y4770000D03*
D10*
X21255000Y3170000D03*
D11*
X17255000Y4770000D03*
D10*
X17255000Y3170000D03*
D12*
X33184708Y2160000D03*
D13*
X31584708Y2160000D03*
D14*
X21255000Y8100000D03*
D15*
X21255000Y6400000D03*
D14*
X17255000Y8100000D03*
D15*
X17255000Y6400000D03*
D12*
X9365000Y12640000D03*
D13*
X7765000Y12640000D03*
D16*
X38768737Y9947083D03*
D17*
X38768737Y6947083D03*
D11*
X11458000Y16120000D03*
D10*
X11458000Y14520000D03*
D13*
X19780000Y13180000D03*
D12*
X21380000Y13180000D03*
D18*
X32659666Y9480000D03*
D18*
X32659666Y12680000D03*
D19*
X30460000Y15679666D03*
D20*
X24260334Y9480000D03*
D19*
X26460000Y15679666D03*
D20*
X24260334Y10280000D03*
D21*
X31260000Y7280334D03*
D18*
X32659666Y11880000D03*
D21*
X29660000Y7280334D03*
D20*
X24260334Y8680000D03*
D21*
X28860000Y7280334D03*
D19*
X31260000Y15679666D03*
D20*
X24260334Y11080000D03*
D19*
X25660000Y15679666D03*
D21*
X25660000Y7280334D03*
D20*
X24260334Y14280000D03*
D18*
X32659666Y8680000D03*
D18*
X32659666Y14280000D03*
D18*
X32659666Y13480000D03*
D19*
X28060000Y15679666D03*
D19*
X28860000Y15679666D03*
D21*
X28060000Y7280334D03*
D21*
X27260000Y7280334D03*
D21*
X26460000Y7280334D03*
D20*
X24260334Y13480000D03*
D18*
X32659666Y11080000D03*
D18*
X32659666Y10280000D03*
D19*
X29660000Y15679666D03*
D21*
X30460000Y7280334D03*
D19*
X27260000Y15679666D03*
D20*
X24260334Y12680000D03*
D20*
X24260334Y11880000D03*
D13*
X19780000Y11450000D03*
D12*
X21380000Y11450000D03*
D10*
X35125292Y3560000D03*
D11*
X35125292Y5160000D03*
D12*
X9365000Y10950000D03*
D13*
X7765000Y10950000D03*
D11*
X19255000Y4770000D03*
D10*
X19255000Y3170000D03*
D13*
X19780000Y14910000D03*
D12*
X21380000Y14910000D03*
D22*
X15093000Y3180000D03*
D23*
X12093000Y3180000D03*
D12*
X9365000Y8950000D03*
D13*
X7765000Y8950000D03*
D24*
X42098737Y11247083D03*
D25*
X42098737Y6947083D03*
D26*
X46198737Y8947083D03*
D26*
X46198737Y12947083D03*
D26*
X46198737Y6947083D03*
D26*
X46198737Y4947083D03*
D26*
X46198737Y14947083D03*
D26*
X46198737Y10947083D03*
D27*
X31584708Y5160000D03*
D28*
X33335292Y3860000D03*
D27*
X33335292Y5160000D03*
D28*
X31584708Y3860000D03*
D29*
X12728000Y12450000D03*
D30*
X13363000Y7450000D03*
D30*
X15268000Y7450000D03*
D30*
X11458000Y7450000D03*
D29*
X13998000Y12450000D03*
D30*
X12093000Y7450000D03*
D30*
X14633000Y7450000D03*
D29*
X13363000Y12450000D03*
D29*
X14633000Y12450000D03*
D29*
X10823000Y12450000D03*
D30*
X13998000Y7450000D03*
D30*
X10823000Y7450000D03*
D30*
X12728000Y7450000D03*
D29*
X12093000Y12450000D03*
D29*
X11458000Y12450000D03*
D29*
X15268000Y12450000D03*
D12*
X13693000Y5360000D03*
D13*
X12093000Y5360000D03*
D31*
X5405000Y8950000D03*
D31*
X5405000Y6450000D03*
D32*
X2805000Y7700000D03*
D32*
X2805000Y12200000D03*
D31*
X5405000Y10950000D03*
D33*
X2805000Y4250000D03*
D33*
X2805000Y15650000D03*
D31*
X5405000Y13450000D03*
D12*
X15598000Y14530000D03*
D13*
X13998000Y14530000D03*
D12*
X9365000Y7270000D03*
D13*
X7765000Y7270000D03*
D34*
X38170000Y17295000D03*
D34*
X39440000Y17295000D03*
D34*
X36900000Y17295000D03*
D34*
X34360000Y17295000D03*
D35*
X36265000Y18450000D03*
D35*
X34995000Y18450000D03*
D35*
X38805000Y18450000D03*
D35*
X37535000Y18450000D03*
D34*
X35630000Y17295000D03*
D13*
X28860000Y17759666D03*
D12*
X30460000Y17759666D03*
D14*
X19255000Y8100000D03*
D15*
X19255000Y6400000D03*
D12*
X29470000Y5200334D03*
D13*
X27870000Y5200334D03*
D36*
X36468737Y6947083D03*
D37*
X900000Y2850000D03*
D37*
X47900000Y17050000D03*
D37*
X47900000Y7583000D03*
D37*
X15450000Y19000000D03*
D37*
X46150000Y900000D03*
D37*
X900000Y17050000D03*
D37*
X27150000Y900000D03*
D38*
X13998000Y16330000D03*
D39*
X26640000Y11080000D03*
D37*
X21850000Y19000000D03*
D38*
X32160000Y17759666D03*
D37*
X9050000Y19000000D03*
D39*
X31000000Y11200000D03*
D37*
X46150000Y19000000D03*
D37*
X33550000Y900000D03*
D37*
X47900000Y12316000D03*
D38*
X10293000Y3180000D03*
D37*
X40050000Y19000000D03*
D37*
X2650000Y900000D03*
D38*
X26170000Y5200334D03*
D39*
X31000000Y12940000D03*
D37*
X21850000Y900000D03*
D37*
X39950000Y900000D03*
D37*
X27150000Y19000000D03*
D38*
X7928000Y16820000D03*
D38*
X7400000Y5100000D03*
D37*
X15450000Y900000D03*
D37*
X9050000Y900000D03*
D38*
X19780000Y16510000D03*
D37*
X2650000Y19000000D03*
D37*
X47900000Y2850000D03*
D39*
X32600000Y16200000D03*
M02*
